<?xml version="1.0" encoding="UTF-8"?>
<!DOCTYPE svg PUBLIC "-//W3C//DTD SVG 1.1//EN" "http://www.w3.org/Graphics/SVG/1.1/DTD/svg11.dtd">
<svg xmlns="http://www.w3.org/2000/svg" version="1.1" width="538px" height="264px" style="shape-rendering:geometricPrecision; text-rendering:geometricPrecision; image-rendering:optimizeQuality; fill-rule:evenodd; clip-rule:evenodd" xmlns:xlink="http://www.w3.org/1999/xlink">
<g><path style="opacity:1" fill="#ec1b24" d="M -0.5,-0.5 C 178.833,-0.5 358.167,-0.5 537.5,-0.5C 537.5,87.5 537.5,175.5 537.5,263.5C 358.167,263.5 178.833,263.5 -0.5,263.5C -0.5,175.5 -0.5,87.5 -0.5,-0.5 Z"/></g>
<g><path style="opacity:1" fill="#fde9e7" d="M 355.5,87.5 C 356.365,95.4659 356.698,103.466 356.5,111.5C 350.492,154.68 326.159,181.18 283.5,191C 246.481,196 216.981,183.5 195,153.5C 171.189,112.214 175.356,74.0472 207.5,39C 235.832,13.9189 267.832,8.2522 303.5,22C 331.802,35.1341 349.135,56.9675 355.5,87.5 Z"/></g>
<g><path style="opacity:1" fill="#e62c2d" d="M 351.5,83.5 C 358.733,120.131 347.733,150.131 318.5,173.5C 282.066,196.17 246.733,194.67 212.5,169C 182.239,138.868 175.405,104.034 192,64.5C 219.19,21.1879 257.023,8.35461 305.5,26C 329.547,38.2115 344.88,57.3782 351.5,83.5 Z"/></g>
<g><path style="opacity:1" fill="#fbf6f5" d="M 253.5,23.5 C 294.511,19.914 324.345,36.2473 343,72.5C 355.024,108.746 347.19,139.912 319.5,166C 296.228,183.269 270.561,187.936 242.5,180C 203.631,163.458 185.797,133.958 189,91.5C 196.722,55.6148 218.222,32.9481 253.5,23.5 Z"/></g>
<g><path style="opacity:1" fill="#f81420" d="M 351.5,83.5 C 350.865,86.4929 350.699,89.4929 351,92.5C 351.333,91.5 351.667,90.5 352,89.5C 352.667,98.5 352.667,107.5 352,116.5C 351.061,106.968 349.894,97.4678 348.5,88C 348.547,85.7439 349.547,84.2439 351.5,83.5 Z"/></g>
<g><path style="opacity:1" fill="#ef8a8c" d="M 355.5,87.5 C 356.268,88.2625 356.768,89.2625 357,90.5C 357.821,97.6791 357.655,104.679 356.5,111.5C 356.698,103.466 356.365,95.4659 355.5,87.5 Z"/></g>
<g><path style="opacity:1" fill="#eb2027" d="M 258.5,30.5 C 302.28,29.114 329.78,49.4474 341,91.5C 344.037,136.255 323.87,164.421 280.5,176C 239.599,179.312 212.099,161.812 198,123.5C 189.933,83.805 203.766,54.6383 239.5,36C 245.828,33.6729 252.162,31.8396 258.5,30.5 Z"/></g>
<g><path style="opacity:1" fill="#d77978" d="M 288.5,57.5 C 288.833,57.5 289.167,57.5 289.5,57.5C 288.931,61.3293 289.598,64.6627 291.5,67.5C 288.833,68.8333 286.167,68.8333 283.5,67.5C 285.167,67.5 286.833,67.5 288.5,67.5C 288.5,64.1667 288.5,60.8333 288.5,57.5 Z"/></g>
<g><path style="opacity:1" fill="#e9767e" d="M 269.5,59.5 C 268.964,62.6981 269.631,65.3647 271.5,67.5C 270.828,68.2674 269.995,68.9341 269,69.5C 266.393,68.8767 263.893,68.21 261.5,67.5C 263.648,67.6106 263.981,66.944 262.5,65.5C 263.5,64.1667 264.5,64.1667 265.5,65.5C 264.391,67.2141 265.058,67.8808 267.5,67.5C 267.5,65.1667 267.5,62.8333 267.5,60.5C 268.167,60.1667 268.833,59.8333 269.5,59.5 Z"/></g>
<g><path style="opacity:1" fill="#fde3e1" d="M 267.5,60.5 C 267.5,62.8333 267.5,65.1667 267.5,67.5C 265.058,67.8808 264.391,67.2141 265.5,65.5C 264.5,64.1667 263.5,64.1667 262.5,65.5C 263.981,66.944 263.648,67.6106 261.5,67.5C 260.778,67.0825 260.278,66.4158 260,65.5C 256.818,69.4236 253.818,69.4236 251,65.5C 249.143,58.0222 251.81,55.3555 259,57.5C 259.591,58.4835 259.257,59.1501 258,59.5C 253.525,58.0556 251.858,59.7223 253,64.5C 253.689,65.3567 254.522,66.0233 255.5,66.5C 258.827,65.0005 262.161,63.5005 265.5,62C 264.167,61.6667 262.833,61.3333 261.5,61C 263.483,59.2926 265.483,59.126 267.5,60.5 Z"/></g>
<g><path style="opacity:1" fill="#f8dcd4" d="M 291.5,67.5 C 289.598,64.6627 288.931,61.3293 289.5,57.5C 289.56,56.9569 289.893,56.6236 290.5,56.5C 291.167,57.8333 291.833,59.1667 292.5,60.5C 294.516,59.2941 296.516,59.2941 298.5,60.5C 294.556,62.4041 294.89,63.4041 299.5,63.5C 299.714,65.1439 299.38,66.6439 298.5,68C 296.115,68.5564 293.782,68.3897 291.5,67.5 Z"/></g>
<g><path style="opacity:1" fill="#d9b7bd" d="M 288.5,57.5 C 288.5,60.8333 288.5,64.1667 288.5,67.5C 286.833,67.5 285.167,67.5 283.5,67.5C 283.5,63.5 283.5,59.5 283.5,55.5C 285.553,55.4021 287.22,56.0687 288.5,57.5 Z"/></g>
<g><path style="opacity:1" fill="#f4d7d5" d="M 269.5,59.5 C 273.5,59.5 277.5,59.5 281.5,59.5C 281.789,63.1064 281.456,66.6064 280.5,70C 278.833,70.6667 277.167,70.6667 275.5,70C 274.304,69.3457 274.304,68.8457 275.5,68.5C 276.891,69.6446 278.224,69.6446 279.5,68.5C 275.933,67.9329 273.6,65.9329 272.5,62.5C 271.548,64.0453 271.215,65.712 271.5,67.5C 269.631,65.3647 268.964,62.6981 269.5,59.5 Z"/></g>
<g><path style="opacity:1" fill="#d32935" d="M 276.5,61.5 C 277.5,61.5 278.5,61.5 279.5,61.5C 279.5,62.8333 279.5,64.1667 279.5,65.5C 278.5,65.5 277.5,65.5 276.5,65.5C 276.5,64.1667 276.5,62.8333 276.5,61.5 Z"/></g>
<g><path style="opacity:1" fill="#efeae9" d="M 233.5,62.5 C 242.702,60.7408 246.702,64.4074 245.5,73.5C 251.08,73.86 256.247,75.5267 261,78.5C 270.457,71.7562 279.79,72.0896 289,79.5C 293.186,76.071 298.019,74.071 303.5,73.5C 303.34,71.8008 303.506,70.1341 304,68.5C 308.966,63.9106 314.8,62.4106 321.5,64C 322.701,64.9025 323.535,66.0692 324,67.5C 324.167,79.1809 324.667,90.8476 325.5,102.5C 326.478,102.977 327.311,103.643 328,104.5C 328.667,106.833 328.667,109.167 328,111.5C 327.5,112.667 326.667,113.5 325.5,114C 322.183,114.498 318.85,114.665 315.5,114.5C 316.737,119.763 314.904,123.43 310,125.5C 306.13,134.119 302.463,142.786 299,151.5C 292.908,161.761 284.908,163.761 275,157.5C 274.503,155.19 274.337,152.857 274.5,150.5C 268.298,150.273 262.131,150.606 256,151.5C 254.135,151.294 252.468,150.628 251,149.5C 238.351,153.674 230.017,149.341 226,136.5C 223.977,128.345 225.81,121.345 231.5,115.5C 225.948,114.812 220.448,114.146 215,113.5C 212.726,109.833 213.059,106.499 216,103.5C 216.499,98.8452 216.666,94.1785 216.5,89.5C 215.5,89.5 214.5,89.5 213.5,89.5C 213.335,86.1501 213.502,82.8168 214,79.5C 217.478,74.7211 221.311,70.2211 225.5,66C 228.025,64.2811 230.692,63.1144 233.5,62.5 Z"/></g>
<g><path style="opacity:1" fill="#452225" d="M 311.5,120.5 C 310.685,121.837 309.518,122.837 308,123.5C 306.96,126.823 305.46,129.823 303.5,132.5C 304.075,128.674 305.241,125.008 307,121.5C 308.356,120.62 309.856,120.286 311.5,120.5 Z"/></g>
<g><path style="opacity:1" fill="#4c1e1d" d="M 269.5,121.5 C 268.87,129.243 269.537,136.576 271.5,143.5C 275.378,147.408 279.378,147.408 283.5,143.5C 283.5,144.167 283.5,144.833 283.5,145.5C 283.97,146.693 284.97,147.36 286.5,147.5C 289.377,147.619 291.044,146.286 291.5,143.5C 292.803,145.757 292.136,147.59 289.5,149C 286.174,149.172 282.841,149.005 279.5,148.5C 279.5,150.833 279.5,153.167 279.5,155.5C 282.833,155.5 286.167,155.5 289.5,155.5C 286.375,156.479 283.042,156.813 279.5,156.5C 277.631,154.365 276.964,151.698 277.5,148.5C 275.063,148.244 272.729,147.577 270.5,146.5C 264.187,149.122 257.854,149.122 251.5,146.5C 249.865,147.046 248.199,147.38 246.5,147.5C 248.41,145.438 250.743,143.938 253.5,143C 255.037,141.89 255.703,140.39 255.5,138.5C 252.377,139.233 249.377,140.233 246.5,141.5C 238.194,138.297 235.361,132.297 238,123.5C 241.933,120.571 245.433,121.071 248.5,125C 251.482,125.498 254.482,125.665 257.5,125.5C 257.925,132.665 257.258,139.665 255.5,146.5C 259.833,146.5 264.167,146.5 268.5,146.5C 268.5,145.5 268.5,144.5 268.5,143.5C 267.5,143.5 266.5,143.5 265.5,143.5C 265.5,136.167 265.5,128.833 265.5,121.5C 266.833,121.5 268.167,121.5 269.5,121.5 Z"/></g>
<g><path style="opacity:1" fill="#e31f27" d="M 271.5,113.5 C 273.167,113.5 274.833,113.5 276.5,113.5C 276.34,115.199 276.506,116.866 277,118.5C 282.072,117.529 287.238,117.195 292.5,117.5C 292.5,118.833 292.5,120.167 292.5,121.5C 294.794,133.702 297.794,134.202 301.5,123C 301.507,121.188 300.84,119.688 299.5,118.5C 303.445,117.509 307.445,117.176 311.5,117.5C 311.5,118.5 311.5,119.5 311.5,120.5C 309.856,120.286 308.356,120.62 307,121.5C 305.241,125.008 304.075,128.674 303.5,132.5C 300.081,137.787 297.248,143.453 295,149.5C 293.383,151.763 291.55,153.763 289.5,155.5C 286.167,155.5 282.833,155.5 279.5,155.5C 279.5,153.167 279.5,150.833 279.5,148.5C 282.841,149.005 286.174,149.172 289.5,149C 292.136,147.59 292.803,145.757 291.5,143.5C 291.66,141.801 291.494,140.134 291,138.5C 288.408,134.807 286.408,130.807 285,126.5C 283.809,123.466 281.642,121.799 278.5,121.5C 278.334,127.842 278.5,134.175 279,140.5C 280.825,141.103 282.659,141.77 284.5,142.5C 284.376,143.107 284.043,143.44 283.5,143.5C 279.378,147.408 275.378,147.408 271.5,143.5C 270.936,136.021 270.269,128.687 269.5,121.5C 268.167,121.5 266.833,121.5 265.5,121.5C 265.5,128.833 265.5,136.167 265.5,143.5C 266.5,143.5 267.5,143.5 268.5,143.5C 268.5,144.5 268.5,145.5 268.5,146.5C 264.167,146.5 259.833,146.5 255.5,146.5C 257.258,139.665 257.925,132.665 257.5,125.5C 254.482,125.665 251.482,125.498 248.5,125C 245.433,121.071 241.933,120.571 238,123.5C 235.361,132.297 238.194,138.297 246.5,141.5C 249.377,140.233 252.377,139.233 255.5,138.5C 255.703,140.39 255.037,141.89 253.5,143C 250.743,143.938 248.41,145.438 246.5,147.5C 232.131,145.64 226.965,137.64 231,123.5C 234.526,116.928 240.026,114.261 247.5,115.5C 250.053,116.887 252.386,118.72 254.5,121C 258.156,121.836 261.49,121.169 264.5,119C 266.422,116.57 268.755,114.737 271.5,113.5 Z"/></g>
<g><path style="opacity:1" fill="#789691" d="M 266.5,122.5 C 267.818,125.258 268.485,128.424 268.5,132C 268.167,135.167 267.833,138.333 267.5,141.5C 266.504,135.202 266.17,128.868 266.5,122.5 Z"/></g>
<g><path style="opacity:1" fill="#eef0f1" d="M 240.5,122.5 C 244.024,122.929 247.024,124.429 249.5,127C 251.847,127.334 254.181,127.167 256.5,126.5C 256.5,129.833 256.5,133.167 256.5,136.5C 253.774,136.264 251.441,137.097 249.5,139C 244.511,139.7 241.345,137.533 240,132.5C 239.253,129.076 239.42,125.743 240.5,122.5 Z"/></g>
<g><path style="opacity:1" fill="#3e1e1c" d="M 287.5,104.5 C 287.5,104.833 287.5,105.167 287.5,105.5C 286.129,107.867 284.129,109.533 281.5,110.5C 280.548,112.045 280.215,113.712 280.5,115.5C 285.5,115.5 290.5,115.5 295.5,115.5C 295.603,118.219 295.269,120.885 294.5,123.5C 294.804,125.441 295.637,127.107 297,128.5C 300.428,125.41 300.928,122.077 298.5,118.5C 298.608,117.558 298.941,116.725 299.5,116C 303.833,115.333 308.167,115.333 312.5,116C 313.916,117.915 313.582,119.415 311.5,120.5C 311.5,119.5 311.5,118.5 311.5,117.5C 307.445,117.176 303.445,117.509 299.5,118.5C 300.84,119.688 301.507,121.188 301.5,123C 297.794,134.202 294.794,133.702 292.5,121.5C 294.582,120.415 294.916,118.915 293.5,117C 288.845,116.501 284.179,116.334 279.5,116.5C 279.5,114.167 279.5,111.833 279.5,109.5C 281.943,107.465 284.61,105.798 287.5,104.5 Z"/></g>
<g><path style="opacity:1" fill="#c2232a" d="M 264.5,106.5 C 267.555,107.036 270.555,107.869 273.5,109C 273.998,110.158 274.831,110.991 276,111.5C 277.077,110.571 278.244,109.904 279.5,109.5C 279.5,111.833 279.5,114.167 279.5,116.5C 284.179,116.334 288.845,116.501 293.5,117C 294.916,118.915 294.582,120.415 292.5,121.5C 292.5,120.167 292.5,118.833 292.5,117.5C 287.238,117.195 282.072,117.529 277,118.5C 276.506,116.866 276.34,115.199 276.5,113.5C 274.833,113.5 273.167,113.5 271.5,113.5C 271.577,112.25 272.244,111.417 273.5,111C 270.197,109.941 267.197,108.441 264.5,106.5 Z"/></g>
<g><path style="opacity:1" fill="#454139" d="M 296.5,110.5 C 300.167,111.833 303.833,111.833 307.5,110.5C 303.801,113.065 300.135,113.065 296.5,110.5 Z"/></g>
<g><path style="opacity:1" fill="#524751" d="M 219.5,105.5 C 217.576,107.09 217.243,108.924 218.5,111C 223.489,111.499 228.489,111.666 233.5,111.5C 228.35,112.651 223.016,112.817 217.5,112C 216.424,110.274 216.257,108.441 217,106.5C 217.671,105.748 218.504,105.414 219.5,105.5 Z"/></g>
<g><path style="opacity:1" fill="#70161b" d="M 219.5,105.5 C 219.833,105.5 220.167,105.5 220.5,105.5C 220.461,106.583 220.127,107.583 219.5,108.5C 224.137,109.43 228.804,110.097 233.5,110.5C 233.5,109.5 233.5,108.5 233.5,107.5C 234.404,108.209 234.737,109.209 234.5,110.5C 234.5,111.167 234.167,111.5 233.5,111.5C 228.489,111.666 223.489,111.499 218.5,111C 217.243,108.924 217.576,107.09 219.5,105.5 Z"/></g>
<g><path style="opacity:1" fill="#98282d" d="M 323.5,106.5 C 324.434,107.568 324.768,108.901 324.5,110.5C 320.119,110.372 315.785,110.705 311.5,111.5C 311.5,110.5 311.5,109.5 311.5,108.5C 315.4,109.43 319.4,109.763 323.5,109.5C 323.5,108.5 323.5,107.5 323.5,106.5 Z"/></g>
<g><path style="opacity:1" fill="#871d23" d="M 293.5,106.5 C 295.196,106.685 296.529,107.519 297.5,109C 301.152,109.499 304.818,109.665 308.5,109.5C 308.5,109.833 308.5,110.167 308.5,110.5C 308.167,110.5 307.833,110.5 307.5,110.5C 303.833,111.833 300.167,111.833 296.5,110.5C 295.5,109.167 294.5,107.833 293.5,106.5 Z"/></g>
<g><path style="opacity:1" fill="#432522" d="M 264.5,106.5 C 267.197,108.441 270.197,109.941 273.5,111C 272.244,111.417 271.577,112.25 271.5,113.5C 268.755,114.737 266.422,116.57 264.5,119C 261.49,121.169 258.156,121.836 254.5,121C 252.386,118.72 250.053,116.887 247.5,115.5C 251.134,117.016 254.801,118.182 258.5,119C 255.445,116.924 254.445,114.258 255.5,111C 251.977,112.082 248.31,112.415 244.5,112C 241.743,111.062 239.41,109.562 237.5,107.5C 238.167,107.5 238.833,107.5 239.5,107.5C 243.32,110.323 247.653,111.156 252.5,110C 255.312,108.023 257.978,105.856 260.5,103.5C 261.852,104.524 263.185,105.524 264.5,106.5 Z"/></g>
<g><path style="opacity:1" fill="#e32227" d="M 260.5,108.5 C 264.976,108.822 266.476,111.156 265,115.5C 261.167,118.498 258.334,117.665 256.5,113C 258.018,111.649 259.351,110.149 260.5,108.5 Z"/></g>
<g><path style="opacity:1" fill="#c9cbce" d="M 266.5,109.5 C 268.935,110.13 269.602,111.463 268.5,113.5C 267.295,112.423 266.628,111.09 266.5,109.5 Z"/></g>
<g><path style="opacity:1" fill="#342929" d="M 293.5,106.5 C 294.5,107.833 295.5,109.167 296.5,110.5C 293.606,109.118 291.106,107.118 289,104.5C 288.617,105.056 288.117,105.389 287.5,105.5C 287.5,105.167 287.5,104.833 287.5,104.5C 287.369,103.624 287.702,102.957 288.5,102.5C 290.186,103.857 291.852,105.19 293.5,106.5 Z"/></g>
<g><path style="opacity:1" fill="#e61f26" d="M 239.5,72.5 C 239.539,71.4168 239.873,70.4168 240.5,69.5C 237.5,68.1667 234.5,68.1667 231.5,69.5C 232.949,70.1719 234.282,70.8386 235.5,71.5C 234.209,71.2627 233.209,71.596 232.5,72.5C 231.5,72.5 230.5,72.5 229.5,72.5C 229.5,75.1667 229.5,77.8333 229.5,80.5C 232.777,80.2161 235.943,80.5495 239,81.5C 246.822,77.117 253.989,78.117 260.5,84.5C 262.359,82.8076 264.359,81.3076 266.5,80C 271.823,79.5006 277.156,79.334 282.5,79.5C 283.833,81.5 285.5,83.1667 287.5,84.5C 287.281,85.675 287.614,86.675 288.5,87.5C 293.856,79.5597 301.189,77.2264 310.5,80.5C 311.466,78.604 311.799,76.604 311.5,74.5C 308.068,74.7521 307.068,73.4188 308.5,70.5C 311.942,68.6085 315.609,67.6085 319.5,67.5C 319.333,79.8378 319.5,92.1712 320,104.5C 321.113,105.305 322.279,105.972 323.5,106.5C 323.5,107.5 323.5,108.5 323.5,109.5C 319.4,109.763 315.4,109.43 311.5,108.5C 310.209,108.263 309.209,108.596 308.5,109.5C 304.818,109.665 301.152,109.499 297.5,109C 296.529,107.519 295.196,106.685 293.5,106.5C 291.852,105.19 290.186,103.857 288.5,102.5C 287.702,102.957 287.369,103.624 287.5,104.5C 284.61,105.798 281.943,107.465 279.5,109.5C 278.244,109.904 277.077,110.571 276,111.5C 274.831,110.991 273.998,110.158 273.5,109C 270.555,107.869 267.555,107.036 264.5,106.5C 263.185,105.524 261.852,104.524 260.5,103.5C 257.978,105.856 255.312,108.023 252.5,110C 247.653,111.156 243.32,110.323 239.5,107.5C 233.465,101.347 231.798,94.0141 234.5,85.5C 232.833,85.5 231.167,85.5 229.5,85.5C 229.334,91.8421 229.5,98.1754 230,104.5C 231.145,105.636 232.312,106.636 233.5,107.5C 233.5,108.5 233.5,109.5 233.5,110.5C 228.804,110.097 224.137,109.43 219.5,108.5C 220.127,107.583 220.461,106.583 220.5,105.5C 221.491,98.6866 221.825,91.6866 221.5,84.5C 217.665,83.9965 217.665,82.9965 221.5,81.5C 222.174,79.8045 222.841,78.1379 223.5,76.5C 224.485,72.6702 226.819,69.8369 230.5,68C 233.485,67.1324 236.485,66.7991 239.5,67C 242.066,68.879 242.066,70.7123 239.5,72.5 Z"/></g>
<g><path style="opacity:1" fill="#90252b" d="M 221.5,76.5 C 222.167,76.5 222.833,76.5 223.5,76.5C 222.841,78.1379 222.174,79.8045 221.5,81.5C 217.665,82.9965 217.665,83.9965 221.5,84.5C 221.825,91.6866 221.491,98.6866 220.5,105.5C 220.5,98.8333 220.5,92.1667 220.5,85.5C 219.5,85.5 218.5,85.5 217.5,85.5C 216.923,82.4503 218.09,80.4503 221,79.5C 221.483,78.552 221.649,77.552 221.5,76.5 Z"/></g>
<g><path style="opacity:1" fill="#3e2b28" d="M 244.5,101.5 C 242.954,99.1175 242.287,96.4509 242.5,93.5C 243.43,96.6359 245.097,99.4692 247.5,102C 249.5,102.667 251.5,102.667 253.5,102C 255.248,95.5786 253.581,90.2453 248.5,86C 243.079,84.7201 241.079,86.8868 242.5,92.5C 241.532,90.3926 241.198,88.0593 241.5,85.5C 247.329,82.705 251.829,84.3717 255,90.5C 255.499,94.8206 255.666,99.1539 255.5,103.5C 251.279,105.388 247.612,104.721 244.5,101.5 Z"/></g>
<g><path style="opacity:1" fill="#4a1c18" d="M 274.5,84.5 C 276.624,85.0312 278.124,86.3645 279,88.5C 281.736,93.3759 282.07,98.3759 280,103.5C 277.791,105.706 275.291,106.04 272.5,104.5C 268.103,100.379 266.103,95.2124 266.5,89C 267.093,83.7407 269.76,82.2407 274.5,84.5 Z"/></g>
<g><path style="opacity:1" fill="#f7f8f9" d="M 242.5,93.5 C 242.5,93.1667 242.5,92.8333 242.5,92.5C 241.079,86.8868 243.079,84.7201 248.5,86C 253.581,90.2453 255.248,95.5786 253.5,102C 251.5,102.667 249.5,102.667 247.5,102C 245.097,99.4692 243.43,96.6359 242.5,93.5 Z"/></g>
<g><path style="opacity:1" fill="#270f10" d="M 221.5,76.5 C 221.649,77.552 221.483,78.552 221,79.5C 218.09,80.4503 216.923,82.4503 217.5,85.5C 218.5,85.5 219.5,85.5 220.5,85.5C 220.5,92.1667 220.5,98.8333 220.5,105.5C 220.167,105.5 219.833,105.5 219.5,105.5C 219.5,99.1667 219.5,92.8333 219.5,86.5C 218.5,86.5 217.5,86.5 216.5,86.5C 216.338,84.4727 216.505,82.4727 217,80.5C 219.019,79.6426 220.519,78.3092 221.5,76.5 Z"/></g>
<g><path style="opacity:1" fill="#422828" d="M 308.5,110.5 C 308.5,110.167 308.5,109.833 308.5,109.5C 309.209,108.596 310.209,108.263 311.5,108.5C 311.5,109.5 311.5,110.5 311.5,111.5C 315.785,110.705 320.119,110.372 324.5,110.5C 324.768,108.901 324.434,107.568 323.5,106.5C 322.279,105.972 321.113,105.305 320,104.5C 319.5,92.1712 319.333,79.8378 319.5,67.5C 315.609,67.6085 311.942,68.6085 308.5,70.5C 307.068,73.4188 308.068,74.7521 311.5,74.5C 311.799,76.604 311.466,78.604 310.5,80.5C 301.189,77.2264 293.856,79.5597 288.5,87.5C 287.614,86.675 287.281,85.675 287.5,84.5C 290.603,82.5767 293.603,80.41 296.5,78C 300.806,76.7781 305.139,76.2781 309.5,76.5C 306.567,74.8408 305.9,72.5075 307.5,69.5C 311.318,67.3906 315.318,66.2239 319.5,66C 320,66.5 320.5,67 321,67.5C 321.5,79.8288 321.667,92.1622 321.5,104.5C 325.487,104.652 326.987,106.652 326,110.5C 325.25,111.126 324.416,111.626 323.5,112C 318.215,113.045 313.215,112.545 308.5,110.5 Z"/></g>
<g><path style="opacity:1" fill="#922126" d="M 241.5,85.5 C 241.198,88.0593 241.532,90.3926 242.5,92.5C 242.5,92.8333 242.5,93.1667 242.5,93.5C 242.287,96.4509 242.954,99.1175 244.5,101.5C 243.542,101.047 242.708,100.381 242,99.5C 240.086,95.6856 239.419,91.6856 240,87.5C 240.278,86.5842 240.778,85.9175 241.5,85.5 Z"/></g>
<g><path style="opacity:1" fill="#432520" d="M 308.5,102.5 C 305.248,104.147 302.414,103.48 300,100.5C 298.031,96.9249 296.864,93.0916 296.5,89C 296.927,83.9107 299.594,82.244 304.5,84C 309.712,88.6397 311.545,94.473 310,101.5C 309.617,102.056 309.117,102.389 308.5,102.5 Z"/></g>
<g><path style="opacity:1" fill="#f2f5f6" d="M 308.5,102.5 C 306.801,102.66 305.134,102.494 303.5,102C 298.707,97.516 297.374,92.1827 299.5,86C 302.636,84.9595 305.136,85.7928 307,88.5C 309.578,92.961 310.078,97.6276 308.5,102.5 Z"/></g>
<g><path style="opacity:1" fill="#391415" d="M 239.5,107.5 C 238.833,107.5 238.167,107.5 237.5,107.5C 235.863,105.684 234.363,103.684 233,101.5C 232.829,96.4671 232.329,91.4671 231.5,86.5C 230.337,92.1375 230.17,97.8041 231,103.5C 234.882,104.798 236.049,107.131 234.5,110.5C 234.737,109.209 234.404,108.209 233.5,107.5C 232.312,106.636 231.145,105.636 230,104.5C 229.5,98.1754 229.334,91.8421 229.5,85.5C 231.167,85.5 232.833,85.5 234.5,85.5C 231.798,94.0141 233.465,101.347 239.5,107.5 Z"/></g>
<g><path style="opacity:1" fill="#eff2f1" d="M 274.5,84.5 C 279.208,89.7754 280.708,95.7754 279,102.5C 275.794,104.124 273.128,103.458 271,100.5C 268.483,95.6848 267.983,90.6848 269.5,85.5C 271.045,84.5481 272.712,84.2148 274.5,84.5 Z"/></g>
<g><path style="opacity:1" fill="#352c2a" d="M 282.5,79.5 C 285.167,80.1667 286.833,81.8333 287.5,84.5C 285.5,83.1667 283.833,81.5 282.5,79.5 Z"/></g>
<g><path style="opacity:1" fill="#472423" d="M 282.5,79.5 C 277.156,79.334 271.823,79.5006 266.5,80C 264.359,81.3076 262.359,82.8076 260.5,84.5C 253.989,78.117 246.822,77.117 239,81.5C 235.943,80.5495 232.777,80.2161 229.5,80.5C 229.5,77.8333 229.5,75.1667 229.5,72.5C 230.5,72.5 231.5,72.5 232.5,72.5C 233.209,71.596 234.209,71.2627 235.5,71.5C 236.161,72.7175 236.828,74.0508 237.5,75.5C 238.919,74.9953 239.585,73.9953 239.5,72.5C 242.066,70.7123 242.066,68.879 239.5,67C 236.485,66.7991 233.485,67.1324 230.5,68C 226.819,69.8369 224.485,72.6702 223.5,76.5C 222.833,76.5 222.167,76.5 221.5,76.5C 224.993,68.0828 231.326,64.2494 240.5,65C 241.99,65.7455 242.99,66.9121 243.5,68.5C 241.919,72.3025 240.419,75.9692 239,79.5C 246.945,74.9722 254.111,75.9722 260.5,82.5C 267.192,75.9143 274.526,74.9143 282.5,79.5 Z"/></g>
<g><path style="opacity:1" fill="#dce6e6" d="M 232.5,72.5 C 234.12,73.8409 235.12,75.6742 235.5,78C 233.866,78.4935 232.199,78.6602 230.5,78.5C 230.253,76.1417 230.919,74.1417 232.5,72.5 Z"/></g>
<g><path style="opacity:1" fill="#f21a25" d="M 239.5,72.5 C 239.585,73.9953 238.919,74.9953 237.5,75.5C 236.828,74.0508 236.161,72.7175 235.5,71.5C 234.282,70.8386 232.949,70.1719 231.5,69.5C 234.5,68.1667 237.5,68.1667 240.5,69.5C 239.873,70.4168 239.539,71.4168 239.5,72.5 Z"/></g>
<g><path style="opacity:1" fill="#ba5a69" d="M 291.5,63.5 C 293.713,63.848 295.713,64.6813 297.5,66C 294.797,66.6052 292.797,65.7719 291.5,63.5 Z"/></g>
<g><path style="opacity:1" fill="#41201e" d="M 303.5,132.5 C 301.02,138.802 298.52,145.135 296,151.5C 292.601,156.963 287.768,159.13 281.5,158C 280.584,157.722 279.918,157.222 279.5,156.5C 283.042,156.813 286.375,156.479 289.5,155.5C 291.55,153.763 293.383,151.763 295,149.5C 297.248,143.453 300.081,137.787 303.5,132.5 Z"/></g>
<g><path style="opacity:1" fill="#841419" d="M 269.5,121.5 C 270.269,128.687 270.936,136.021 271.5,143.5C 269.537,136.576 268.87,129.243 269.5,121.5 Z"/></g>
<g><path style="opacity:1" fill="#4a201d" d="M 291.5,143.5 C 288.113,136.894 284.613,130.227 281,123.5C 280.171,128.864 280.337,134.198 281.5,139.5C 284.071,138.2 285.738,139.033 286.5,142C 286.293,143.95 285.293,145.116 283.5,145.5C 283.5,144.833 283.5,144.167 283.5,143.5C 284.043,143.44 284.376,143.107 284.5,142.5C 282.659,141.77 280.825,141.103 279,140.5C 278.5,134.175 278.334,127.842 278.5,121.5C 281.642,121.799 283.809,123.466 285,126.5C 286.408,130.807 288.408,134.807 291,138.5C 291.494,140.134 291.66,141.801 291.5,143.5 Z"/></g>
<g><path style="opacity:1" fill="#e4ecec" d="M 291.5,143.5 C 291.044,146.286 289.377,147.619 286.5,147.5C 284.97,147.36 283.97,146.693 283.5,145.5C 285.293,145.116 286.293,143.95 286.5,142C 285.738,139.033 284.071,138.2 281.5,139.5C 280.337,134.198 280.171,128.864 281,123.5C 284.613,130.227 288.113,136.894 291.5,143.5 Z"/></g>
<g><path style="opacity:1" fill="#3d1e1e" d="M 247.5,115.5 C 240.026,114.261 234.526,116.928 231,123.5C 226.965,137.64 232.131,145.64 246.5,147.5C 238.881,149.609 233.381,146.943 230,139.5C 226.571,130.322 228.404,122.489 235.5,116C 239.592,114.368 243.592,114.202 247.5,115.5 Z"/></g>
<g><path style="opacity:1" fill="#993413" d="M 345.5,200.5 C 345.5,198.5 345.5,196.5 345.5,194.5C 344.041,194.433 342.708,194.766 341.5,195.5C 341.5,194.5 341.5,193.5 341.5,192.5C 347.592,192.902 348.925,195.568 345.5,200.5 Z"/></g>
<g><path style="opacity:1" fill="#ddc944" d="M 345.5,200.5 C 343.946,201.914 342.612,203.581 341.5,205.5C 342.776,206.645 344.109,206.645 345.5,205.5C 346.521,206.002 346.688,206.668 346,207.5C 344.51,208.728 343.01,208.728 341.5,207.5C 341.167,207.5 340.833,207.5 340.5,207.5C 338.956,203.316 339.29,199.316 341.5,195.5C 342.708,194.766 344.041,194.433 345.5,194.5C 345.5,196.5 345.5,198.5 345.5,200.5 Z"/></g>
<g><path style="opacity:1" fill="#843515" d="M 341.5,195.5 C 339.29,199.316 338.956,203.316 340.5,207.5C 339.85,207.196 339.183,206.863 338.5,206.5C 337.833,208.167 337.167,209.833 336.5,211.5C 335.893,211.376 335.56,211.043 335.5,210.5C 337.135,206.012 337.469,201.346 336.5,196.5C 333.724,198.13 330.724,198.797 327.5,198.5C 327.414,202.857 327.08,207.19 326.5,211.5C 325.778,210.449 324.778,209.782 323.5,209.5C 325.191,206.355 325.691,203.021 325,199.5C 323.172,198.248 321.339,198.248 319.5,199.5C 325.012,198.107 330.679,196.44 336.5,194.5C 338.135,195.046 339.801,195.38 341.5,195.5 Z"/></g>
<g><path style="opacity:1" fill="#e9d83e" d="M 335.5,210.5 C 335.5,210.167 335.5,209.833 335.5,209.5C 335.69,197.753 334.69,197.753 332.5,209.5C 332.167,209.5 331.833,209.5 331.5,209.5C 330.797,200.578 329.797,200.911 328.5,210.5C 328.158,211.338 327.492,211.672 326.5,211.5C 327.08,207.19 327.414,202.857 327.5,198.5C 330.724,198.797 333.724,198.13 336.5,196.5C 337.469,201.346 337.135,206.012 335.5,210.5 Z"/></g>
<g><path style="opacity:1" fill="#e4cd3a" d="M 312.5,198.5 C 307.828,205.536 308.495,206.536 314.5,201.5C 315.655,205.088 315.322,208.588 313.5,212C 315.098,213.726 314.765,214.559 312.5,214.5C 312.672,213.508 312.338,212.842 311.5,212.5C 311.762,211.022 311.429,209.689 310.5,208.5C 309.066,211.047 307.4,213.381 305.5,215.5C 305.167,214.667 304.833,213.833 304.5,213C 305.582,209.172 306.582,205.339 307.5,201.5C 309.266,198.812 310.933,195.979 312.5,193C 313.483,192.409 314.15,192.743 314.5,194C 313.586,195.406 312.92,196.906 312.5,198.5 Z"/></g>
<g><path style="opacity:1" fill="#942a14" d="M 345.5,200.5 C 347.212,202.896 347.712,205.562 347,208.5C 344.661,210.078 342.828,209.745 341.5,207.5C 343.01,208.728 344.51,208.728 346,207.5C 346.688,206.668 346.521,206.002 345.5,205.5C 344.109,206.645 342.776,206.645 341.5,205.5C 342.612,203.581 343.946,201.914 345.5,200.5 Z"/></g>
<g><path style="opacity:1" fill="#763812" d="M 312.5,198.5 C 314.32,200.872 316.653,201.539 319.5,200.5C 317.514,204.283 316.681,208.283 317,212.5C 317.667,213.167 318.333,213.833 319,214.5C 320.736,212.937 322.236,211.27 323.5,209.5C 323.607,211.903 322.607,213.736 320.5,215C 317.689,214.659 315.023,214.492 312.5,214.5C 314.765,214.559 315.098,213.726 313.5,212C 315.322,208.588 315.655,205.088 314.5,201.5C 308.495,206.536 307.828,205.536 312.5,198.5 Z"/></g>
<g><path style="opacity:1" fill="#e3cf42" d="M 323.5,209.5 C 322.236,211.27 320.736,212.937 319,214.5C 318.333,213.833 317.667,213.167 317,212.5C 316.681,208.283 317.514,204.283 319.5,200.5C 319.5,200.167 319.5,199.833 319.5,199.5C 321.339,198.248 323.172,198.248 325,199.5C 325.691,203.021 325.191,206.355 323.5,209.5 Z"/></g>
<g><path style="opacity:1" fill="#5d4316" d="M 322.5,200.5 C 323.219,204.483 322.052,208.15 319,211.5C 319.045,207.529 320.212,203.862 322.5,200.5 Z"/></g>
<g><path style="opacity:1" fill="#a38251" d="M 335.5,209.5 C 334.5,209.5 333.5,209.5 332.5,209.5C 334.69,197.753 335.69,197.753 335.5,209.5 Z"/></g>
<g><path style="opacity:1" fill="#795c1c" d="M 331.5,209.5 C 330.391,209.557 329.391,209.89 328.5,210.5C 329.797,200.911 330.797,200.578 331.5,209.5 Z"/></g>
<g><path style="opacity:1" fill="#e6d336" d="M 287.5,209.5 C 286.886,213.135 286.552,216.802 286.5,220.5C 284.784,220.629 283.117,220.962 281.5,221.5C 280.094,221.027 279.427,220.027 279.5,218.5C 279.575,215.794 279.908,213.127 280.5,210.5C 281.911,209.092 283.577,208.092 285.5,207.5C 286.713,207.747 287.38,208.414 287.5,209.5 Z"/></g>
<g><path style="opacity:1" fill="#b82d1f" d="M 276.5,207.5 C 275.624,207.369 274.957,207.702 274.5,208.5C 275.776,211.303 275.776,213.97 274.5,216.5C 272.805,217.826 271.472,217.493 270.5,215.5C 272.095,213.626 271.761,212.793 269.5,213C 268.303,215.015 266.97,216.849 265.5,218.5C 265.421,217.07 265.754,215.736 266.5,214.5C 265.132,213.406 263.965,213.74 263,215.5C 260.858,219.49 259.025,223.49 257.5,227.5C 258.105,221.954 260.105,216.954 263.5,212.5C 263.167,212.167 262.833,211.833 262.5,211.5C 261.482,212.193 260.482,212.859 259.5,213.5C 256.833,214.833 254.167,214.833 251.5,213.5C 254.064,212.021 256.73,211.521 259.5,212C 260.56,210.702 261.726,209.535 263,208.5C 268.159,212.988 271.325,211.988 272.5,205.5C 274.38,205.229 275.713,205.896 276.5,207.5 Z"/></g>
<g><path style="opacity:1" fill="#853110" d="M 276.5,207.5 C 277.833,208.5 279.167,209.5 280.5,210.5C 279.908,213.127 279.575,215.794 279.5,218.5C 278,220.222 276.333,221.888 274.5,223.5C 277.498,218.507 278.165,213.174 276.5,207.5 Z"/></g>
<g><path style="opacity:1" fill="#623512" d="M 283.5,211.5 C 284.647,214.289 284.147,216.956 282,219.5C 281.282,216.593 281.782,213.926 283.5,211.5 Z"/></g>
<g><path style="opacity:1" fill="#833413" d="M 251.5,213.5 C 254.167,214.833 256.833,214.833 259.5,213.5C 259.5,215.5 258.5,216.5 256.5,216.5C 255.833,216.167 255.167,215.833 254.5,215.5C 252.527,218.914 250.693,222.581 249,226.5C 248.253,223.147 248.753,219.98 250.5,217C 250.026,215.392 249.359,215.226 248.5,216.5C 246.719,220.626 246.052,224.959 246.5,229.5C 247.5,229.5 248.5,229.5 249.5,229.5C 248.432,230.434 247.099,230.768 245.5,230.5C 245.719,229.325 245.386,228.325 244.5,227.5C 243.416,228.665 242.583,229.998 242,231.5C 241.329,232.252 240.496,232.586 239.5,232.5C 243.527,227.769 244.86,222.435 243.5,216.5C 244.496,216.414 245.329,216.748 246,217.5C 246.374,216.584 246.874,215.75 247.5,215C 249.058,214.79 250.391,214.29 251.5,213.5 Z"/></g>
<g><path style="opacity:1" fill="#6e6002" d="M 254.5,215.5 C 255.167,215.833 255.833,216.167 256.5,216.5C 256.802,219.059 256.468,221.393 255.5,223.5C 255.768,221.901 255.434,220.568 254.5,219.5C 254.5,218.167 254.5,216.833 254.5,215.5 Z"/></g>
<g><path style="opacity:1" fill="#ac2b21" d="M 307.5,201.5 C 306.582,205.339 305.582,209.172 304.5,213C 304.833,213.833 305.167,214.667 305.5,215.5C 307.4,213.381 309.066,211.047 310.5,208.5C 311.429,209.689 311.762,211.022 311.5,212.5C 308.733,213.638 308.066,215.472 309.5,218C 307.512,218.18 305.512,218.014 303.5,217.5C 303.429,212.4 304.096,207.4 305.5,202.5C 306.183,202.137 306.85,201.804 307.5,201.5 Z"/></g>
<g><path style="opacity:1" fill="#e0cd3f" d="M 299.5,207.5 C 295.587,215.432 292.42,223.765 290,232.5C 288.736,234.607 286.903,235.607 284.5,235.5C 283.054,233.218 282.721,230.885 283.5,228.5C 284.429,229.689 284.762,231.022 284.5,232.5C 285.822,232.67 286.989,232.337 288,231.5C 289.269,227.859 290.436,224.192 291.5,220.5C 290.23,219.712 289.23,218.712 288.5,217.5C 288.401,214.763 288.735,212.096 289.5,209.5C 290.1,208.1 291.1,207.1 292.5,206.5C 292.353,209.443 291.687,212.276 290.5,215C 290.833,215.5 291.167,216 291.5,216.5C 293.622,213.917 294.955,210.917 295.5,207.5C 297.145,203.789 298.478,203.789 299.5,207.5 Z"/></g>
<g><path style="opacity:1" fill="#803a16" d="M 292.5,206.5 C 293.609,206.557 294.609,206.89 295.5,207.5C 294.955,210.917 293.622,213.917 291.5,216.5C 291.167,216 290.833,215.5 290.5,215C 291.687,212.276 292.353,209.443 292.5,206.5 Z"/></g>
<g><path style="opacity:1" fill="#704216" d="M 287.5,209.5 C 288.167,209.5 288.833,209.5 289.5,209.5C 288.735,212.096 288.401,214.763 288.5,217.5C 287.662,217.842 287.328,218.508 287.5,219.5C 287.5,220.5 287.5,221.5 287.5,222.5C 285.738,222.357 284.071,222.691 282.5,223.5C 281.702,223.043 281.369,222.376 281.5,221.5C 283.117,220.962 284.784,220.629 286.5,220.5C 286.552,216.802 286.886,213.135 287.5,209.5 Z"/></g>
<g><path style="opacity:1" fill="#daca42" d="M 276.5,207.5 C 278.165,213.174 277.498,218.507 274.5,223.5C 271.786,223.75 269.119,223.917 266.5,224C 265.594,222.301 265.261,220.467 265.5,218.5C 266.97,216.849 268.303,215.015 269.5,213C 271.761,212.793 272.095,213.626 270.5,215.5C 268,217.189 267.167,219.522 268,222.5C 268.941,220.939 270.108,219.605 271.5,218.5C 273.574,220.828 274.574,220.161 274.5,216.5C 275.776,213.97 275.776,211.303 274.5,208.5C 274.957,207.702 275.624,207.369 276.5,207.5 Z"/></g>
<g><path style="opacity:1" fill="#663c1c" d="M 270.5,215.5 C 271.472,217.493 272.805,217.826 274.5,216.5C 274.574,220.161 273.574,220.828 271.5,218.5C 270.108,219.605 268.941,220.939 268,222.5C 267.167,219.522 268,217.189 270.5,215.5 Z"/></g>
<g><path style="opacity:1" fill="#853614" d="M 239.5,216.5 C 238.239,220.388 236.906,224.221 235.5,228C 235.773,229.533 236.106,231.033 236.5,232.5C 235.21,231.942 234.377,230.942 234,229.5C 233.8,231.32 232.966,232.653 231.5,233.5C 232.374,230.081 233.54,226.748 235,223.5C 235.667,221.833 235.667,220.167 235,218.5C 233.022,222.288 231.189,226.121 229.5,230C 228.668,230.688 228.002,230.521 227.5,229.5C 229.286,226.596 229.619,223.596 228.5,220.5C 227.482,222.594 226.482,224.594 225.5,226.5C 225.5,224.167 225.5,221.833 225.5,219.5C 227.821,219.229 229.821,219.896 231.5,221.5C 232.262,220.372 232.929,219.205 233.5,218C 235.586,217.685 237.586,217.185 239.5,216.5 Z"/></g>
<g><path style="opacity:1" fill="#e4d440" d="M 257.5,227.5 C 255.824,226.817 255.157,225.483 255.5,223.5C 256.468,221.393 256.802,219.059 256.5,216.5C 258.5,216.5 259.5,215.5 259.5,213.5C 260.482,212.859 261.482,212.193 262.5,211.5C 262.833,211.833 263.167,212.167 263.5,212.5C 260.105,216.954 258.105,221.954 257.5,227.5 Z"/></g>
<g><path style="opacity:1" fill="#dacb40" d="M 239.5,216.5 C 240.833,216.5 242.167,216.5 243.5,216.5C 244.86,222.435 243.527,227.769 239.5,232.5C 238.5,232.5 237.5,232.5 236.5,232.5C 236.106,231.033 235.773,229.533 235.5,228C 236.906,224.221 238.239,220.388 239.5,216.5 Z"/></g>
<g><path style="opacity:1" fill="#5c3d17" d="M 241.5,218.5 C 242.299,222.005 241.465,225.339 239,228.5C 238.696,224.908 239.529,221.574 241.5,218.5 Z"/></g>
<g><path style="opacity:1" fill="#e6d142" d="M 254.5,215.5 C 254.5,216.833 254.5,218.167 254.5,219.5C 253.735,222.096 253.401,224.763 253.5,227.5C 251.62,227.229 250.287,227.896 249.5,229.5C 248.5,229.5 247.5,229.5 246.5,229.5C 246.052,224.959 246.719,220.626 248.5,216.5C 249.359,215.226 250.026,215.392 250.5,217C 248.753,219.98 248.253,223.147 249,226.5C 250.693,222.581 252.527,218.914 254.5,215.5 Z"/></g>
<g><path style="opacity:1" fill="#81291e" d="M 254.5,219.5 C 255.434,220.568 255.768,221.901 255.5,223.5C 255.157,225.483 255.824,226.817 257.5,227.5C 256.828,228.267 255.995,228.934 255,229.5C 253.293,228.862 251.46,228.862 249.5,229.5C 250.287,227.896 251.62,227.229 253.5,227.5C 253.401,224.763 253.735,222.096 254.5,219.5 Z"/></g>
<g><path style="opacity:1" fill="#983317" d="M 288.5,217.5 C 289.23,218.712 290.23,219.712 291.5,220.5C 290.436,224.192 289.269,227.859 288,231.5C 286.989,232.337 285.822,232.67 284.5,232.5C 284.762,231.022 284.429,229.689 283.5,228.5C 282.721,230.885 283.054,233.218 284.5,235.5C 283.504,235.586 282.671,235.252 282,234.5C 281.503,232.19 281.337,229.857 281.5,227.5C 284.238,226.965 286.072,227.965 287,230.5C 288.485,226.72 288.652,223.054 287.5,219.5C 287.328,218.508 287.662,217.842 288.5,217.5 Z"/></g>
<g><path style="opacity:1" fill="#a92d1c" d="M 299.5,207.5 C 297.777,214.822 295.777,222.155 293.5,229.5C 292.102,231.797 290.436,233.963 288.5,236C 286.934,236.765 285.601,236.598 284.5,235.5C 286.903,235.607 288.736,234.607 290,232.5C 292.42,223.765 295.587,215.432 299.5,207.5 Z"/></g>
<g><path style="opacity:1" fill="#e7d23c" d="M 231.5,233.5 C 230.232,235.905 229.565,238.572 229.5,241.5C 228.217,243.868 226.55,246.035 224.5,248C 223.072,248.579 221.738,248.412 220.5,247.5C 219.85,245.565 219.517,243.565 219.5,241.5C 221.176,242.183 221.843,243.517 221.5,245.5C 222.822,245.67 223.989,245.337 225,244.5C 226.452,241.263 227.619,237.93 228.5,234.5C 226.014,232.422 225.014,229.755 225.5,226.5C 226.482,224.594 227.482,222.594 228.5,220.5C 229.619,223.596 229.286,226.596 227.5,229.5C 228.002,230.521 228.668,230.688 229.5,230C 231.189,226.121 233.022,222.288 235,218.5C 235.667,220.167 235.667,221.833 235,223.5C 233.54,226.748 232.374,230.081 231.5,233.5 Z"/></g>
<g><path style="opacity:1" fill="#dfce47" d="M 209.5,221.5 C 209.335,228.678 206.669,234.678 201.5,239.5C 192.556,242.719 189.056,239.719 191,230.5C 193.999,223.472 199.166,219.638 206.5,219C 207.373,220.045 208.373,220.878 209.5,221.5 Z"/></g>
<g><path style="opacity:1" fill="#973010" d="M 195.5,228.5 C 191.532,236.693 193.532,239.026 201.5,235.5C 194.822,241.89 191.989,240.557 193,231.5C 193.377,230.058 194.21,229.058 195.5,228.5 Z"/></g>
<g><path style="opacity:1" fill="#ad2d1c" d="M 201.5,235.5 C 202.374,230.817 204.04,226.484 206.5,222.5C 202.419,223.338 198.752,225.005 195.5,227.5C 198.177,222.913 202.01,220.913 207,221.5C 207.611,227.173 205.778,231.84 201.5,235.5 Z"/></g>
<g><path style="opacity:1" fill="#e91d26" d="M 201.5,235.5 C 193.532,239.026 191.532,236.693 195.5,228.5C 195.5,228.167 195.5,227.833 195.5,227.5C 198.752,225.005 202.419,223.338 206.5,222.5C 204.04,226.484 202.374,230.817 201.5,235.5 Z"/></g>
<g><path style="opacity:1" fill="#e1c73d" d="M 214.5,223.5 C 214.833,223.5 215.167,223.5 215.5,223.5C 216.5,223.5 217.5,223.5 218.5,223.5C 217.409,226.944 216.409,230.444 215.5,234C 215.785,235.89 216.785,237.223 218.5,238C 217.552,238.483 216.552,238.649 215.5,238.5C 214.833,238.167 214.167,237.833 213.5,237.5C 214.034,229.94 212.867,229.606 210,236.5C 209.329,237.252 208.496,237.586 207.5,237.5C 207.5,237.167 207.5,236.833 207.5,236.5C 208.756,233.233 209.923,229.899 211,226.5C 212.518,225.837 213.685,224.837 214.5,223.5 Z"/></g>
<g><path style="opacity:1" fill="#b52e24" d="M 225.5,226.5 C 225.014,229.755 226.014,232.422 228.5,234.5C 227.619,237.93 226.452,241.263 225,244.5C 223.989,245.337 222.822,245.67 221.5,245.5C 221.843,243.517 221.176,242.183 219.5,241.5C 218.552,240.022 217.219,239.022 215.5,238.5C 216.552,238.649 217.552,238.483 218.5,238C 216.785,237.223 215.785,235.89 215.5,234C 216.409,230.444 217.409,226.944 218.5,223.5C 217.5,223.5 216.5,223.5 215.5,223.5C 215.47,222.503 215.97,221.836 217,221.5C 219.112,222.386 221.278,222.386 223.5,221.5C 223.338,223.527 223.505,225.527 224,227.5C 224.383,226.944 224.883,226.611 225.5,226.5 Z"/></g>
<g><path style="opacity:1" fill="#ef1c1f" d="M 220.5,223.5 C 222.057,227.26 224.057,230.927 226.5,234.5C 225.119,236.635 224.119,238.968 223.5,241.5C 221.815,239.983 220.315,238.316 219,236.5C 218.984,232.129 219.484,227.795 220.5,223.5 Z"/></g>
<g><path style="opacity:1" fill="#83301c" d="M 213.5,237.5 C 212.883,237.389 212.383,237.056 212,236.5C 211.221,237.728 210.221,238.728 209,239.5C 207.97,239.164 207.47,238.497 207.5,237.5C 208.496,237.586 209.329,237.252 210,236.5C 212.867,229.606 214.034,229.94 213.5,237.5 Z"/></g>
<g><path style="opacity:1" fill="#723312" d="M 209.5,221.5 C 210.779,222.968 212.446,223.635 214.5,223.5C 213.685,224.837 212.518,225.837 211,226.5C 209.923,229.899 208.756,233.233 207.5,236.5C 205.5,237.5 203.5,238.5 201.5,239.5C 206.669,234.678 209.335,228.678 209.5,221.5 Z"/></g>
<g><path style="opacity:1" fill="#8a2810" d="M 229.5,241.5 C 229.325,245.837 227.158,248.504 223,249.5C 221.624,249.316 220.791,248.649 220.5,247.5C 221.738,248.412 223.072,248.579 224.5,248C 226.55,246.035 228.217,243.868 229.5,241.5 Z"/></g>
</svg>
