<?xml version="1.0" encoding="UTF-8"?>
<!DOCTYPE svg PUBLIC "-//W3C//DTD SVG 1.1//EN" "http://www.w3.org/Graphics/SVG/1.1/DTD/svg11.dtd">
<svg xmlns="http://www.w3.org/2000/svg" version="1.1" width="375px" height="214px" style="shape-rendering:geometricPrecision; text-rendering:geometricPrecision; image-rendering:optimizeQuality; fill-rule:evenodd; clip-rule:evenodd" xmlns:xlink="http://www.w3.org/1999/xlink">
<g><path style="opacity:1" fill="#001739" d="M -0.5,-0.5 C 124.5,-0.5 249.5,-0.5 374.5,-0.5C 374.5,2.16667 374.5,4.83333 374.5,7.5C 249.5,7.5 124.5,7.5 -0.5,7.5C -0.5,4.83333 -0.5,2.16667 -0.5,-0.5 Z"/></g>
<g><path style="opacity:1" fill="#001739" d="M -0.5,7.5 C 124.5,7.5 249.5,7.5 374.5,7.5C 374.5,10.1667 374.5,12.8333 374.5,15.5C 249.5,15.5 124.5,15.5 -0.5,15.5C -0.5,12.8333 -0.5,10.1667 -0.5,7.5 Z"/></g>
<g><path style="opacity:1" fill="#001739" d="M -0.5,15.5 C 124.5,15.5 249.5,15.5 374.5,15.5C 374.5,18.1667 374.5,20.8333 374.5,23.5C 249.5,23.5 124.5,23.5 -0.5,23.5C -0.5,20.8333 -0.5,18.1667 -0.5,15.5 Z"/></g>
<g><path style="opacity:1" fill="#001739" d="M -0.5,23.5 C 124.5,23.5 249.5,23.5 374.5,23.5C 374.5,26.1667 374.5,28.8333 374.5,31.5C 249.5,31.5 124.5,31.5 -0.5,31.5C -0.5,28.8333 -0.5,26.1667 -0.5,23.5 Z"/></g>
<g><path style="opacity:1" fill="#001739" d="M -0.5,31.5 C 124.5,31.5 249.5,31.5 374.5,31.5C 374.5,36.5 374.5,41.5 374.5,46.5C 249.5,46.5 124.5,46.5 -0.5,46.5C -0.5,41.5 -0.5,36.5 -0.5,31.5 Z"/></g>
<g><path style="opacity:1" fill="#001739" d="M -0.5,46.5 C 124.5,46.5 249.5,46.5 374.5,46.5C 374.5,57.5 374.5,68.5 374.5,79.5C 356.167,79.5 337.833,79.5 319.5,79.5C 319.5,80.5 319.5,81.5 319.5,82.5C 317.654,82.7778 316.32,82.1112 315.5,80.5C 261.668,79.1687 208.002,79.1687 154.5,80.5C 153.833,80.8333 153.167,81.1667 152.5,81.5C 152.423,80.2502 151.756,79.4169 150.5,79C 152.017,76.2394 151.184,74.4061 148,73.5C 147.493,72.0039 147.993,70.8373 149.5,70C 152.817,69.5017 156.15,69.335 159.5,69.5C 159.5,68.1667 159.5,66.8333 159.5,65.5C 154.055,63.7929 148.389,63.1262 142.5,63.5C 141.908,60.0309 140.408,57.0309 138,54.5C 136.612,56.1052 135.112,57.6052 133.5,59C 134.38,60.3561 134.714,61.8561 134.5,63.5C 127.711,62.899 121.211,63.5657 115,65.5C 109.639,62.8948 104.306,62.8948 99,65.5C 97.9914,67.0249 97.4914,68.6916 97.5,70.5C 97.5,71.5 97.5,72.5 97.5,73.5C 96.0221,72.5525 95.0221,71.2191 94.5,69.5C 95.069,65.6707 94.4023,62.3373 92.5,59.5C 92.4588,57.2547 91.6255,56.5881 90,57.5C 89.4978,60.5131 88.9978,63.5131 88.5,66.5C 87.5,66.5 86.5,66.5 85.5,66.5C 85.5,64.5 85.5,62.5 85.5,60.5C 83.0274,60.0882 81.6941,61.0882 81.5,63.5C 80.1667,63.5 79.5,62.8333 79.5,61.5C 79.5,60.8333 79.5,60.1667 79.5,59.5C 79.5,58.5 79.5,57.5 79.5,56.5C 77.857,56.5198 76.5237,55.8532 75.5,54.5C 74.1667,55.1667 72.8333,55.8333 71.5,56.5C 70.3753,59.4544 69.3753,62.4544 68.5,65.5C 65.7784,63.9374 62.7784,63.2708 59.5,63.5C 56.1904,63.2687 53.1904,63.9353 50.5,65.5C 47.4648,64.2665 44.4648,64.2665 41.5,65.5C 41.631,64.7611 41.4643,64.0944 41,63.5C 38.6957,65.1331 37.1957,67.2997 36.5,70C 37.7217,73.5603 40.0551,76.227 43.5,78C 39.6372,79.3537 35.6372,79.8537 31.5,79.5C 31.2011,81.604 31.5344,83.604 32.5,85.5C 37.5552,85.7345 42.5552,86.7345 47.5,88.5C 43.2536,89.4648 39.087,89.7981 35,89.5C 23.419,87.5335 11.5857,86.8669 -0.5,87.5C -0.5,73.8333 -0.5,60.1667 -0.5,46.5 Z"/></g>
<g><path style="opacity:1" fill="#101d2d" d="M 152.5,81.5 C 147.604,81.4367 145.271,78.9367 145.5,74C 145.542,72.0326 146.042,70.1992 147,68.5C 149.473,67.8803 151.973,67.2136 154.5,66.5C 146.912,63.144 142.579,65.8106 141.5,74.5C 141.846,75.8492 142.179,77.1825 142.5,78.5C 141.133,81.268 140.133,84.268 139.5,87.5C 136.179,88.3303 132.846,88.997 129.5,89.5C 132.204,87.1402 132.704,84.4735 131,81.5C 127.344,80.0306 123.511,79.0306 119.5,78.5C 122.368,77.0581 125.368,75.7248 128.5,74.5C 129.374,72.2534 129.708,69.9201 129.5,67.5C 130.675,67.719 131.675,67.3857 132.5,66.5C 129.541,65.6487 126.541,64.9821 123.5,64.5C 116.618,65.9244 114.952,69.5911 118.5,75.5C 117.509,76.6652 116.509,77.8319 115.5,79C 115.82,80.6532 116.82,81.6532 118.5,82C 114.986,84.5315 114.653,87.3648 117.5,90.5C 115.396,90.7989 113.396,90.4656 111.5,89.5C 110.232,87.953 108.565,86.953 106.5,86.5C 102.627,86.6017 98.7938,86.6017 95,86.5C 93.955,85.6266 93.1217,84.6266 92.5,83.5C 93.4916,83.6716 94.1583,83.3382 94.5,82.5C 94.5,78.1667 94.5,73.8333 94.5,69.5C 95.0221,71.2191 96.0221,72.5525 97.5,73.5C 98.411,83.8955 103.244,86.2289 112,80.5C 113.923,76.1384 113.923,71.8051 112,67.5C 106.09,63.0488 101.257,64.0488 97.5,70.5C 97.4914,68.6916 97.9914,67.0249 99,65.5C 104.306,62.8948 109.639,62.8948 115,65.5C 121.211,63.5657 127.711,62.899 134.5,63.5C 134.714,61.8561 134.38,60.3561 133.5,59C 135.112,57.6052 136.612,56.1052 138,54.5C 140.408,57.0309 141.908,60.0309 142.5,63.5C 148.389,63.1262 154.055,63.7929 159.5,65.5C 159.5,66.8333 159.5,68.1667 159.5,69.5C 156.15,69.335 152.817,69.5017 149.5,70C 147.993,70.8373 147.493,72.0039 148,73.5C 151.184,74.4061 152.017,76.2394 150.5,79C 151.756,79.4169 152.423,80.2502 152.5,81.5 Z"/></g>
<g><path style="opacity:1" fill="#d0e1ec" d="M 136.5,59.5 C 138.852,60.5426 139.019,61.8759 137,63.5C 135.232,62.3181 135.065,60.9848 136.5,59.5 Z"/></g>
<g><path style="opacity:1" fill="#cddae3" d="M 152.5,81.5 C 153.167,81.1667 153.833,80.8333 154.5,80.5C 154.5,81.1667 154.5,81.8333 154.5,82.5C 149.243,84.5259 145.243,83.1926 142.5,78.5C 142.179,77.1825 141.846,75.8492 141.5,74.5C 142.579,65.8106 146.912,63.144 154.5,66.5C 151.973,67.2136 149.473,67.8803 147,68.5C 146.042,70.1992 145.542,72.0326 145.5,74C 145.271,78.9367 147.604,81.4367 152.5,81.5 Z"/></g>
<g><path style="opacity:1" fill="#4f5f69" d="M 90.5,61.5 C 91.4912,68.3134 91.8245,75.3134 91.5,82.5C 92.5,82.5 93.5,82.5 94.5,82.5C 94.1583,83.3382 93.4916,83.6716 92.5,83.5C 91.8333,83.5 91.1667,83.5 90.5,83.5C 90.5,76.1667 90.5,68.8333 90.5,61.5 Z"/></g>
<g><path style="opacity:1" fill="#d8e3e9" d="M 129.5,89.5 C 125.566,90.3597 121.566,90.693 117.5,90.5C 114.653,87.3648 114.986,84.5315 118.5,82C 116.82,81.6532 115.82,80.6532 115.5,79C 116.509,77.8319 117.509,76.6652 118.5,75.5C 114.952,69.5911 116.618,65.9244 123.5,64.5C 126.541,64.9821 129.541,65.6487 132.5,66.5C 131.675,67.3857 130.675,67.719 129.5,67.5C 129.708,69.9201 129.374,72.2534 128.5,74.5C 125.368,75.7248 122.368,77.0581 119.5,78.5C 123.511,79.0306 127.344,80.0306 131,81.5C 132.704,84.4735 132.204,87.1402 129.5,89.5 Z"/></g>
<g><path style="opacity:1" fill="#17232c" d="M 121.5,66.5 C 122.93,66.4208 124.264,66.7542 125.5,67.5C 127.89,73.608 126.056,75.608 120,73.5C 119.391,70.9348 119.891,68.6015 121.5,66.5 Z"/></g>
<g><path style="opacity:1" fill="#e2edf2" d="M 92.5,59.5 C 94.4023,62.3373 95.069,65.6707 94.5,69.5C 94.5,73.8333 94.5,78.1667 94.5,82.5C 93.5,82.5 92.5,82.5 91.5,82.5C 91.8245,75.3134 91.4912,68.3134 90.5,61.5C 91.1667,60.8333 91.8333,60.1667 92.5,59.5 Z"/></g>
<g><path style="opacity:1" fill="#e1eff0" d="M 135.5,65.5 C 136.5,65.5 137.5,65.5 138.5,65.5C 138.5,71.1667 138.5,76.8333 138.5,82.5C 137.5,82.5 136.5,82.5 135.5,82.5C 135.5,76.8333 135.5,71.1667 135.5,65.5 Z"/></g>
<g><path style="opacity:1" fill="#d3dfe3" d="M 97.5,73.5 C 97.5,72.5 97.5,71.5 97.5,70.5C 101.257,64.0488 106.09,63.0488 112,67.5C 113.923,71.8051 113.923,76.1384 112,80.5C 103.244,86.2289 98.411,83.8955 97.5,73.5 Z"/></g>
<g><path style="opacity:1" fill="#16202c" d="M 104.5,66.5 C 108.671,67.0024 110.671,69.3357 110.5,73.5C 111.018,77.6867 109.351,80.3533 105.5,81.5C 102.063,80.5259 100.73,78.1925 101.5,74.5C 101.073,71.1743 102.073,68.5076 104.5,66.5 Z"/></g>
<g><path style="opacity:1" fill="#0d1642" d="M 105.5,69.5 C 106.79,70.0577 107.623,71.0577 108,72.5C 108.497,74.8098 108.663,77.1432 108.5,79.5C 106.833,79.5 105.167,79.5 103.5,79.5C 103.06,75.8215 103.727,72.4882 105.5,69.5 Z"/></g>
<g><path style="opacity:1" fill="#00173a" d="M 374.5,79.5 C 374.5,84.5 374.5,89.5 374.5,94.5C 356.164,94.3334 337.83,94.5001 319.5,95C 318.484,95.5194 317.818,96.3527 317.5,97.5C 319.049,99.9017 319.716,102.568 319.5,105.5C 317.302,104.933 314.969,104.933 312.5,105.5C 313.076,109.122 312.076,112.122 309.5,114.5C 308.348,111.894 308.182,109.227 309,106.5C 310.11,104.963 311.61,104.297 313.5,104.5C 313.5,103.167 313.5,101.833 313.5,100.5C 309.624,98.7094 305.624,97.0427 301.5,95.5C 299.417,96.9587 297.25,98.2921 295,99.5C 292.402,97.3867 289.569,96.8867 286.5,98C 285.332,96.5944 285.665,95.4277 287.5,94.5C 283.558,93.5071 279.558,92.8404 275.5,92.5C 273.667,92.5854 272.334,93.2521 271.5,94.5C 260.833,94.5 250.167,94.5 239.5,94.5C 239.5,92.5 239.5,90.5 239.5,88.5C 234.167,88.5 228.833,88.5 223.5,88.5C 223.5,90.5 223.5,92.5 223.5,94.5C 202.167,94.5 180.833,94.5 159.5,94.5C 159.5,92.1667 159.5,89.8333 159.5,87.5C 197.851,87.1847 236.184,87.518 274.5,88.5C 276.577,88.3078 278.577,87.8078 280.5,87C 240.168,86.5 199.835,86.3333 159.5,86.5C 159.496,84.1579 158.663,82.1579 157,80.5C 155.956,81.6226 155.29,82.9559 155,84.5C 154.536,83.9056 154.369,83.2389 154.5,82.5C 154.5,81.8333 154.5,81.1667 154.5,80.5C 208.002,79.1687 261.668,79.1687 315.5,80.5C 316.32,82.1112 317.654,82.7778 319.5,82.5C 319.5,81.5 319.5,80.5 319.5,79.5C 337.833,79.5 356.167,79.5 374.5,79.5 Z"/></g>
<g><path style="opacity:1" fill="#0f1b2e" d="M 79.5,59.5 C 74.3094,59.0048 71.8094,61.3381 72,66.5C 69.233,67.646 69.0663,68.646 71.5,69.5C 71.5,74.1667 71.5,78.8333 71.5,83.5C 73.099,83.7678 74.4324,83.4345 75.5,82.5C 75.5,80.8333 75.5,79.1667 75.5,77.5C 75.5,74.8333 75.5,72.1667 75.5,69.5C 76.5,69.5 77.5,69.5 78.5,69.5C 78.5,68.5 78.5,67.5 78.5,66.5C 77.5,66.5 76.5,66.5 75.5,66.5C 75.1826,63.4535 76.5159,61.7868 79.5,61.5C 79.5,62.8333 80.1667,63.5 81.5,63.5C 80.8333,65.5 80.1667,67.5 79.5,69.5C 80.5,69.5 81.5,69.5 82.5,69.5C 82.3345,73.5138 82.5012,77.5138 83,81.5C 84.4007,83.1922 86.2341,83.8588 88.5,83.5C 88.5,82.5 88.5,81.5 88.5,80.5C 87.5,80.5 86.5,80.5 85.5,80.5C 85.0025,76.2408 85.6692,72.2408 87.5,68.5C 86.7573,67.8182 86.0906,67.1515 85.5,66.5C 86.5,66.5 87.5,66.5 88.5,66.5C 88.9978,63.5131 89.4978,60.5131 90,57.5C 91.6255,56.5881 92.4588,57.2547 92.5,59.5C 91.8333,60.1667 91.1667,60.8333 90.5,61.5C 90.5,68.8333 90.5,76.1667 90.5,83.5C 89.4797,84.9538 88.313,85.2871 87,84.5C 87.0773,85.7376 86.9106,86.7376 86.5,87.5C 83.7355,85.4703 81.0689,83.4703 78.5,81.5C 77.2153,83.0622 75.7153,84.3955 74,85.5C 72.5272,85.0969 71.1939,84.4303 70,83.5C 69.4806,84.5156 68.6473,85.1822 67.5,85.5C 62.2634,85.9394 57.2634,87.1061 52.5,89C 50.6131,89.7796 48.9464,89.6129 47.5,88.5C 42.5552,86.7345 37.5552,85.7345 32.5,85.5C 31.5344,83.604 31.2011,81.604 31.5,79.5C 35.6372,79.8537 39.6372,79.3537 43.5,78C 40.0551,76.227 37.7217,73.5603 36.5,70C 37.1957,67.2997 38.6957,65.1331 41,63.5C 41.4643,64.0944 41.631,64.7611 41.5,65.5C 40.8783,66.6266 40.045,67.6266 39,68.5C 38.3333,69.8333 38.3333,71.1667 39,72.5C 41.9586,74.3895 44.7919,76.3895 47.5,78.5C 46.7303,80.2718 45.3969,81.2718 43.5,81.5C 41.8653,80.9537 40.1986,80.6204 38.5,80.5C 38.5,81.5 38.5,82.5 38.5,83.5C 41.5184,83.6646 44.5184,83.498 47.5,83C 50.2028,81.1799 51.0361,78.6799 50,75.5C 46.7247,74.1135 43.8914,72.1135 41.5,69.5C 43.6425,66.1698 46.1425,65.8365 49,68.5C 49.5133,67.4734 50.0133,66.4734 50.5,65.5C 53.1904,63.9353 56.1904,63.2687 59.5,63.5C 62.7784,63.2708 65.7784,63.9374 68.5,65.5C 69.3753,62.4544 70.3753,59.4544 71.5,56.5C 72.8333,55.8333 74.1667,55.1667 75.5,54.5C 76.5237,55.8532 77.857,56.5198 79.5,56.5C 79.5,57.5 79.5,58.5 79.5,59.5 Z"/></g>
<g><path style="opacity:1" fill="#d1dae1" d="M 57.5,64.5 C 65.9613,64.7967 69.4613,69.13 68,77.5C 66.2683,82.6165 62.7683,84.4499 57.5,83C 52.8451,80.1034 51.3451,75.9367 53,70.5C 53.5985,67.7458 55.0985,65.7458 57.5,64.5 Z"/></g>
<g><path style="opacity:1" fill="#505a65" d="M 71.5,69.5 C 72.4849,73.6344 72.8182,77.9677 72.5,82.5C 73.5,82.5 74.5,82.5 75.5,82.5C 74.4324,83.4345 73.099,83.7678 71.5,83.5C 71.5,78.8333 71.5,74.1667 71.5,69.5 Z"/></g>
<g><path style="opacity:1" fill="#838c92" d="M 75.5,66.5 C 76.5,66.5 77.5,66.5 78.5,66.5C 78.5,67.5 78.5,68.5 78.5,69.5C 77.5,69.5 76.5,69.5 75.5,69.5C 75.5,72.1667 75.5,74.8333 75.5,77.5C 74.5233,74.7131 74.19,71.7131 74.5,68.5C 77.925,68.6332 78.2583,67.9665 75.5,66.5 Z"/></g>
<g><path style="opacity:1" fill="#111a2e" d="M 57.5,67.5 C 60.0444,67.1043 62.2111,67.771 64,69.5C 64.6667,72.8333 64.6667,76.1667 64,79.5C 60.3691,82.5102 57.7024,81.8435 56,77.5C 55.1529,73.9277 55.6529,70.5943 57.5,67.5 Z"/></g>
<g><path style="opacity:1" fill="#d7dfe7" d="M 50.5,65.5 C 50.0133,66.4734 49.5133,67.4734 49,68.5C 46.1425,65.8365 43.6425,66.1698 41.5,69.5C 43.8914,72.1135 46.7247,74.1135 50,75.5C 51.0361,78.6799 50.2028,81.1799 47.5,83C 44.5184,83.498 41.5184,83.6646 38.5,83.5C 38.5,82.5 38.5,81.5 38.5,80.5C 40.1986,80.6204 41.8653,80.9537 43.5,81.5C 45.3969,81.2718 46.7303,80.2718 47.5,78.5C 44.7919,76.3895 41.9586,74.3895 39,72.5C 38.3333,71.1667 38.3333,69.8333 39,68.5C 40.045,67.6266 40.8783,66.6266 41.5,65.5C 44.4648,64.2665 47.4648,64.2665 50.5,65.5 Z"/></g>
<g><path style="opacity:1" fill="#cdd8dc" d="M 85.5,66.5 C 86.0906,67.1515 86.7573,67.8182 87.5,68.5C 85.6692,72.2408 85.0025,76.2408 85.5,80.5C 86.5,80.5 87.5,80.5 88.5,80.5C 88.5,81.5 88.5,82.5 88.5,83.5C 86.2341,83.8588 84.4007,83.1922 83,81.5C 82.5012,77.5138 82.3345,73.5138 82.5,69.5C 81.5,69.5 80.5,69.5 79.5,69.5C 80.1667,67.5 80.8333,65.5 81.5,63.5C 81.6941,61.0882 83.0274,60.0882 85.5,60.5C 85.5,62.5 85.5,64.5 85.5,66.5 Z"/></g>
<g><path style="opacity:1" fill="#e1e6ed" d="M 79.5,59.5 C 79.5,60.1667 79.5,60.8333 79.5,61.5C 76.5159,61.7868 75.1826,63.4535 75.5,66.5C 78.2583,67.9665 77.925,68.6332 74.5,68.5C 74.19,71.7131 74.5233,74.7131 75.5,77.5C 75.5,79.1667 75.5,80.8333 75.5,82.5C 74.5,82.5 73.5,82.5 72.5,82.5C 72.8182,77.9677 72.4849,73.6344 71.5,69.5C 69.0663,68.646 69.233,67.646 72,66.5C 71.8094,61.3381 74.3094,59.0048 79.5,59.5 Z"/></g>
<g><path style="opacity:1" fill="#031838" d="M 142.5,78.5 C 145.243,83.1926 149.243,84.5259 154.5,82.5C 154.369,83.2389 154.536,83.9056 155,84.5C 155.29,82.9559 155.956,81.6226 157,80.5C 158.663,82.1579 159.496,84.1579 159.5,86.5C 199.835,86.3333 240.168,86.5 280.5,87C 278.577,87.8078 276.577,88.3078 274.5,88.5C 236.184,87.518 197.851,87.1847 159.5,87.5C 159.5,89.8333 159.5,92.1667 159.5,94.5C 180.833,94.5 202.167,94.5 223.5,94.5C 223.5,92.5 223.5,90.5 223.5,88.5C 228.833,88.5 234.167,88.5 239.5,88.5C 239.5,90.5 239.5,92.5 239.5,94.5C 250.167,94.5 260.833,94.5 271.5,94.5C 271.369,95.2389 271.536,95.9056 272,96.5C 274.466,95.2234 276.966,95.2234 279.5,96.5C 274.66,97.7554 269.827,97.7554 265,96.5C 263.189,97.0779 261.355,97.5779 259.5,98C 260.056,98.3826 260.389,98.8826 260.5,99.5C 260.167,99.5 259.833,99.5 259.5,99.5C 258.106,110.304 257.273,121.304 257,132.5C 256.667,132.833 256.333,133.167 256,133.5C 255.505,131.527 255.338,129.527 255.5,127.5C 250.078,127.582 246.911,124.915 246,119.5C 246.535,114.622 246.868,109.956 247,105.5C 246.311,106.357 245.478,107.023 244.5,107.5C 242.929,106.691 241.262,106.357 239.5,106.5C 239.789,102.894 239.456,99.3936 238.5,96C 233.5,95.3333 228.5,95.3333 223.5,96C 224.022,96.5613 224.355,97.228 224.5,98C 223.815,100.795 223.315,103.628 223,106.5C 220.821,107.116 218.988,108.283 217.5,110C 218.574,110.739 219.241,111.739 219.5,113C 218.282,118.268 216.116,123.101 213,127.5C 211.301,126.594 209.467,126.261 207.5,126.5C 207.123,123.475 206.956,120.475 207,117.5C 207.249,118.624 207.749,119.624 208.5,120.5C 210.086,118.827 210.753,116.827 210.5,114.5C 209.5,114.5 208.5,114.5 207.5,114.5C 208.103,109.381 207.436,104.715 205.5,100.5C 205.5,99.8333 205.167,99.5 204.5,99.5C 203.167,99.5 201.833,99.5 200.5,99.5C 199.006,98.6014 197.506,98.9347 196,100.5C 194.359,104.086 192.859,107.753 191.5,111.5C 190.448,111.351 189.448,111.517 188.5,112C 184.862,120.833 181.862,120.666 179.5,111.5C 178.167,111.5 176.833,111.5 175.5,111.5C 175.02,108.995 174.02,106.662 172.5,104.5C 173.167,103.167 173.833,101.833 174.5,100.5C 172.355,98.0265 169.689,96.3599 166.5,95.5C 164.285,95.9164 162.951,97.2497 162.5,99.5C 162.167,99.5 161.833,99.5 161.5,99.5C 159.631,101.635 158.964,104.302 159.5,107.5C 156.442,107.374 156.109,105.874 158.5,103C 157.015,99.3353 154.349,97.502 150.5,97.5C 151.167,99.5 151.833,101.5 152.5,103.5C 151.5,103.5 150.5,103.5 149.5,103.5C 148.766,102.292 148.433,100.959 148.5,99.5C 145.05,100.244 143.384,98.9103 143.5,95.5C 144.675,95.719 145.675,95.3857 146.5,94.5C 144.337,92.2802 141.837,91.9469 139,93.5C 138.383,94.4491 138.549,95.2825 139.5,96C 135.376,97.0557 131.71,96.2224 128.5,93.5C 127.534,95.396 127.201,97.396 127.5,99.5C 125.574,100.486 123.574,101.486 121.5,102.5C 119.61,102.297 118.11,102.963 117,104.5C 115.92,106.996 114.586,109.33 113,111.5C 112.211,113.712 112.378,115.712 113.5,117.5C 113.5,118.167 113.5,118.833 113.5,119.5C 113.5,119.833 113.5,120.167 113.5,120.5C 112.744,122.267 112.077,124.1 111.5,126C 113.328,129.159 114.995,132.326 116.5,135.5C 114.879,135.213 113.879,134.213 113.5,132.5C 107.144,131.796 100.81,131.13 94.5,130.5C 93.5398,119.062 93.5398,107.729 94.5,96.5C 93.7065,96.9312 92.8732,97.2645 92,97.5C 89.7175,96.1889 87.5508,95.5222 85.5,95.5C 83.7123,97.5765 82.0456,99.7432 80.5,102C 81.3333,102.833 82.1667,103.667 83,104.5C 83.6667,114.833 83.6667,125.167 83,135.5C 82.0853,136.328 81.4186,137.328 81,138.5C 80.0857,136.336 78.919,134.336 77.5,132.5C 77.8333,131.833 78.1667,131.167 78.5,130.5C 77.7382,126.889 77.2382,123.222 77,119.5C 72.1312,113.619 68.6312,114.286 66.5,121.5C 67.5207,122.901 68.5207,124.235 69.5,125.5C 69.7683,128.119 69.435,130.619 68.5,133C 57.8619,137.323 50.0285,134.49 45,124.5C 43.3817,115.236 46.8817,108.736 55.5,105C 61.7303,103.855 67.2303,105.355 72,109.5C 72.7083,108.619 73.5416,107.953 74.5,107.5C 79.0359,104.943 80.7026,100.943 79.5,95.5C 69.8736,96.6271 60.2069,97.4604 50.5,98C 48.1367,98.5885 47.1367,100.089 47.5,102.5C 43.2811,105.92 40.2811,110.254 38.5,115.5C 37.2794,114.972 36.1127,114.305 35,113.5C 34.5012,117.486 34.3345,121.486 34.5,125.5C 33.5,125.5 32.5,125.5 31.5,125.5C 31.1364,120.516 31.8031,115.683 33.5,111C 33.2945,109.135 32.6278,107.468 31.5,106C 32.9958,104.669 34.3291,103.169 35.5,101.5C 34.7542,100.264 34.4208,98.9305 34.5,97.5C 31.0017,97.4347 30.5017,96.1014 33,93.5C 33.3333,94.1667 33.6667,94.8333 34,95.5C 35.5122,94.7433 36.8455,93.7433 38,92.5C 38.3879,93.428 39.0546,94.0946 40,94.5C 44.0211,93.0589 47.6878,93.7256 51,96.5C 55.1206,95.8612 59.2873,95.1945 63.5,94.5C 61.0339,93.8765 58.7006,93.0432 56.5,92C 59.4311,90.0899 62.4311,90.0899 65.5,92C 64.3044,92.6543 64.3044,93.1543 65.5,93.5C 68.4665,92.4947 71.6332,92.1614 75,92.5C 78.9157,95.1233 80.4157,93.7899 79.5,88.5C 79.3626,86.1166 79.0293,83.7832 78.5,81.5C 81.0689,83.4703 83.7355,85.4703 86.5,87.5C 86.9106,86.7376 87.0773,85.7376 87,84.5C 88.313,85.2871 89.4797,84.9538 90.5,83.5C 91.1667,83.5 91.8333,83.5 92.5,83.5C 93.1217,84.6266 93.955,85.6266 95,86.5C 98.7938,86.6017 102.627,86.6017 106.5,86.5C 108.565,86.953 110.232,87.953 111.5,89.5C 113.396,90.4656 115.396,90.7989 117.5,90.5C 121.566,90.693 125.566,90.3597 129.5,89.5C 132.846,88.997 136.179,88.3303 139.5,87.5C 140.133,84.268 141.133,81.268 142.5,78.5 Z"/></g>
<g><path style="opacity:1" fill="#172032" d="M 120.5,82.5 C 122.857,82.3367 125.19,82.5034 127.5,83C 130.129,85.7892 129.462,87.7892 125.5,89C 119.185,89.8814 117.518,87.7148 120.5,82.5 Z"/></g>
<g><path style="opacity:1" fill="#111c1c" d="M 149.5,103.5 C 150.919,104.451 152.585,104.784 154.5,104.5C 154.739,108.842 155.073,113.176 155.5,117.5C 155.167,117.5 154.833,117.5 154.5,117.5C 154.237,110.816 151.237,105.649 145.5,102C 142.978,100.659 140.311,99.8257 137.5,99.5C 134.332,98.5565 130.999,98.5565 127.5,99.5C 127.201,97.396 127.534,95.396 128.5,93.5C 131.71,96.2224 135.376,97.0557 139.5,96C 138.549,95.2825 138.383,94.4491 139,93.5C 141.837,91.9469 144.337,92.2802 146.5,94.5C 145.675,95.3857 144.675,95.719 143.5,95.5C 143.384,98.9103 145.05,100.244 148.5,99.5C 148.433,100.959 148.766,102.292 149.5,103.5 Z"/></g>
<g><path style="opacity:1" fill="#0a1933" d="M 319.5,105.5 C 321.379,105.607 321.712,105.107 320.5,104C 321.833,102 323.167,100 324.5,98C 327.315,96.4178 329.815,96.5845 332,98.5C 332.605,96.5188 333.605,96.1854 335,97.5C 335.498,100.482 335.665,103.482 335.5,106.5C 332.886,106.277 331.219,107.444 330.5,110C 331.167,110.333 331.833,110.667 332.5,111C 330.19,111.497 327.857,111.663 325.5,111.5C 325.149,113.869 324.982,116.203 325,118.5C 325.333,118.167 325.667,117.833 326,117.5C 327.732,119.939 329.565,122.273 331.5,124.5C 332.689,125.429 334.022,125.762 335.5,125.5C 335.683,127.936 335.016,130.103 333.5,132C 335.25,133.754 335.917,135.921 335.5,138.5C 329.684,131.845 324.017,125.012 318.5,118C 323.82,112.012 329.154,106.012 334.5,100C 332.167,99.3333 329.833,99.3333 327.5,100C 320.991,106.342 314.658,112.842 308.5,119.5C 307.833,112.833 307.167,106.167 306.5,99.5C 304.5,99.5 302.5,99.5 300.5,99.5C 300.5,112.833 300.5,126.167 300.5,139.5C 302.607,140.468 304.941,140.802 307.5,140.5C 307.5,136.833 307.5,133.167 307.5,129.5C 309.461,127.037 311.628,124.703 314,122.5C 319.021,128.02 323.854,133.686 328.5,139.5C 330.743,140.474 333.076,140.808 335.5,140.5C 335.5,141.5 335.5,142.5 335.5,143.5C 334.167,143.5 332.833,143.5 331.5,143.5C 330.063,142.275 328.396,141.275 326.5,140.5C 325.353,137.013 323.019,135.013 319.5,134.5C 319.5,133.5 319.5,132.5 319.5,131.5C 317.325,131.318 315.325,130.651 313.5,129.5C 312.558,129.608 311.725,129.941 311,130.5C 310.853,135.057 310.019,139.391 308.5,143.5C 304.818,143.665 301.152,143.499 297.5,143C 296.663,141.989 296.33,140.822 296.5,139.5C 295.448,139.351 294.448,139.517 293.5,140C 294.696,140.654 294.696,141.154 293.5,141.5C 292.893,141.376 292.56,141.043 292.5,140.5C 292.672,139.508 292.338,138.842 291.5,138.5C 288.966,134.608 286.3,130.775 283.5,127C 291.632,121.664 293.632,114.497 289.5,105.5C 286.896,102.364 283.562,100.531 279.5,100C 273.175,99.5005 266.842,99.3338 260.5,99.5C 260.389,98.8826 260.056,98.3826 259.5,98C 261.355,97.5779 263.189,97.0779 265,96.5C 269.827,97.7554 274.66,97.7554 279.5,96.5C 276.966,95.2234 274.466,95.2234 272,96.5C 271.536,95.9056 271.369,95.2389 271.5,94.5C 272.334,93.2521 273.667,92.5854 275.5,92.5C 279.558,92.8404 283.558,93.5071 287.5,94.5C 285.665,95.4277 285.332,96.5944 286.5,98C 289.569,96.8867 292.402,97.3867 295,99.5C 297.25,98.2921 299.417,96.9587 301.5,95.5C 305.624,97.0427 309.624,98.7094 313.5,100.5C 313.5,101.833 313.5,103.167 313.5,104.5C 311.61,104.297 310.11,104.963 309,106.5C 308.182,109.227 308.348,111.894 309.5,114.5C 312.076,112.122 313.076,109.122 312.5,105.5C 314.969,104.933 317.302,104.933 319.5,105.5 Z"/></g>
<g><path style="opacity:1" fill="#001739" d="M 78.5,81.5 C 79.0293,83.7832 79.3626,86.1166 79.5,88.5C 80.4157,93.7899 78.9157,95.1233 75,92.5C 71.6332,92.1614 68.4665,92.4947 65.5,93.5C 64.3044,93.1543 64.3044,92.6543 65.5,92C 62.4311,90.0899 59.4311,90.0899 56.5,92C 58.7006,93.0432 61.0339,93.8765 63.5,94.5C 59.2873,95.1945 55.1206,95.8612 51,96.5C 47.6878,93.7256 44.0211,93.0589 40,94.5C 39.0546,94.0946 38.3879,93.428 38,92.5C 36.8455,93.7433 35.5122,94.7433 34,95.5C 33.6667,94.8333 33.3333,94.1667 33,93.5C 30.5017,96.1014 31.0017,97.4347 34.5,97.5C 34.4208,98.9305 34.7542,100.264 35.5,101.5C 34.3291,103.169 32.9958,104.669 31.5,106C 32.6278,107.468 33.2945,109.135 33.5,111C 31.8031,115.683 31.1364,120.516 31.5,125.5C 32.5,125.5 33.5,125.5 34.5,125.5C 34.3345,121.486 34.5012,117.486 35,113.5C 36.1127,114.305 37.2794,114.972 38.5,115.5C 38.5,118.167 38.5,120.833 38.5,123.5C 38.7733,125.451 38.1066,126.951 36.5,128C 37.3366,129.011 37.67,130.178 37.5,131.5C 40.4106,132.41 42.4106,134.41 43.5,137.5C 52.9515,142.366 62.9515,144.032 73.5,142.5C 76.276,142.819 78.776,143.819 81,145.5C 88.498,143.474 96.1647,142.14 104,141.5C 107.086,141.522 110.086,141.855 113,142.5C 114.101,140.606 115.434,139.939 117,140.5C 118.039,139.756 118.539,138.756 118.5,137.5C 119.404,138.209 119.737,139.209 119.5,140.5C 124.29,140.864 128.957,141.864 133.5,143.5C 135.03,143.36 136.03,142.693 136.5,141.5C 139.839,141.11 143.173,140.61 146.5,140C 148.141,138.871 149.141,137.371 149.5,135.5C 150.441,133.95 151.107,132.284 151.5,130.5C 151.833,130.5 152.167,130.5 152.5,130.5C 154.027,139.261 156.194,139.595 159,131.5C 159.497,134.146 159.664,136.813 159.5,139.5C 157.418,139.472 155.584,140.139 154,141.5C 152.455,141.634 150.788,141.3 149,140.5C 146.501,141.842 146.335,143.008 148.5,144C 147.109,145.02 145.609,145.853 144,146.5C 143.517,145.552 143.351,144.552 143.5,143.5C 141.5,143.5 139.5,143.5 137.5,143.5C 137.488,147.446 139.488,149.113 143.5,148.5C 143.238,149.978 143.571,151.311 144.5,152.5C 147.524,154.535 150.524,156.535 153.5,158.5C 155.974,158.465 156.14,157.798 154,156.5C 152.756,151.155 154.59,147.322 159.5,145C 159.095,144.055 158.428,143.388 157.5,143C 157.833,142.667 158.167,142.333 158.5,142C 162.302,143.142 166.302,143.642 170.5,143.5C 170.509,138.175 170.509,132.842 170.5,127.5C 171.931,127.977 173.264,128.643 174.5,129.5C 175.18,131.889 176.014,134.222 177,136.5C 178.47,135.733 179.97,135.067 181.5,134.5C 182.568,135.434 183.901,135.768 185.5,135.5C 185.461,136.756 185.961,137.756 187,138.5C 188.299,138.034 189.799,138.034 191.5,138.5C 190.715,134.36 191.881,131.027 195,128.5C 195.667,132.5 195.667,136.5 195,140.5C 194.667,140.167 194.333,139.833 194,139.5C 193.508,140.549 193.674,141.549 194.5,142.5C 190.766,143.728 190.599,145.395 194,147.5C 194.677,145.311 195.844,144.978 197.5,146.5C 198.386,145.675 198.719,144.675 198.5,143.5C 202.013,144.124 204.847,143.124 207,140.5C 208.585,141.376 209.585,142.709 210,144.5C 213.139,143.921 216.139,142.921 219,141.5C 220.411,138.421 221.911,135.421 223.5,132.5C 229.19,131.211 234.857,131.211 240.5,132.5C 240.858,137.456 243.525,141.123 248.5,143.5C 249.919,142.995 250.585,141.995 250.5,140.5C 251.167,140.5 251.833,140.5 252.5,140.5C 254.698,139.933 257.031,139.933 259.5,140.5C 260.5,140.5 261.5,140.5 262.5,140.5C 262.822,142.722 262.155,144.556 260.5,146C 263.724,150.297 267.057,154.464 270.5,158.5C 271.484,155.572 271.817,152.572 271.5,149.5C 273.948,149.915 275.281,148.915 275.5,146.5C 275.182,145.353 274.516,144.519 273.5,144C 274.711,142.887 274.711,141.72 273.5,140.5C 276.243,137.394 275.576,135.394 271.5,134.5C 271.5,139.167 271.5,143.833 271.5,148.5C 268.269,148.441 265.935,146.941 264.5,144C 268.279,143.78 269.946,141.78 269.5,138C 269.252,136.284 268.585,134.784 267.5,133.5C 268.289,131.512 269.455,131.179 271,132.5C 271.483,131.552 271.649,130.552 271.5,129.5C 273.95,129.298 276.283,129.631 278.5,130.5C 279.974,131.436 280.974,132.77 281.5,134.5C 278.755,140.122 280.755,142.455 287.5,141.5C 287.798,145.171 286.298,147.837 283,149.5C 278.13,148.218 275.63,150.218 275.5,155.5C 288.507,155.459 301.507,155.459 314.5,155.5C 314.5,154.167 314.5,152.833 314.5,151.5C 321.443,153.139 328.443,154.472 335.5,155.5C 335.5,152.5 335.5,149.5 335.5,146.5C 333.027,146.912 331.694,145.912 331.5,143.5C 332.833,143.5 334.167,143.5 335.5,143.5C 335.5,142.5 335.5,141.5 335.5,140.5C 335.5,139.833 335.5,139.167 335.5,138.5C 335.917,135.921 335.25,133.754 333.5,132C 335.016,130.103 335.683,127.936 335.5,125.5C 334.022,125.762 332.689,125.429 331.5,124.5C 329.565,122.273 327.732,119.939 326,117.5C 325.667,117.833 325.333,118.167 325,118.5C 324.982,116.203 325.149,113.869 325.5,111.5C 327.857,111.663 330.19,111.497 332.5,111C 331.833,110.667 331.167,110.333 330.5,110C 331.219,107.444 332.886,106.277 335.5,106.5C 335.665,103.482 335.498,100.482 335,97.5C 333.605,96.1854 332.605,96.5188 332,98.5C 329.815,96.5845 327.315,96.4178 324.5,98C 323.167,100 321.833,102 320.5,104C 321.712,105.107 321.379,105.607 319.5,105.5C 319.716,102.568 319.049,99.9017 317.5,97.5C 317.818,96.3527 318.484,95.5194 319.5,95C 337.83,94.5001 356.164,94.3334 374.5,94.5C 374.5,118.5 374.5,142.5 374.5,166.5C 249.5,166.5 124.5,166.5 -0.5,166.5C -0.5,140.167 -0.5,113.833 -0.5,87.5C 11.5857,86.8669 23.419,87.5335 35,89.5C 39.087,89.7981 43.2536,89.4648 47.5,88.5C 48.9464,89.6129 50.6131,89.7796 52.5,89C 57.2634,87.1061 62.2634,85.9394 67.5,85.5C 68.6473,85.1822 69.4806,84.5156 70,83.5C 71.1939,84.4303 72.5272,85.0969 74,85.5C 75.7153,84.3955 77.2153,83.0622 78.5,81.5 Z"/></g>
<g><path style="opacity:1" fill="#ab555e" d="M 147.5,127.5 C 146.061,129.588 145.394,131.921 145.5,134.5C 146.552,134.649 147.552,134.483 148.5,134C 149.163,132.482 150.163,131.315 151.5,130.5C 151.107,132.284 150.441,133.95 149.5,135.5C 145.024,137.74 140.357,139.406 135.5,140.5C 135.167,140.5 134.833,140.5 134.5,140.5C 133.833,138.5 133.167,136.5 132.5,134.5C 137.035,135.047 140.702,133.714 143.5,130.5C 144.637,129.211 145.97,128.211 147.5,127.5 Z"/></g>
<g><path style="opacity:1" fill="#edf1f5" d="M 74.5,107.5 C 73.5416,107.953 72.7083,108.619 72,109.5C 67.2303,105.355 61.7303,103.855 55.5,105C 46.8817,108.736 43.3817,115.236 45,124.5C 50.0285,134.49 57.8619,137.323 68.5,133C 69.435,130.619 69.7683,128.119 69.5,125.5C 69.5,123.5 69.5,121.5 69.5,119.5C 71.5,119.5 73.5,119.5 75.5,119.5C 75.666,124.844 75.4994,130.177 75,135.5C 66.6742,141.075 57.8409,141.909 48.5,138C 43.2804,134.311 39.9471,129.478 38.5,123.5C 38.5,120.833 38.5,118.167 38.5,115.5C 40.2811,110.254 43.2811,105.92 47.5,102.5C 56.7815,98.1244 65.7815,98.6244 74.5,104C 75.6843,105.145 75.6843,106.312 74.5,107.5 Z"/></g>
<g><path style="opacity:1" fill="#9339a4" d="M 113.5,120.5 C 113.5,120.167 113.5,119.833 113.5,119.5C 115.5,119.5 117.5,119.5 119.5,119.5C 119.5,119.833 119.5,120.167 119.5,120.5C 120.127,128.607 124.46,133.274 132.5,134.5C 133.167,136.5 133.833,138.5 134.5,140.5C 121.913,139.578 114.913,132.911 113.5,120.5 Z"/></g>
<g><path style="opacity:1" fill="#0e1c32" d="M 259.5,99.5 C 259.5,113.167 259.5,126.833 259.5,140.5C 257.031,139.933 254.698,139.933 252.5,140.5C 247.386,126.937 241.719,113.604 235.5,100.5C 233.167,99.1667 230.833,99.1667 228.5,100.5C 222.833,113.167 217.167,125.833 211.5,138.5C 213.5,139.833 215.5,139.833 217.5,138.5C 219.076,136.021 220.076,133.354 220.5,130.5C 227.841,130.334 235.174,130.5 242.5,131C 244.235,133.637 245.568,136.47 246.5,139.5C 247.689,140.429 249.022,140.762 250.5,140.5C 250.585,141.995 249.919,142.995 248.5,143.5C 243.525,141.123 240.858,137.456 240.5,132.5C 234.857,131.211 229.19,131.211 223.5,132.5C 221.911,135.421 220.411,138.421 219,141.5C 216.139,142.921 213.139,143.921 210,144.5C 209.585,142.709 208.585,141.376 207,140.5C 204.847,143.124 202.013,144.124 198.5,143.5C 198.719,144.675 198.386,145.675 197.5,146.5C 195.844,144.978 194.677,145.311 194,147.5C 190.599,145.395 190.766,143.728 194.5,142.5C 193.674,141.549 193.508,140.549 194,139.5C 194.333,139.833 194.667,140.167 195,140.5C 195.667,136.5 195.667,132.5 195,128.5C 191.881,131.027 190.715,134.36 191.5,138.5C 189.799,138.034 188.299,138.034 187,138.5C 185.961,137.756 185.461,136.756 185.5,135.5C 189.488,128.194 193.488,120.86 197.5,113.5C 198.167,122.5 198.833,131.5 199.5,140.5C 201.5,140.5 203.5,140.5 205.5,140.5C 205.5,127.167 205.5,113.833 205.5,100.5C 207.436,104.715 208.103,109.381 207.5,114.5C 208.5,114.5 209.5,114.5 210.5,114.5C 210.753,116.827 210.086,118.827 208.5,120.5C 207.749,119.624 207.249,118.624 207,117.5C 206.956,120.475 207.123,123.475 207.5,126.5C 209.467,126.261 211.301,126.594 213,127.5C 216.116,123.101 218.282,118.268 219.5,113C 219.241,111.739 218.574,110.739 217.5,110C 218.988,108.283 220.821,107.116 223,106.5C 223.315,103.628 223.815,100.795 224.5,98C 224.355,97.228 224.022,96.5613 223.5,96C 228.5,95.3333 233.5,95.3333 238.5,96C 239.456,99.3936 239.789,102.894 239.5,106.5C 241.262,106.357 242.929,106.691 244.5,107.5C 245.478,107.023 246.311,106.357 247,105.5C 246.868,109.956 246.535,114.622 246,119.5C 246.911,124.915 250.078,127.582 255.5,127.5C 255.338,129.527 255.505,131.527 256,133.5C 256.333,133.167 256.667,132.833 257,132.5C 257.273,121.304 258.106,110.304 259.5,99.5 Z"/></g>
<g><path style="opacity:1" fill="#bd5e55" d="M 154.5,117.5 C 154.833,117.5 155.167,117.5 155.5,117.5C 155.5,117.833 155.5,118.167 155.5,118.5C 155.316,122.716 154.316,126.716 152.5,130.5C 152.167,130.5 151.833,130.5 151.5,130.5C 150.163,131.315 149.163,132.482 148.5,134C 147.552,134.483 146.552,134.649 145.5,134.5C 145.394,131.921 146.061,129.588 147.5,127.5C 148.167,125.5 148.833,123.5 149.5,121.5C 149.5,120.833 149.5,120.167 149.5,119.5C 151.554,119.635 153.221,118.968 154.5,117.5 Z"/></g>
<g><path style="opacity:1" fill="#15133a" d="M 127.5,114.5 C 131.833,114.5 136.167,114.5 140.5,114.5C 140.621,117.541 139.121,119.208 136,119.5C 133.23,118.652 130.397,118.319 127.5,118.5C 127.5,121.5 127.5,124.5 127.5,127.5C 132.833,127.5 138.167,127.5 143.5,127.5C 143.5,128.5 143.5,129.5 143.5,130.5C 140.702,133.714 137.035,135.047 132.5,134.5C 124.46,133.274 120.127,128.607 119.5,120.5C 120.82,121.942 122.486,122.608 124.5,122.5C 123.03,119.682 122.03,116.682 121.5,113.5C 123.484,113.383 125.15,114.05 126.5,115.5C 127.107,115.376 127.44,115.043 127.5,114.5 Z"/></g>
<g><path style="opacity:1" fill="#44505d" d="M 199.5,139.5 C 199.5,139.833 199.5,140.167 199.5,140.5C 198.833,131.5 198.167,122.5 197.5,113.5C 197.783,112.711 198.283,112.044 199,111.5C 199.5,120.827 199.666,130.161 199.5,139.5 Z"/></g>
<g><path style="opacity:1" fill="#ecf2f5" d="M 306.5,99.5 C 306.334,106.841 306.5,114.174 307,121.5C 307.717,120.956 308.217,120.289 308.5,119.5C 314.658,112.842 320.991,106.342 327.5,100C 329.833,99.3333 332.167,99.3333 334.5,100C 329.154,106.012 323.82,112.012 318.5,118C 324.017,125.012 329.684,131.845 335.5,138.5C 335.5,139.167 335.5,139.833 335.5,140.5C 333.076,140.808 330.743,140.474 328.5,139.5C 323.854,133.686 319.021,128.02 314,122.5C 311.628,124.703 309.461,127.037 307.5,129.5C 306.521,132.625 306.187,135.958 306.5,139.5C 304.5,139.5 302.5,139.5 300.5,139.5C 300.5,126.167 300.5,112.833 300.5,99.5C 302.5,99.5 304.5,99.5 306.5,99.5 Z"/></g>
<g><path style="opacity:1" fill="#0b1b2a" d="M 161.5,99.5 C 161.5,111.5 161.5,123.5 161.5,135.5C 160.678,132.335 160.011,129.002 159.5,125.5C 158.831,122.972 157.998,122.972 157,125.5C 156.814,122.964 156.314,120.631 155.5,118.5C 155.5,118.167 155.5,117.833 155.5,117.5C 155.073,113.176 154.739,108.842 154.5,104.5C 152.585,104.784 150.919,104.451 149.5,103.5C 150.5,103.5 151.5,103.5 152.5,103.5C 151.833,101.5 151.167,99.5 150.5,97.5C 154.349,97.502 157.015,99.3353 158.5,103C 156.109,105.874 156.442,107.374 159.5,107.5C 158.964,104.302 159.631,101.635 161.5,99.5 Z"/></g>
<g><path style="opacity:1" fill="#e9eef1" d="M 259.5,99.5 C 259.833,99.5 260.167,99.5 260.5,99.5C 266.842,99.3338 273.175,99.5005 279.5,100C 283.562,100.531 286.896,102.364 289.5,105.5C 293.632,114.497 291.632,121.664 283.5,127C 286.3,130.775 288.966,134.608 291.5,138.5C 289.735,139.461 287.735,139.795 285.5,139.5C 284.396,137.611 283.063,135.945 281.5,134.5C 280.974,132.77 279.974,131.436 278.5,130.5C 278.586,129.504 278.252,128.671 277.5,128C 273.514,127.501 269.514,127.334 265.5,127.5C 265.5,131.833 265.5,136.167 265.5,140.5C 264.5,140.5 263.5,140.5 262.5,140.5C 261.5,140.5 260.5,140.5 259.5,140.5C 259.5,126.833 259.5,113.167 259.5,99.5 Z"/></g>
<g><path style="opacity:1" fill="#7e8a96" d="M 161.5,99.5 C 161.833,99.5 162.167,99.5 162.5,99.5C 164.415,99.2155 166.081,99.5489 167.5,100.5C 165.833,100.5 164.167,100.5 162.5,100.5C 162.5,113.5 162.5,126.5 162.5,139.5C 164.167,139.5 165.833,139.5 167.5,139.5C 165.735,140.461 163.735,140.795 161.5,140.5C 161.5,138.833 161.5,137.167 161.5,135.5C 161.5,123.5 161.5,111.5 161.5,99.5 Z"/></g>
<g><path style="opacity:1" fill="#e8edf0" d="M 252.5,140.5 C 251.833,140.5 251.167,140.5 250.5,140.5C 249.022,140.762 247.689,140.429 246.5,139.5C 245.568,136.47 244.235,133.637 242.5,131C 235.174,130.5 227.841,130.334 220.5,130.5C 220.076,133.354 219.076,136.021 217.5,138.5C 215.5,139.833 213.5,139.833 211.5,138.5C 217.167,125.833 222.833,113.167 228.5,100.5C 230.833,99.1667 233.167,99.1667 235.5,100.5C 241.719,113.604 247.386,126.937 252.5,140.5 Z"/></g>
<g><path style="opacity:1" fill="#485356" d="M 224.5,123.5 C 229.5,124.833 234.5,124.833 239.5,123.5C 240.043,123.56 240.376,123.893 240.5,124.5C 234.833,125.833 229.167,125.833 223.5,124.5C 223.624,123.893 223.957,123.56 224.5,123.5 Z"/></g>
<g><path style="opacity:1" fill="#b68688" d="M 113.5,117.5 C 115.5,117.5 117.5,117.5 119.5,117.5C 119.5,118.167 119.5,118.833 119.5,119.5C 117.5,119.5 115.5,119.5 113.5,119.5C 113.5,118.833 113.5,118.167 113.5,117.5 Z"/></g>
<g><path style="opacity:1" fill="#091834" d="M 149.5,121.5 C 148.833,123.5 148.167,125.5 147.5,127.5C 145.97,128.211 144.637,129.211 143.5,130.5C 143.5,129.5 143.5,128.5 143.5,127.5C 138.167,127.5 132.833,127.5 127.5,127.5C 127.5,124.5 127.5,121.5 127.5,118.5C 130.397,118.319 133.23,118.652 136,119.5C 139.121,119.208 140.621,117.541 140.5,114.5C 136.167,114.5 131.833,114.5 127.5,114.5C 127.374,112.8 126.707,111.3 125.5,110C 125.645,109.228 125.978,108.561 126.5,108C 136.097,104.44 142.097,107.607 144.5,117.5C 145.167,117.167 145.833,116.833 146.5,116.5C 147.065,118.544 148.065,120.21 149.5,121.5 Z"/></g>
<g><path style="opacity:1" fill="#0e1b2f" d="M 239.5,123.5 C 234.5,124.833 229.5,124.833 224.5,123.5C 226.509,117.65 229.009,111.983 232,106.5C 234.604,112.154 237.104,117.821 239.5,123.5 Z"/></g>
<g><path style="opacity:1" fill="#0a1733" d="M 265.5,105.5 C 270.511,105.334 275.511,105.501 280.5,106C 285.609,109.366 286.776,113.866 284,119.5C 282.581,120.46 281.081,121.293 279.5,122C 274.845,122.499 270.179,122.666 265.5,122.5C 265.5,116.833 265.5,111.167 265.5,105.5 Z"/></g>
<g><path style="opacity:1" fill="#131c0a" d="M 121.5,102.5 C 117.098,106.57 114.432,111.57 113.5,117.5C 112.378,115.712 112.211,113.712 113,111.5C 114.586,109.33 115.92,106.996 117,104.5C 118.11,102.963 119.61,102.297 121.5,102.5 Z"/></g>
<g><path style="opacity:1" fill="#bec94b" d="M 137.5,99.5 C 140.311,99.8257 142.978,100.659 145.5,102C 151.237,105.649 154.237,110.816 154.5,117.5C 153.221,118.968 151.554,119.635 149.5,119.5C 148.455,112.123 144.455,107.123 137.5,104.5C 134.741,104.067 133.408,102.4 133.5,99.5C 134.833,99.5 136.167,99.5 137.5,99.5 Z"/></g>
<g><path style="opacity:1" fill="#171d14" d="M 137.5,104.5 C 144.455,107.123 148.455,112.123 149.5,119.5C 149.5,120.167 149.5,120.833 149.5,121.5C 148.065,120.21 147.065,118.544 146.5,116.5C 145.833,116.833 145.167,117.167 144.5,117.5C 142.097,107.607 136.097,104.44 126.5,108C 125.978,108.561 125.645,109.228 125.5,110C 126.707,111.3 127.374,112.8 127.5,114.5C 127.44,115.043 127.107,115.376 126.5,115.5C 125.15,114.05 123.484,113.383 121.5,113.5C 122.03,116.682 123.03,119.682 124.5,122.5C 122.486,122.608 120.82,121.942 119.5,120.5C 119.5,120.167 119.5,119.833 119.5,119.5C 119.5,118.833 119.5,118.167 119.5,117.5C 121.514,107.836 127.514,103.503 137.5,104.5 Z"/></g>
<g><path style="opacity:1" fill="#aaa03f" d="M 137.5,99.5 C 136.167,99.5 134.833,99.5 133.5,99.5C 133.408,102.4 134.741,104.067 137.5,104.5C 127.514,103.503 121.514,107.836 119.5,117.5C 117.5,117.5 115.5,117.5 113.5,117.5C 114.432,111.57 117.098,106.57 121.5,102.5C 123.574,101.486 125.574,100.486 127.5,99.5C 130.999,98.5565 134.332,98.5565 137.5,99.5 Z"/></g>
<g><path style="opacity:1" fill="#46515f" d="M 306.5,99.5 C 307.167,106.167 307.833,112.833 308.5,119.5C 308.217,120.289 307.717,120.956 307,121.5C 306.5,114.174 306.334,106.841 306.5,99.5 Z"/></g>
<g><path style="opacity:1" fill="#121d2e" d="M 200.5,99.5 C 195.108,108.604 189.441,117.604 183.5,126.5C 178.156,117.805 172.822,109.139 167.5,100.5C 166.081,99.5489 164.415,99.2155 162.5,99.5C 162.951,97.2497 164.285,95.9164 166.5,95.5C 169.689,96.3599 172.355,98.0265 174.5,100.5C 173.833,101.833 173.167,103.167 172.5,104.5C 174.02,106.662 175.02,108.995 175.5,111.5C 176.833,111.5 178.167,111.5 179.5,111.5C 181.862,120.666 184.862,120.833 188.5,112C 189.448,111.517 190.448,111.351 191.5,111.5C 192.859,107.753 194.359,104.086 196,100.5C 197.506,98.9347 199.006,98.6014 200.5,99.5 Z"/></g>
<g><path style="opacity:1" fill="#f1f4f7" d="M 200.5,99.5 C 201.833,99.5 203.167,99.5 204.5,99.5C 204.5,112.833 204.5,126.167 204.5,139.5C 202.833,139.5 201.167,139.5 199.5,139.5C 199.666,130.161 199.5,120.827 199,111.5C 198.283,112.044 197.783,112.711 197.5,113.5C 193.488,120.86 189.488,128.194 185.5,135.5C 183.901,135.768 182.568,135.434 181.5,134.5C 177.898,127.571 173.898,120.905 169.5,114.5C 169.217,113.711 168.717,113.044 168,112.5C 167.5,121.494 167.334,130.494 167.5,139.5C 165.833,139.5 164.167,139.5 162.5,139.5C 162.5,126.5 162.5,113.5 162.5,100.5C 164.167,100.5 165.833,100.5 167.5,100.5C 172.822,109.139 178.156,117.805 183.5,126.5C 189.441,117.604 195.108,108.604 200.5,99.5 Z"/></g>
<g><path style="opacity:1" fill="#485260" d="M 169.5,114.5 C 168.833,122.833 168.167,131.167 167.5,139.5C 167.334,130.494 167.5,121.494 168,112.5C 168.717,113.044 169.217,113.711 169.5,114.5 Z"/></g>
<g><path style="opacity:1" fill="#0c1e33" d="M 74.5,107.5 C 75.6843,106.312 75.6843,105.145 74.5,104C 65.7815,98.6244 56.7815,98.1244 47.5,102.5C 47.1367,100.089 48.1367,98.5885 50.5,98C 60.2069,97.4604 69.8736,96.6271 79.5,95.5C 80.7026,100.943 79.0359,104.943 74.5,107.5 Z"/></g>
<g><path style="opacity:1" fill="#4d5967" d="M 307.5,129.5 C 307.5,133.167 307.5,136.833 307.5,140.5C 304.941,140.802 302.607,140.468 300.5,139.5C 302.5,139.5 304.5,139.5 306.5,139.5C 306.187,135.958 306.521,132.625 307.5,129.5 Z"/></g>
<g><path style="opacity:1" fill="#0c1b31" d="M 116.5,135.5 C 117.5,135.833 118.167,136.5 118.5,137.5C 118.539,138.756 118.039,139.756 117,140.5C 115.434,139.939 114.101,140.606 113,142.5C 110.086,141.855 107.086,141.522 104,141.5C 96.1647,142.14 88.498,143.474 81,145.5C 78.776,143.819 76.276,142.819 73.5,142.5C 62.9515,144.032 52.9515,142.366 43.5,137.5C 42.4106,134.41 40.4106,132.41 37.5,131.5C 37.67,130.178 37.3366,129.011 36.5,128C 38.1066,126.951 38.7733,125.451 38.5,123.5C 39.9471,129.478 43.2804,134.311 48.5,138C 57.8409,141.909 66.6742,141.075 75,135.5C 75.4994,130.177 75.666,124.844 75.5,119.5C 73.5,119.5 71.5,119.5 69.5,119.5C 69.5,121.5 69.5,123.5 69.5,125.5C 68.5207,124.235 67.5207,122.901 66.5,121.5C 68.6312,114.286 72.1312,113.619 77,119.5C 77.2382,123.222 77.7382,126.889 78.5,130.5C 78.1667,131.167 77.8333,131.833 77.5,132.5C 78.919,134.336 80.0857,136.336 81,138.5C 81.4186,137.328 82.0853,136.328 83,135.5C 83.6667,125.167 83.6667,114.833 83,104.5C 82.1667,103.667 81.3333,102.833 80.5,102C 82.0456,99.7432 83.7123,97.5765 85.5,95.5C 87.5508,95.5222 89.7175,96.1889 92,97.5C 92.8732,97.2645 93.7065,96.9312 94.5,96.5C 93.5398,107.729 93.5398,119.062 94.5,130.5C 100.81,131.13 107.144,131.796 113.5,132.5C 113.879,134.213 114.879,135.213 116.5,135.5 Z"/></g>
<g><path style="opacity:1" fill="#f4f8fa" d="M 91.5,100.5 C 91.5,111.833 91.5,123.167 91.5,134.5C 98.8333,134.5 106.167,134.5 113.5,134.5C 113.5,136.167 113.5,137.833 113.5,139.5C 104.5,139.5 95.5,139.5 86.5,139.5C 86.5,126.5 86.5,113.5 86.5,100.5C 88.1667,100.5 89.8333,100.5 91.5,100.5 Z"/></g>
<g><path style="opacity:1" fill="#a7b5c2" d="M 91.5,100.5 C 89.8333,100.5 88.1667,100.5 86.5,100.5C 86.5,113.5 86.5,126.5 86.5,139.5C 95.5,139.5 104.5,139.5 113.5,139.5C 104.348,140.494 95.015,140.827 85.5,140.5C 85.5,126.833 85.5,113.167 85.5,99.5C 87.7354,99.2053 89.7354,99.5386 91.5,100.5 Z"/></g>
<g><path style="opacity:1" fill="#280d22" d="M 149.5,135.5 C 149.141,137.371 148.141,138.871 146.5,140C 143.173,140.61 139.839,141.11 136.5,141.5C 135.833,141.5 135.5,141.167 135.5,140.5C 140.357,139.406 145.024,137.74 149.5,135.5 Z"/></g>
<g><path style="opacity:1" fill="#220d44" d="M 113.5,120.5 C 114.913,132.911 121.913,139.578 134.5,140.5C 134.833,140.5 135.167,140.5 135.5,140.5C 135.5,141.167 135.833,141.5 136.5,141.5C 136.03,142.693 135.03,143.36 133.5,143.5C 128.957,141.864 124.29,140.864 119.5,140.5C 119.737,139.209 119.404,138.209 118.5,137.5C 118.167,136.5 117.5,135.833 116.5,135.5C 114.995,132.326 113.328,129.159 111.5,126C 112.077,124.1 112.744,122.267 113.5,120.5 Z"/></g>
<g><path style="opacity:1" fill="#778491" d="M 204.5,99.5 C 205.167,99.5 205.5,99.8333 205.5,100.5C 205.5,113.833 205.5,127.167 205.5,140.5C 203.5,140.5 201.5,140.5 199.5,140.5C 199.5,140.167 199.5,139.833 199.5,139.5C 201.167,139.5 202.833,139.5 204.5,139.5C 204.5,126.167 204.5,112.833 204.5,99.5 Z"/></g>
<g><path style="opacity:1" fill="#081833" d="M 169.5,114.5 C 173.898,120.905 177.898,127.571 181.5,134.5C 179.97,135.067 178.47,135.733 177,136.5C 176.014,134.222 175.18,131.889 174.5,129.5C 173.264,128.643 171.931,127.977 170.5,127.5C 170.509,132.842 170.509,138.175 170.5,143.5C 166.302,143.642 162.302,143.142 158.5,142C 158.167,142.333 157.833,142.667 157.5,143C 158.428,143.388 159.095,144.055 159.5,145C 154.59,147.322 152.756,151.155 154,156.5C 156.14,157.798 155.974,158.465 153.5,158.5C 150.524,156.535 147.524,154.535 144.5,152.5C 143.571,151.311 143.238,149.978 143.5,148.5C 139.488,149.113 137.488,147.446 137.5,143.5C 139.5,143.5 141.5,143.5 143.5,143.5C 143.351,144.552 143.517,145.552 144,146.5C 145.609,145.853 147.109,145.02 148.5,144C 146.335,143.008 146.501,141.842 149,140.5C 150.788,141.3 152.455,141.634 154,141.5C 155.584,140.139 157.418,139.472 159.5,139.5C 159.664,136.813 159.497,134.146 159,131.5C 156.194,139.595 154.027,139.261 152.5,130.5C 154.316,126.716 155.316,122.716 155.5,118.5C 156.314,120.631 156.814,122.964 157,125.5C 157.998,122.972 158.831,122.972 159.5,125.5C 160.011,129.002 160.678,132.335 161.5,135.5C 161.5,137.167 161.5,138.833 161.5,140.5C 163.735,140.795 165.735,140.461 167.5,139.5C 168.167,131.167 168.833,122.833 169.5,114.5 Z"/></g>
<g><path style="opacity:1" fill="#011937" d="M 331.5,143.5 C 331.694,145.912 333.027,146.912 335.5,146.5C 335.5,149.5 335.5,152.5 335.5,155.5C 328.443,154.472 321.443,153.139 314.5,151.5C 314.5,152.833 314.5,154.167 314.5,155.5C 301.507,155.459 288.507,155.459 275.5,155.5C 275.63,150.218 278.13,148.218 283,149.5C 286.298,147.837 287.798,145.171 287.5,141.5C 280.755,142.455 278.755,140.122 281.5,134.5C 283.063,135.945 284.396,137.611 285.5,139.5C 287.607,140.468 289.941,140.802 292.5,140.5C 292.56,141.043 292.893,141.376 293.5,141.5C 294.696,141.154 294.696,140.654 293.5,140C 294.448,139.517 295.448,139.351 296.5,139.5C 296.33,140.822 296.663,141.989 297.5,143C 301.152,143.499 304.818,143.665 308.5,143.5C 310.019,139.391 310.853,135.057 311,130.5C 311.725,129.941 312.558,129.608 313.5,129.5C 315.325,130.651 317.325,131.318 319.5,131.5C 319.5,132.5 319.5,133.5 319.5,134.5C 323.019,135.013 325.353,137.013 326.5,140.5C 328.396,141.275 330.063,142.275 331.5,143.5 Z"/></g>
<g><path style="opacity:1" fill="#798490" d="M 291.5,138.5 C 292.338,138.842 292.672,139.508 292.5,140.5C 289.941,140.802 287.607,140.468 285.5,139.5C 287.735,139.795 289.735,139.461 291.5,138.5 Z"/></g>
<g><path style="opacity:1" fill="#051a35" d="M 278.5,130.5 C 276.283,129.631 273.95,129.298 271.5,129.5C 271.649,130.552 271.483,131.552 271,132.5C 269.455,131.179 268.289,131.512 267.5,133.5C 268.585,134.784 269.252,136.284 269.5,138C 269.946,141.78 268.279,143.78 264.5,144C 265.935,146.941 268.269,148.441 271.5,148.5C 271.5,143.833 271.5,139.167 271.5,134.5C 275.576,135.394 276.243,137.394 273.5,140.5C 274.711,141.72 274.711,142.887 273.5,144C 274.516,144.519 275.182,145.353 275.5,146.5C 275.281,148.915 273.948,149.915 271.5,149.5C 271.817,152.572 271.484,155.572 270.5,158.5C 267.057,154.464 263.724,150.297 260.5,146C 262.155,144.556 262.822,142.722 262.5,140.5C 263.5,140.5 264.5,140.5 265.5,140.5C 265.5,136.167 265.5,131.833 265.5,127.5C 269.514,127.334 273.514,127.501 277.5,128C 278.252,128.671 278.586,129.504 278.5,130.5 Z"/></g>
<g><path style="opacity:1" fill="#001739" d="M -0.5,166.5 C 124.5,166.5 249.5,166.5 374.5,166.5C 374.5,169.5 374.5,172.5 374.5,175.5C 249.5,175.5 124.5,175.5 -0.5,175.5C -0.5,172.5 -0.5,169.5 -0.5,166.5 Z"/></g>
<g><path style="opacity:1" fill="#001739" d="M -0.5,175.5 C 124.5,175.5 249.5,175.5 374.5,175.5C 374.5,178.167 374.5,180.833 374.5,183.5C 249.5,183.5 124.5,183.5 -0.5,183.5C -0.5,180.833 -0.5,178.167 -0.5,175.5 Z"/></g>
<g><path style="opacity:1" fill="#001739" d="M -0.5,183.5 C 124.5,183.5 249.5,183.5 374.5,183.5C 374.5,186.167 374.5,188.833 374.5,191.5C 249.5,191.5 124.5,191.5 -0.5,191.5C -0.5,188.833 -0.5,186.167 -0.5,183.5 Z"/></g>
<g><path style="opacity:1" fill="#001739" d="M -0.5,191.5 C 124.5,191.5 249.5,191.5 374.5,191.5C 374.5,194.167 374.5,196.833 374.5,199.5C 249.5,199.5 124.5,199.5 -0.5,199.5C -0.5,196.833 -0.5,194.167 -0.5,191.5 Z"/></g>
<g><path style="opacity:1" fill="#001739" d="M -0.5,199.5 C 124.5,199.5 249.5,199.5 374.5,199.5C 374.5,204.167 374.5,208.833 374.5,213.5C 249.5,213.5 124.5,213.5 -0.5,213.5C -0.5,208.833 -0.5,204.167 -0.5,199.5 Z"/></g>
</svg>
