<svg width="123" height="123" viewBox="0 0 123 123" fill="none" xmlns="http://www.w3.org/2000/svg">
<g clip-path="url(#clip0_105_1818)">
<path d="M19.1337 13.6667C17.6838 13.6667 16.2933 14.2427 15.2681 15.2679C14.2429 16.2931 13.667 17.6836 13.667 19.1334V41.0001H41.0003V13.6667H19.1337ZM34.167 34.1667H20.5003V20.5001H34.167V34.1667Z" fill="black"/>
<path d="M13.667 103.867C13.667 105.317 14.2429 106.707 15.2681 107.732C16.2933 108.757 17.6838 109.333 19.1337 109.333H41.0003V82H13.667V103.867ZM20.5003 88.8333H34.167V102.5H20.5003V88.8333Z" fill="black"/>
<path d="M82 109.333H103.867C105.317 109.333 106.707 108.757 107.732 107.732C108.757 106.707 109.333 105.317 109.333 103.867V82H82V109.333ZM88.8333 88.8333H102.5V102.5H88.8333V88.8333Z" fill="black"/>
<path d="M103.867 13.6667H82V41.0001H109.333V19.1334C109.333 17.6836 108.757 16.2931 107.732 15.2679C106.707 14.2427 105.317 13.6667 103.867 13.6667ZM102.5 34.1667H88.8333V20.5001H102.5V34.1667Z" fill="black"/>
<path d="M68.3337 34.1666V27.3333H54.667V40.9999H61.5003V34.1666H68.3337Z" fill="black"/>
<path d="M41 41H47.8333V47.8333H41V41Z" fill="black"/>
<path d="M47.833 47.8333H61.4997V54.6666H47.833V47.8333Z" fill="black"/>
<path d="M68.333 20.5001V27.3334H75.1663V13.6667H47.833V27.3334H54.6663V20.5001H68.333Z" fill="black"/>
<path d="M13.667 47.8333H20.5003V61.4999H13.667V47.8333Z" fill="black"/>
<path d="M41.0003 54.6666V61.4999H34.167V47.8333H27.3337V61.4999H20.5003V68.3333H13.667V75.1666H27.3337V68.3333H34.167V75.1666H41.0003V68.3333H47.8337V54.6666H41.0003Z" fill="black"/>
<path d="M68.3333 54.6667H75.1667V61.5001H82V54.6667H88.8333V47.8334H75.1667V34.1667H68.3333V41.0001H61.5V47.8334H68.3333V54.6667Z" fill="black"/>
<path d="M61.4997 102.5H47.833V109.333H75.1663V102.5H68.333V95.6667H61.4997V102.5Z" fill="black"/>
<path d="M75.167 68.3334V61.5001H68.3337V54.6667H61.5003V61.5001H54.667V68.3334H61.5003V75.1667H68.3337V68.3334H75.167Z" fill="black"/>
<path d="M102.5 68.3333H109.333V75.1666H102.5V68.3333Z" fill="black"/>
<path d="M75.167 68.3333H95.667V75.1666H75.167V68.3333Z" fill="black"/>
<path d="M102.5 47.8333H95.6663V54.6666H88.833V61.4999H95.6663V68.3333H102.5V61.4999H109.333V54.6666H102.5V47.8333Z" fill="black"/>
<path d="M68.333 75.1667H75.1663V95.6667H68.333V75.1667Z" fill="black"/>
<path d="M47.833 95.6666H54.6663V88.8333H61.4997V81.9999H54.6663V68.3333H47.833V95.6666Z" fill="black"/>
</g>
<defs>
<clipPath id="clip0_105_1818">
<rect width="123" height="123" fill="white"/>
</clipPath>
</defs>
</svg>
