<?xml version="1.0" encoding="UTF-8"?>
<!DOCTYPE svg PUBLIC "-//W3C//DTD SVG 1.1//EN" "http://www.w3.org/Graphics/SVG/1.1/DTD/svg11.dtd">
<svg xmlns="http://www.w3.org/2000/svg" version="1.1" width="833px" height="712px" style="shape-rendering:geometricPrecision; text-rendering:geometricPrecision; image-rendering:optimizeQuality; fill-rule:evenodd; clip-rule:evenodd" xmlns:xlink="http://www.w3.org/1999/xlink">
<g><path style="opacity:1" fill="#fefefe" d="M -0.5,-0.5 C 277.167,-0.5 554.833,-0.5 832.5,-0.5C 832.5,236.833 832.5,474.167 832.5,711.5C 554.833,711.5 277.167,711.5 -0.5,711.5C -0.5,474.167 -0.5,236.833 -0.5,-0.5 Z"/></g>
<g><path style="opacity:1" fill="#e98c40" d="M 618.5,88.5 C 563.499,88.3333 508.499,88.5 453.5,89C 439,92.8333 429.833,102 426,116.5C 424.985,137.174 424.819,157.84 425.5,178.5C 422.976,196.18 422.976,213.846 425.5,231.5C 423.372,245.948 423.039,260.281 424.5,274.5C 424.832,320.336 424.499,366.003 423.5,411.5C 412.034,406.466 400.034,403.3 387.5,402C 370.193,400.701 352.86,400.201 335.5,400.5C 334.838,389.101 331.004,378.768 324,369.5C 321.674,367.934 319.508,366.268 317.5,364.5C 338.5,364.5 359.5,364.5 380.5,364.5C 380.334,369.844 380.501,375.177 381,380.5C 381.499,374.843 381.666,369.176 381.5,363.5C 390.682,363.827 399.682,363.493 408.5,362.5C 408.5,356.833 408.5,351.167 408.5,345.5C 387.167,345.5 365.833,345.5 344.5,345.5C 343.511,350.975 343.178,356.642 343.5,362.5C 334.105,361.862 325.105,362.529 316.5,364.5C 301.874,358.647 291.541,362.981 285.5,377.5C 283.851,368.308 279.684,360.308 273,353.5C 272.601,353.728 272.435,354.062 272.5,354.5C 270.089,341.609 267.589,328.609 265,315.5C 263.579,303.133 261.912,290.8 260,278.5C 258.4,265.787 252.566,255.621 242.5,248C 223.343,239.4 206.51,242.567 192,257.5C 190.522,260.158 189.355,262.825 188.5,265.5C 179.833,265.5 171.167,265.5 162.5,265.5C 162.5,271.5 162.5,277.5 162.5,283.5C 150.833,283.5 139.167,283.5 127.5,283.5C 127.5,289.5 127.5,295.5 127.5,301.5C 141.837,301.667 156.171,301.5 170.5,301C 156.504,300.5 142.504,300.333 128.5,300.5C 128.5,295.167 128.5,289.833 128.5,284.5C 147.5,284.5 166.5,284.5 185.5,284.5C 185.5,286.5 185.5,288.5 185.5,290.5C 185.212,303.839 184.712,317.172 184,330.5C 183.062,332.488 182.228,334.488 181.5,336.5C 176.89,336.971 172.89,338.804 169.5,342C 157.583,355.815 147.917,371.148 140.5,388C 142.713,389.616 145.047,390.783 147.5,391.5C 146.504,391.414 145.671,391.748 145,392.5C 139.645,407.201 134.311,421.867 129,436.5C 127.107,446.709 130.607,454.375 139.5,459.5C 137.745,462.009 136.245,464.676 135,467.5C 134.829,475.677 134.329,483.677 133.5,491.5C 82.3707,388.99 82.8707,286.656 135,184.5C 142.543,170.807 151.043,157.807 160.5,145.5C 161.498,172.662 161.831,199.995 161.5,227.5C 204.167,227.5 246.833,227.5 289.5,227.5C 289.169,252.339 289.502,277.006 290.5,301.5C 291.833,303.5 293.5,305.167 295.5,306.5C 297.265,307.461 299.265,307.795 301.5,307.5C 301.187,311.042 301.521,314.375 302.5,317.5C 302.337,319.857 302.503,322.19 303,324.5C 304.045,323.627 304.878,322.627 305.5,321.5C 308.089,320.581 310.089,318.914 311.5,316.5C 314.764,314.906 317.431,312.573 319.5,309.5C 319.953,308.542 320.619,307.708 321.5,307C 346.833,306.667 372.167,306.333 397.5,306C 398.667,304.833 399.833,303.667 401,302.5C 401.667,267.833 401.667,233.167 401,198.5C 400.167,197.667 399.333,196.833 398.5,196C 375.169,195.5 351.836,195.333 328.5,195.5C 328.5,173.5 328.5,151.5 328.5,129.5C 348.836,129.667 369.169,129.5 389.5,129C 379.506,128.5 369.506,128.334 359.5,128.5C 359.5,123.167 359.5,117.833 359.5,112.5C 368.506,112.666 377.506,112.5 386.5,112C 377.173,111.5 367.839,111.334 358.5,111.5C 358.5,117.167 358.5,122.833 358.5,128.5C 348.5,128.5 338.5,128.5 328.5,128.5C 328.5,123.833 328.5,119.167 328.5,114.5C 281.664,114.832 234.997,114.499 188.5,113.5C 262.532,40.7614 351.532,9.59472 455.5,20C 516.57,27.5555 570.903,50.3889 618.5,88.5 Z"/></g>
<g><path style="opacity:1" fill="#ea8c41" d="M 60.5,33.5 C 88.5738,31.938 108.074,43.938 119,69.5C 124.709,94.545 117.209,114.378 96.5,129C 77.6042,139.312 58.9375,138.979 40.5,128C 16.9603,108.928 11.7936,85.7611 25,58.5C 33.6565,45.5939 45.4898,37.2606 60.5,33.5 Z"/></g>
<g><path style="opacity:1" fill="#465a63" d="M 618.5,88.5 C 631.504,88.3334 644.504,88.5001 657.5,89C 671.384,91.8847 680.551,100.051 685,113.5C 685.5,129.497 685.667,145.497 685.5,161.5C 686.291,188.83 686.957,216.163 687.5,243.5C 687.786,249.259 687.452,254.925 686.5,260.5C 685.501,345.998 685.167,431.665 685.5,517.5C 685.667,537.503 685.5,557.503 685,577.5C 680.531,592.302 670.698,601.135 655.5,604C 636.836,604.5 618.17,604.667 599.5,604.5C 551.166,604.667 502.832,604.5 454.5,604C 452.187,603.338 449.854,602.838 447.5,602.5C 445.754,614.239 441.92,625.239 436,635.5C 430.377,642.065 423.21,644.399 414.5,642.5C 408.833,642.5 403.167,642.5 397.5,642.5C 368.167,642.5 338.833,642.5 309.5,642.5C 285.878,641.52 262.212,641.187 238.5,641.5C 225.344,640.504 212.01,640.171 198.5,640.5C 192.833,640.5 187.167,640.5 181.5,640.5C 171.5,640.5 161.5,640.5 151.5,640.5C 147.939,636.397 145.106,631.73 143,626.5C 137.752,607.867 134.752,588.867 134,569.5C 133.5,543.502 133.333,517.502 133.5,491.5C 134.329,483.677 134.829,475.677 135,467.5C 136.245,464.676 137.745,462.009 139.5,459.5C 141.423,460.851 143.59,461.518 146,461.5C 155.577,459.594 162.577,454.26 167,445.5C 170.003,438.16 173.503,431.16 177.5,424.5C 181.644,439.888 184.644,455.555 186.5,471.5C 185.984,490.236 186.817,508.902 189,527.5C 189.504,531.02 191.337,533.52 194.5,535C 203.945,537.889 213.612,539.556 223.5,540C 253.167,541.623 282.834,543.123 312.5,544.5C 312.263,543.209 312.596,542.209 313.5,541.5C 313.611,542.117 313.944,542.617 314.5,543C 317.513,543.502 320.513,544.002 323.5,544.5C 323.286,546.144 323.62,547.644 324.5,549C 328.779,550.244 333.112,550.577 337.5,550C 338.056,549.617 338.389,549.117 338.5,548.5C 341.61,547.912 344.61,547.245 347.5,546.5C 366.175,546.379 384.842,545.879 403.5,545C 415.608,543.582 420.108,537.082 417,525.5C 414.353,519.088 409.52,516.088 402.5,516.5C 396.845,517.828 391.178,519.162 385.5,520.5C 389.399,519.352 392.899,517.352 396,514.5C 406.426,495.983 413.759,476.316 418,455.5C 419.119,447.574 415.952,442.074 408.5,439C 394.477,431.437 379.81,425.437 364.5,421C 354.938,418.977 345.271,418.143 335.5,418.5C 335.5,412.5 335.5,406.5 335.5,400.5C 352.86,400.201 370.193,400.701 387.5,402C 400.034,403.3 412.034,406.466 423.5,411.5C 423.56,412.043 423.893,412.376 424.5,412.5C 425.831,366.335 425.831,320.335 424.5,274.5C 423.039,260.281 423.372,245.948 425.5,231.5C 422.976,213.846 422.976,196.18 425.5,178.5C 424.819,157.84 424.985,137.174 426,116.5C 429.833,102 439,92.8333 453.5,89C 508.499,88.5 563.499,88.3333 618.5,88.5 Z"/></g>
<g><path style="opacity:1" fill="#2c383e" d="M 451.5,591.5 C 520.812,592.653 590.145,592.82 659.5,592C 666.181,589.987 671.014,585.82 674,579.5C 675.662,423.222 675.996,266.889 675,110.5C 672.002,102.836 666.502,98.0029 658.5,96C 643.5,95.3333 628.5,95.3333 613.5,96C 610.438,97.0608 607.938,98.8941 606,101.5C 605.028,109.292 600.862,114.458 593.5,117C 568.167,117.667 542.833,117.667 517.5,117C 514.461,115.969 511.961,114.135 510,111.5C 508.713,107.63 507.047,103.964 505,100.5C 503.421,98.9588 501.587,97.7922 499.5,97C 484.902,95.3838 470.235,95.0505 455.5,96C 444.843,99.4894 438.176,106.656 435.5,117.5C 434.833,217.5 434.167,317.5 433.5,417.5C 432.518,416.859 431.518,416.193 430.5,415.5C 429.333,316.168 429.167,216.835 430,117.5C 432.815,104.018 440.982,95.8513 454.5,93C 521.833,92.3333 589.167,92.3333 656.5,93C 668.729,95.5632 676.895,102.73 681,114.5C 681.994,269.876 681.661,425.209 680,580.5C 676.336,590.163 669.503,596.33 659.5,599C 590.167,599.667 520.833,599.667 451.5,599C 450.376,598.161 449.709,596.994 449.5,595.5C 449.34,593.645 450.007,592.312 451.5,591.5 Z"/></g>
<g><path style="opacity:1" fill="#fdfdfd" d="M 451.5,591.5 C 451.018,590.584 450.685,589.584 450.5,588.5C 455.486,555.687 458.486,522.687 459.5,489.5C 527.167,489.5 594.833,489.5 662.5,489.5C 662.5,471.167 662.5,452.833 662.5,434.5C 590.833,434.5 519.167,434.5 447.5,434.5C 444.654,428.318 440.654,422.985 435.5,418.5C 435.5,318.167 435.5,217.833 435.5,117.5C 438.176,106.656 444.843,99.4894 455.5,96C 470.235,95.0505 484.902,95.3838 499.5,97C 501.587,97.7922 503.421,98.9588 505,100.5C 507.047,103.964 508.713,107.63 510,111.5C 511.961,114.135 514.461,115.969 517.5,117C 542.833,117.667 568.167,117.667 593.5,117C 600.862,114.458 605.028,109.292 606,101.5C 607.938,98.8941 610.438,97.0608 613.5,96C 628.5,95.3333 643.5,95.3333 658.5,96C 666.502,98.0029 672.002,102.836 675,110.5C 675.996,266.889 675.662,423.222 674,579.5C 671.014,585.82 666.181,589.987 659.5,592C 590.145,592.82 520.812,592.653 451.5,591.5 Z"/></g>
<g><path style="opacity:1" fill="#425761" d="M 534.5,103.5 C 548.504,103.333 562.504,103.5 576.5,104C 577.86,105.938 577.527,107.604 575.5,109C 562.167,109.667 548.833,109.667 535.5,109C 534.594,107.301 534.261,105.467 534.5,103.5 Z"/></g>
<g><path style="opacity:1" fill="#495358" d="M 626.5,109.5 C 627.693,109.97 628.36,110.97 628.5,112.5C 628.167,113.5 627.833,114.5 627.5,115.5C 626.534,113.604 626.201,111.604 626.5,109.5 Z"/></g>
<g><path style="opacity:1" fill="#253237" d="M 623.5,111.5 C 624.586,111.62 625.253,112.287 625.5,113.5C 625.167,114.167 624.833,114.833 624.5,115.5C 623.571,114.311 623.238,112.978 623.5,111.5 Z"/></g>
<g><path style="opacity:1" fill="#e4bd9e" d="M 328.5,129.5 C 328.5,129.167 328.5,128.833 328.5,128.5C 338.5,128.5 348.5,128.5 358.5,128.5C 358.5,122.833 358.5,117.167 358.5,111.5C 367.839,111.334 377.173,111.5 386.5,112C 377.506,112.5 368.506,112.666 359.5,112.5C 359.5,117.833 359.5,123.167 359.5,128.5C 369.506,128.334 379.506,128.5 389.5,129C 369.169,129.5 348.836,129.667 328.5,129.5 Z"/></g>
<g><path style="opacity:1" fill="#2e3a40" d="M 620.5,112.5 C 622.465,112.948 622.798,113.948 621.5,115.5C 620.614,114.675 620.281,113.675 620.5,112.5 Z"/></g>
<g><path style="opacity:1" fill="#747c80" d="M 632.5,109.5 C 635.649,109.211 638.649,109.711 641.5,111C 639.667,112.833 637.833,114.667 636,116.5C 634.152,114.982 632.652,113.149 631.5,111C 632.056,110.617 632.389,110.117 632.5,109.5 Z"/></g>
<g><path style="opacity:1" fill="#e4c0a5" d="M 188.5,113.5 C 234.997,114.499 281.664,114.832 328.5,114.5C 328.5,119.167 328.5,123.833 328.5,128.5C 327.515,124.366 327.182,120.032 327.5,115.5C 280.664,115.832 233.997,115.499 187.5,114.5C 187.5,113.833 187.833,113.5 188.5,113.5 Z"/></g>
<g><path style="opacity:1" fill="#bfc3c5" d="M 645.5,109.5 C 648.518,109.335 651.518,109.502 654.5,110C 657.167,112 657.167,114 654.5,116C 651.5,116.667 648.5,116.667 645.5,116C 644.232,113.837 644.232,111.67 645.5,109.5 Z"/></g>
<g><path style="opacity:1" fill="#253237" d="M 646.5,111.5 C 648.833,111.5 651.167,111.5 653.5,111.5C 653.5,112.5 653.5,113.5 653.5,114.5C 651.167,114.5 648.833,114.5 646.5,114.5C 646.5,113.5 646.5,112.5 646.5,111.5 Z"/></g>
<g><path style="opacity:1" fill="#e2e1e1" d="M 187.5,114.5 C 233.997,115.499 280.664,115.832 327.5,115.5C 327.182,120.032 327.515,124.366 328.5,128.5C 328.5,128.833 328.5,129.167 328.5,129.5C 328.5,151.5 328.5,173.5 328.5,195.5C 326.167,195.5 323.833,195.5 321.5,195.5C 321.833,169.825 321.5,144.158 320.5,118.5C 315.811,121.153 315.477,120.653 319.5,117C 268.167,116.333 216.833,116.333 165.5,117C 167.792,118.29 169.792,119.957 171.5,122C 168.854,121.08 166.354,119.58 164,117.5C 163.5,153.498 163.333,189.498 163.5,225.5C 205.5,225.5 247.5,225.5 289.5,225.5C 289.5,221.5 289.5,217.5 289.5,213.5C 289.5,212.833 289.5,212.167 289.5,211.5C 289.335,207.818 289.501,204.152 290,200.5C 290.5,209.16 290.666,217.827 290.5,226.5C 247.833,226.5 205.167,226.5 162.5,226.5C 162.831,198.995 162.498,171.662 161.5,144.5C 161.5,134.5 161.5,124.5 161.5,114.5C 170.167,114.5 178.833,114.5 187.5,114.5 Z"/></g>
<g><path style="opacity:1" fill="#fdfdfd" d="M 328.5,195.5 C 351.836,195.333 375.169,195.5 398.5,196C 399.333,196.833 400.167,197.667 401,198.5C 401.667,233.167 401.667,267.833 401,302.5C 399.833,303.667 398.667,304.833 397.5,306C 372.167,306.333 346.833,306.667 321.5,307C 320.619,307.708 319.953,308.542 319.5,309.5C 316.236,311.094 313.569,313.427 311.5,316.5C 308.911,317.419 306.911,319.086 305.5,321.5C 304.022,320.552 303.022,319.219 302.5,317.5C 302.5,313.833 302.5,310.167 302.5,306.5C 300.167,306.5 297.833,306.5 295.5,306.5C 293.5,305.167 291.833,303.5 290.5,301.5C 290.5,276.5 290.5,251.5 290.5,226.5C 290.666,217.827 290.5,209.16 290,200.5C 289.501,204.152 289.335,207.818 289.5,211.5C 253.167,211.5 216.833,211.5 180.5,211.5C 180.5,184.5 180.5,157.5 180.5,130.5C 215.49,129.737 250.49,129.237 285.5,129C 248.944,128.981 212.611,128.314 176.5,127C 177,127.5 177.5,128 178,128.5C 178.346,156.839 178.846,185.172 179.5,213.5C 216.167,213.5 252.833,213.5 289.5,213.5C 289.5,217.5 289.5,221.5 289.5,225.5C 247.5,225.5 205.5,225.5 163.5,225.5C 163.333,189.498 163.5,153.498 164,117.5C 166.354,119.58 168.854,121.08 171.5,122C 169.792,119.957 167.792,118.29 165.5,117C 216.833,116.333 268.167,116.333 319.5,117C 315.477,120.653 315.811,121.153 320.5,118.5C 321.5,144.158 321.833,169.825 321.5,195.5C 323.833,195.5 326.167,195.5 328.5,195.5 Z"/></g>
<g><path style="opacity:1" fill="#404b50" d="M 435.5,117.5 C 435.5,217.833 435.5,318.167 435.5,418.5C 434.508,418.672 433.842,418.338 433.5,417.5C 434.167,317.5 434.833,217.5 435.5,117.5 Z"/></g>
<g><path style="opacity:1" fill="#999ea1" d="M 568.5,144.5 C 569.209,143.596 570.209,143.263 571.5,143.5C 571.817,147.702 571.483,151.702 570.5,155.5C 571.08,151.351 570.414,147.684 568.5,144.5 Z"/></g>
<g><path style="opacity:1" fill="#475156" d="M 531.5,144.5 C 534.572,144.183 537.572,144.516 540.5,145.5C 538.604,146.466 536.604,146.799 534.5,146.5C 534.5,147.5 534.5,148.5 534.5,149.5C 541.167,150.167 541.167,150.833 534.5,151.5C 534.5,152.833 534.5,154.167 534.5,155.5C 533.5,155.5 532.5,155.5 531.5,155.5C 531.5,151.833 531.5,148.167 531.5,144.5 Z"/></g>
<g><path style="opacity:1" fill="#3e494e" d="M 542.5,147.5 C 547.993,146.178 550.493,148.178 550,153.5C 542.642,157.527 540.142,155.527 542.5,147.5 Z"/></g>
<g><path style="opacity:1" fill="#e6e7e8" d="M 543.5,149.5 C 544.833,149.5 546.167,149.5 547.5,149.5C 547.5,150.833 547.5,152.167 547.5,153.5C 546.167,153.5 544.833,153.5 543.5,153.5C 543.5,152.167 543.5,150.833 543.5,149.5 Z"/></g>
<g><path style="opacity:1" fill="#384349" d="M 568.5,144.5 C 570.414,147.684 571.08,151.351 570.5,155.5C 566.713,156.186 563.546,155.186 561,152.5C 558.472,156.085 555.472,156.418 552,153.5C 551.336,148.504 553.502,146.67 558.5,148C 559.333,148.833 560.167,149.667 561,150.5C 562.848,147.959 565.348,146.959 568.5,147.5C 568.5,146.5 568.5,145.5 568.5,144.5 Z"/></g>
<g><path style="opacity:1" fill="#eaebec" d="M 554.5,149.5 C 557.5,149.167 558.833,150.5 558.5,153.5C 557.167,153.5 555.833,153.5 554.5,153.5C 554.5,152.167 554.5,150.833 554.5,149.5 Z"/></g>
<g><path style="opacity:1" fill="#eaebec" d="M 564.5,149.5 C 565.833,149.5 567.167,149.5 568.5,149.5C 568.5,150.833 568.5,152.167 568.5,153.5C 567.167,153.5 565.833,153.5 564.5,153.5C 564.5,152.167 564.5,150.833 564.5,149.5 Z"/></g>
<g><path style="opacity:1" fill="#e0e0e0" d="M 205.5,155.5 C 231.833,155.5 258.167,155.5 284.5,155.5C 284.5,164.833 284.5,174.167 284.5,183.5C 258.167,183.5 231.833,183.5 205.5,183.5C 205.5,174.167 205.5,164.833 205.5,155.5 Z"/></g>
<g><path style="opacity:1" fill="#e98c41" d="M 685.5,161.5 C 729.509,227.883 746.675,300.883 737,380.5C 730.597,429.286 714.097,474.286 687.5,515.5C 686.501,430.668 686.167,345.668 686.5,260.5C 698.5,260.5 710.5,260.5 722.5,260.5C 722.5,254.833 722.5,249.167 722.5,243.5C 710.833,243.5 699.167,243.5 687.5,243.5C 686.957,216.163 686.291,188.83 685.5,161.5 Z"/></g>
<g><path style="opacity:1" fill="#e9e8e8" d="M 498.5,179.5 C 505.982,180.492 513.648,180.825 521.5,180.5C 521.5,182.833 521.5,185.167 521.5,187.5C 520.657,189.487 519.99,191.654 519.5,194C 520.148,211.973 520.814,229.807 521.5,247.5C 521.5,249.167 521.5,250.833 521.5,252.5C 495.995,252.169 470.661,252.502 445.5,253.5C 444.842,252.207 444.508,250.707 444.5,249C 445.416,225.844 446.083,202.677 446.5,179.5C 463.833,179.5 481.167,179.5 498.5,179.5 Z"/></g>
<g><path style="opacity:1" fill="#fefdfd" d="M 521.5,180.5 C 568.5,180.5 615.5,180.5 662.5,180.5C 662.5,204.5 662.5,228.5 662.5,252.5C 615.5,252.5 568.5,252.5 521.5,252.5C 521.5,250.833 521.5,249.167 521.5,247.5C 521.5,227.5 521.5,207.5 521.5,187.5C 521.5,185.167 521.5,182.833 521.5,180.5 Z"/></g>
<g><path style="opacity:1" fill="#ffaf3a" d="M 792.5,179.5 C 802.685,179.834 806.519,184.834 804,194.5C 799.225,200.125 793.891,200.792 788,196.5C 783.553,189.138 785.053,183.472 792.5,179.5 Z"/></g>
<g><path style="opacity:1" fill="#8a4a3c" d="M 487.5,191.5 C 486.5,191.5 485.5,191.5 484.5,191.5C 484.5,190.5 484.5,189.5 484.5,188.5C 485.5,188.5 486.5,188.5 487.5,188.5C 487.5,189.5 487.5,190.5 487.5,191.5 Z"/></g>
<g><path style="opacity:1" fill="#985b4a" d="M 498.5,193.5 C 497.5,193.5 496.5,193.5 495.5,193.5C 495.854,189.141 497.188,188.641 499.5,192C 499.43,192.765 499.097,193.265 498.5,193.5 Z"/></g>
<g><path style="opacity:1" fill="#d06a23" d="M 484.5,191.5 C 485.5,191.5 486.5,191.5 487.5,191.5C 487.5,192.5 487.5,193.5 487.5,194.5C 486.5,194.5 485.5,194.5 484.5,194.5C 484.5,193.5 484.5,192.5 484.5,191.5 Z"/></g>
<g><path style="opacity:1" fill="#e0782c" d="M 495.5,193.5 C 496.5,193.5 497.5,193.5 498.5,193.5C 498.672,194.492 498.338,195.158 497.5,195.5C 496.5,195.5 495.5,195.5 494.5,195.5C 494.328,194.508 494.662,193.842 495.5,193.5 Z"/></g>
<g><path style="opacity:1" fill="#e36c09" d="M 577.5,193.5 C 577.5,195.167 577.5,196.833 577.5,198.5C 563.5,198.5 549.5,198.5 535.5,198.5C 535.5,196.833 535.5,195.167 535.5,193.5C 549.5,193.5 563.5,193.5 577.5,193.5 Z"/></g>
<g><path style="opacity:1" fill="#925649" d="M 484.5,194.5 C 485.5,194.5 486.5,194.5 487.5,194.5C 487.666,199.511 487.499,204.511 487,209.5C 486.586,209.957 486.086,210.291 485.5,210.5C 484.505,205.208 484.172,199.875 484.5,194.5 Z"/></g>
<g><path style="opacity:1" fill="#d2a27b" d="M 160.5,145.5 C 160.5,144.833 160.833,144.5 161.5,144.5C 162.498,171.662 162.831,198.995 162.5,226.5C 205.167,226.5 247.833,226.5 290.5,226.5C 290.5,251.5 290.5,276.5 290.5,301.5C 289.502,277.006 289.169,252.339 289.5,227.5C 246.833,227.5 204.167,227.5 161.5,227.5C 161.831,199.995 161.498,172.662 160.5,145.5 Z"/></g>
<g><path style="opacity:1" fill="#935647" d="M 494.5,195.5 C 495.5,195.5 496.5,195.5 497.5,195.5C 496.446,199.935 495.113,204.268 493.5,208.5C 492.325,208.719 491.325,208.386 490.5,207.5C 492.039,203.55 493.372,199.55 494.5,195.5 Z"/></g>
<g><path style="opacity:1" fill="#eca062" d="M 577.5,193.5 C 578.461,195.265 578.795,197.265 578.5,199.5C 563.99,199.829 549.657,199.496 535.5,198.5C 549.5,198.5 563.5,198.5 577.5,198.5C 577.5,196.833 577.5,195.167 577.5,193.5 Z"/></g>
<g><path style="opacity:1" fill="#e1e1e1" d="M 535.5,207.5 C 573.5,207.5 611.5,207.5 649.5,207.5C 649.5,208.833 649.5,210.167 649.5,211.5C 611.5,211.5 573.5,211.5 535.5,211.5C 535.5,210.167 535.5,208.833 535.5,207.5 Z"/></g>
<g><path style="opacity:1" fill="#844031" d="M 351.5,214.5 C 350.167,214.5 348.833,214.5 347.5,214.5C 347.5,212.833 347.5,211.167 347.5,209.5C 348.833,209.5 350.167,209.5 351.5,209.5C 351.5,211.167 351.5,212.833 351.5,214.5 Z"/></g>
<g><path style="opacity:1" fill="#8c9296" d="M 521.5,187.5 C 521.5,207.5 521.5,227.5 521.5,247.5C 520.814,229.807 520.148,211.973 519.5,194C 519.99,191.654 520.657,189.487 521.5,187.5 Z"/></g>
<g><path style="opacity:1" fill="#f2f2f2" d="M 289.5,211.5 C 289.5,212.167 289.5,212.833 289.5,213.5C 252.833,213.5 216.167,213.5 179.5,213.5C 178.846,185.172 178.346,156.839 178,128.5C 177.5,128 177,127.5 176.5,127C 212.611,128.314 248.944,128.981 285.5,129C 250.49,129.237 215.49,129.737 180.5,130.5C 180.5,157.5 180.5,184.5 180.5,211.5C 216.833,211.5 253.167,211.5 289.5,211.5 Z"/></g>
<g><path style="opacity:1" fill="#915140" d="M 367.5,217.5 C 366.292,216.766 364.959,216.433 363.5,216.5C 364.112,211.347 366.112,210.514 369.5,214C 369.192,215.459 368.525,216.626 367.5,217.5 Z"/></g>
<g><path style="opacity:1" fill="#da6710" d="M 347.5,214.5 C 348.833,214.5 350.167,214.5 351.5,214.5C 351.5,215.833 351.5,217.167 351.5,218.5C 350.167,218.5 348.833,218.5 347.5,218.5C 347.5,217.167 347.5,215.833 347.5,214.5 Z"/></g>
<g><path style="opacity:1" fill="#e2e2e2" d="M 535.5,215.5 C 573.167,215.5 610.833,215.5 648.5,215.5C 648.5,216.833 648.5,218.167 648.5,219.5C 610.833,219.5 573.167,219.5 535.5,219.5C 535.5,218.167 535.5,216.833 535.5,215.5 Z"/></g>
<g><path style="opacity:1" fill="#de701d" d="M 363.5,216.5 C 364.959,216.433 366.292,216.766 367.5,217.5C 367.737,218.791 367.404,219.791 366.5,220.5C 365.041,220.567 363.708,220.234 362.5,219.5C 362.557,218.391 362.89,217.391 363.5,216.5 Z"/></g>
<g><path style="opacity:1" fill="#e36c0d" d="M 466.5,215.5 C 467.5,215.5 468.5,215.5 469.5,215.5C 479.319,216.494 489.319,216.827 499.5,216.5C 499.583,220.335 498.917,224.002 497.5,227.5C 496.069,233.418 495.069,239.418 494.5,245.5C 486.833,245.5 479.167,245.5 471.5,245.5C 471.04,239.186 469.707,233.186 467.5,227.5C 466.979,223.519 466.646,219.519 466.5,215.5 Z"/></g>
<g><path style="opacity:1" fill="#9ea4a6" d="M 330.5,215.5 C 333.428,217.124 334.095,219.457 332.5,222.5C 332.741,220.182 332.074,217.848 330.5,215.5 Z"/></g>
<g><path style="opacity:1" fill="#ad5e20" d="M 469.5,215.5 C 479.855,215.168 490.188,215.501 500.5,216.5C 502.632,219.896 503.965,223.563 504.5,227.5C 502.167,227.5 499.833,227.5 497.5,227.5C 498.917,224.002 499.583,220.335 499.5,216.5C 489.319,216.827 479.319,216.494 469.5,215.5 Z"/></g>
<g><path style="opacity:1" fill="#854233" d="M 347.5,218.5 C 348.833,218.5 350.167,218.5 351.5,218.5C 351.5,225.833 351.5,233.167 351.5,240.5C 350.504,240.414 349.671,240.748 349,241.5C 348.817,238.635 348.317,235.969 347.5,233.5C 347.5,228.5 347.5,223.5 347.5,218.5 Z"/></g>
<g><path style="opacity:1" fill="#8d4d3e" d="M 362.5,219.5 C 363.708,220.234 365.041,220.567 366.5,220.5C 364.302,226.426 362.302,232.426 360.5,238.5C 359.022,238.762 357.689,238.429 356.5,237.5C 358.308,231.409 360.308,225.409 362.5,219.5 Z"/></g>
<g><path style="opacity:1" fill="#a65415" d="M 466.5,215.5 C 466.646,219.519 466.979,223.519 467.5,227.5C 465.143,227.663 462.81,227.497 460.5,227C 462.132,222.9 464.132,219.067 466.5,215.5 Z"/></g>
<g><path style="opacity:1" fill="#a0a5a8" d="M 605.5,225.5 C 620.167,225.5 634.833,225.5 649.5,225.5C 649.666,231.509 649.499,237.509 649,243.5C 648.83,237.804 648.33,232.138 647.5,226.5C 633.883,227.482 620.216,227.815 606.5,227.5C 606.5,233.833 606.5,240.167 606.5,246.5C 613.508,246.334 620.508,246.5 627.5,247C 620.174,247.5 612.841,247.666 605.5,247.5C 605.5,240.167 605.5,232.833 605.5,225.5 Z"/></g>
<g><path style="opacity:1" fill="#b15509" d="M 494.5,224.5 C 495.705,225.672 495.705,227.005 494.5,228.5C 490.833,228.833 487.167,229.167 483.5,229.5C 479.321,229.636 475.321,229.136 471.5,228C 478.833,227.667 486.167,227.333 493.5,227C 494.252,226.329 494.586,225.496 494.5,224.5 Z"/></g>
<g><path style="opacity:1" fill="#eb8a41" d="M 627.5,232.5 C 634.021,232.238 635.021,234.405 630.5,239C 631.624,239.249 632.624,239.749 633.5,240.5C 631.167,241.833 628.833,241.833 626.5,240.5C 627.833,238.833 629.167,237.167 630.5,235.5C 629.271,234.719 627.938,234.219 626.5,234C 627.056,233.617 627.389,233.117 627.5,232.5 Z"/></g>
<g><path style="opacity:1" fill="#ed924e" d="M 614.5,233.5 C 616.078,234.066 617.412,235.066 618.5,236.5C 617.478,237.354 616.645,238.354 616,239.5C 615.1,238.23 613.934,237.23 612.5,236.5C 613.612,235.735 614.279,234.735 614.5,233.5 Z"/></g>
<g><path style="opacity:1" fill="#f1aa72" d="M 641.5,236.5 C 642.978,236.238 644.311,236.571 645.5,237.5C 644.833,237.833 644.167,238.167 643.5,238.5C 642.287,238.253 641.62,237.586 641.5,236.5 Z"/></g>
<g><path style="opacity:1" fill="#c6c7c8" d="M 347.5,233.5 C 348.317,235.969 348.817,238.635 349,241.5C 349.671,240.748 350.504,240.414 351.5,240.5C 355.637,240.146 359.637,240.646 363.5,242C 364.872,243.242 365.872,244.742 366.5,246.5C 366.154,247.696 365.654,247.696 365,246.5C 364.536,247.094 364.369,247.761 364.5,248.5C 362.064,248.683 359.897,248.016 358,246.5C 355.367,248.16 352.534,248.66 349.5,248C 350.167,247.667 350.833,247.333 351.5,247C 346.979,247.122 342.979,245.789 339.5,243C 342.047,243.339 344.547,244.173 347,245.5C 348.225,245.138 349.391,244.638 350.5,244C 344.945,242.635 339.445,241.135 334,239.5C 331.949,239.423 330.116,239.923 328.5,241C 330.095,240.383 331.428,240.716 332.5,242C 331.833,242.333 331.167,242.667 330.5,243C 336.182,243.505 341.515,245.172 346.5,248C 343.83,248.543 341.33,248.043 339,246.5C 338.5,246.667 338,246.833 337.5,247C 339.066,247.608 340.4,248.442 341.5,249.5C 334.833,249.5 328.167,249.5 321.5,249.5C 323.971,239.588 330.304,235.754 340.5,238C 342.664,238.914 344.664,240.081 346.5,241.5C 347.48,238.914 347.813,236.247 347.5,233.5 Z"/></g>
<g><path style="opacity:1" fill="#283338" d="M 272.5,354.5 C 272.666,358.846 272.499,363.179 272,367.5C 266.044,373.096 260.544,372.596 255.5,366C 247.79,366.623 243.29,363.123 242,355.5C 241.501,350.511 241.334,345.511 241.5,340.5C 242.326,329.187 242.66,317.854 242.5,306.5C 250.975,305.224 253.475,300.557 250,292.5C 244.989,288.069 240.823,288.736 237.5,294.5C 233.093,291.581 229.927,287.581 228,282.5C 226.798,279.226 225.798,275.893 225,272.5C 221.589,271.707 218.089,271.207 214.5,271C 217.278,269.608 220.278,269.108 223.5,269.5C 218.208,250.228 208.708,248.228 195,263.5C 193.392,266.382 192.059,269.382 191,272.5C 190.333,284.833 190.333,297.167 191,309.5C 193.352,318.351 198.852,324.017 207.5,326.5C 207.5,327.833 207.5,329.167 207.5,330.5C 207.5,331.5 207.5,332.5 207.5,333.5C 198.793,334.172 190.126,335.172 181.5,336.5C 182.228,334.488 183.062,332.488 184,330.5C 184.712,317.172 185.212,303.839 185.5,290.5C 186.468,288.393 186.802,286.059 186.5,283.5C 187.164,278.527 187.497,273.527 187.5,268.5C 188.404,267.791 188.737,266.791 188.5,265.5C 189.355,262.825 190.522,260.158 192,257.5C 206.51,242.567 223.343,239.4 242.5,248C 252.566,255.621 258.4,265.787 260,278.5C 261.912,290.8 263.579,303.133 265,315.5C 267.589,328.609 270.089,341.609 272.5,354.5 Z"/></g>
<g><path style="opacity:1" fill="#e9e8e8" d="M 687.5,243.5 C 699.167,243.5 710.833,243.5 722.5,243.5C 722.5,249.167 722.5,254.833 722.5,260.5C 710.5,260.5 698.5,260.5 686.5,260.5C 687.452,254.925 687.786,249.259 687.5,243.5 Z"/></g>
<g><path style="opacity:1" fill="#8e9396" d="M 364.5,248.5 C 367.082,248.025 369.082,248.692 370.5,250.5C 369.833,250.167 369.167,249.833 368.5,249.5C 359.5,249.5 350.5,249.5 341.5,249.5C 340.4,248.442 339.066,247.608 337.5,247C 338,246.833 338.5,246.667 339,246.5C 341.33,248.043 343.83,248.543 346.5,248C 341.515,245.172 336.182,243.505 330.5,243C 331.167,242.667 331.833,242.333 332.5,242C 331.428,240.716 330.095,240.383 328.5,241C 330.116,239.923 331.949,239.423 334,239.5C 339.445,241.135 344.945,242.635 350.5,244C 349.391,244.638 348.225,245.138 347,245.5C 344.547,244.173 342.047,243.339 339.5,243C 342.979,245.789 346.979,247.122 351.5,247C 350.833,247.333 350.167,247.667 349.5,248C 352.534,248.66 355.367,248.16 358,246.5C 359.897,248.016 362.064,248.683 364.5,248.5 Z"/></g>
<g><path style="opacity:1" fill="#a5510e" d="M 321.5,249.5 C 321.606,255.088 322.273,260.755 323.5,266.5C 320.167,266.5 316.833,266.5 313.5,266.5C 314.702,262.422 316.202,258.422 318,254.5C 318.697,252.416 319.864,250.749 321.5,249.5 Z"/></g>
<g><path style="opacity:1" fill="#a65618" d="M 368.5,249.5 C 369.167,249.833 369.833,250.167 370.5,250.5C 373.093,255.353 375.426,260.353 377.5,265.5C 373.893,266.489 370.226,266.823 366.5,266.5C 367.209,262.473 367.709,258.473 368,254.5C 367.392,256.066 366.558,257.4 365.5,258.5C 365.167,258.5 364.833,258.5 364.5,258.5C 366.105,255.622 367.439,252.622 368.5,249.5 Z"/></g>
<g><path style="opacity:1" fill="#8b9194" d="M 498.5,179.5 C 553.833,179.5 609.167,179.5 664.5,179.5C 664.5,204.167 664.5,228.833 664.5,253.5C 591.5,253.5 518.5,253.5 445.5,253.5C 470.661,252.502 495.995,252.169 521.5,252.5C 568.5,252.5 615.5,252.5 662.5,252.5C 662.5,228.5 662.5,204.5 662.5,180.5C 615.5,180.5 568.5,180.5 521.5,180.5C 513.648,180.825 505.982,180.492 498.5,179.5 Z"/></g>
<g><path style="opacity:1" fill="#fabb9a" d="M 241.5,340.5 C 230.124,338.382 218.791,336.048 207.5,333.5C 207.5,332.5 207.5,331.5 207.5,330.5C 216.178,331.17 223.178,328.17 228.5,321.5C 228.333,321.167 228.167,320.833 228,320.5C 221.682,324.217 214.848,326.217 207.5,326.5C 198.852,324.017 193.352,318.351 191,309.5C 190.333,297.167 190.333,284.833 191,272.5C 192.059,269.382 193.392,266.382 195,263.5C 208.708,248.228 218.208,250.228 223.5,269.5C 220.278,269.108 217.278,269.608 214.5,271C 218.089,271.207 221.589,271.707 225,272.5C 225.798,275.893 226.798,279.226 228,282.5C 229.927,287.581 233.093,291.581 237.5,294.5C 240.823,288.736 244.989,288.069 250,292.5C 253.475,300.557 250.975,305.224 242.5,306.5C 242.66,317.854 242.326,329.187 241.5,340.5 Z"/></g>
<g><path style="opacity:1" fill="#e26d10" d="M 321.5,249.5 C 328.167,249.5 334.833,249.5 341.5,249.5C 350.5,249.5 359.5,249.5 368.5,249.5C 367.439,252.622 366.105,255.622 364.5,258.5C 363.18,261.14 361.847,263.807 360.5,266.5C 350.183,267.332 339.849,267.832 329.5,268C 340.182,268.832 350.849,268.666 361.5,267.5C 363.12,264.596 364.453,261.596 365.5,258.5C 366.558,257.4 367.392,256.066 368,254.5C 367.709,258.473 367.209,262.473 366.5,266.5C 364.651,275.413 363.318,284.413 362.5,293.5C 351.167,293.5 339.833,293.5 328.5,293.5C 327.21,284.385 325.543,275.385 323.5,266.5C 322.273,260.755 321.606,255.088 321.5,249.5 Z"/></g>
<g><path style="opacity:1" fill="#e8e8e8" d="M 488.5,260.5 C 499.321,261.495 510.321,261.828 521.5,261.5C 521.5,285.5 521.5,309.5 521.5,333.5C 496.328,333.169 471.328,333.502 446.5,334.5C 445.756,310.001 445.756,285.335 446.5,260.5C 460.5,260.5 474.5,260.5 488.5,260.5 Z"/></g>
<g><path style="opacity:1" fill="#fefefd" d="M 521.5,261.5 C 568.5,261.5 615.5,261.5 662.5,261.5C 662.5,285.5 662.5,309.5 662.5,333.5C 615.5,333.5 568.5,333.5 521.5,333.5C 521.5,309.5 521.5,285.5 521.5,261.5 Z"/></g>
<g><path style="opacity:1" fill="#ac794d" d="M 686.5,260.5 C 686.167,345.668 686.501,430.668 687.5,515.5C 687.167,516.5 686.5,517.167 685.5,517.5C 685.167,431.665 685.501,345.998 686.5,260.5 Z"/></g>
<g><path style="opacity:1" fill="#e88c41" d="M 187.5,268.5 C 187.497,273.527 187.164,278.527 186.5,283.5C 178.833,283.5 171.167,283.5 163.5,283.5C 163.5,278.167 163.5,272.833 163.5,267.5C 171.684,267.174 179.684,267.508 187.5,268.5 Z"/></g>
<g><path style="opacity:1" fill="#5a391d" d="M 364.5,258.5 C 364.833,258.5 365.167,258.5 365.5,258.5C 364.453,261.596 363.12,264.596 361.5,267.5C 350.849,268.666 340.182,268.832 329.5,268C 339.849,267.832 350.183,267.332 360.5,266.5C 361.847,263.807 363.18,261.14 364.5,258.5 Z"/></g>
<g><path style="opacity:1" fill="#4f4c4a" d="M 195.5,269.5 C 197.665,269.116 199.332,269.783 200.5,271.5C 198.167,272.833 195.833,272.833 193.5,271.5C 194.243,270.818 194.909,270.151 195.5,269.5 Z"/></g>
<g><path style="opacity:1" fill="#eea569" d="M 577.5,279.5 C 577.5,277.833 577.5,276.167 577.5,274.5C 563.5,274.5 549.5,274.5 535.5,274.5C 535.5,276.167 535.5,277.833 535.5,279.5C 534.539,277.735 534.205,275.735 534.5,273.5C 549.167,273.5 563.833,273.5 578.5,273.5C 578.795,275.735 578.461,277.735 577.5,279.5 Z"/></g>
<g><path style="opacity:1" fill="#a9b1b6" d="M 479.5,265.5 C 480.552,265.351 481.552,265.517 482.5,266C 482.564,271.428 482.23,276.928 481.5,282.5C 479.717,277.001 479.05,271.334 479.5,265.5 Z"/></g>
<g><path style="opacity:1" fill="#e36c09" d="M 577.5,279.5 C 563.5,279.5 549.5,279.5 535.5,279.5C 535.5,277.833 535.5,276.167 535.5,274.5C 549.5,274.5 563.5,274.5 577.5,274.5C 577.5,276.167 577.5,277.833 577.5,279.5 Z"/></g>
<g><path style="opacity:1" fill="#d48545" d="M 424.5,274.5 C 425.831,320.335 425.831,366.335 424.5,412.5C 423.893,412.376 423.56,412.043 423.5,411.5C 424.499,366.003 424.832,320.336 424.5,274.5 Z"/></g>
<g><path style="opacity:1" fill="#635a54" d="M 195.5,279.5 C 197.429,279.231 199.095,279.731 200.5,281C 198.167,281.667 195.833,281.667 193.5,281C 194.416,280.722 195.082,280.222 195.5,279.5 Z"/></g>
<g><path style="opacity:1" fill="#635954" d="M 218.5,279.5 C 220.429,279.231 222.095,279.731 223.5,281C 221.121,281.614 218.788,281.947 216.5,282C 217.381,281.292 218.047,280.458 218.5,279.5 Z"/></g>
<g><path style="opacity:1" fill="#7d6a60" d="M 206.5,282.5 C 207.097,282.735 207.43,283.235 207.5,284C 206.025,288.759 204.359,293.426 202.5,298C 207.541,299.008 207.208,299.508 201.5,299.5C 202.867,293.76 204.534,288.093 206.5,282.5 Z"/></g>
<g><path style="opacity:1" fill="#d6cdc7" d="M 493.5,291.5 C 493.209,290.351 492.376,289.684 491,289.5C 489.93,289.528 489.097,289.861 488.5,290.5C 481.966,290.233 475.632,290.233 469.5,290.5C 469.467,294.869 469.8,299.202 470.5,303.5C 470.5,304.167 470.5,304.833 470.5,305.5C 468.73,299.045 467.896,292.379 468,285.5C 471.744,286.626 475.577,286.793 479.5,286C 478.167,285.667 476.833,285.333 475.5,285C 475.833,284.667 476.167,284.333 476.5,284C 480.167,283.667 483.833,283.333 487.5,283C 484.937,282.237 484.937,281.737 487.5,281.5C 489,281.453 490,282.119 490.5,283.5C 488.453,285.015 486.119,285.849 483.5,286C 486.713,286.703 489.879,286.536 493,285.5C 495.82,287.216 495.987,289.216 493.5,291.5 Z"/></g>
<g><path style="opacity:1" fill="#3c4042" d="M 196.5,287.5 C 197.833,287.5 199.167,287.5 200.5,287.5C 200.778,289.346 200.111,290.68 198.5,291.5C 196.889,290.68 196.222,289.346 196.5,287.5 Z"/></g>
<g><path style="opacity:1" fill="#253237" d="M 218.5,287.5 C 219.5,287.5 220.5,287.5 221.5,287.5C 221.5,288.5 221.5,289.5 221.5,290.5C 220.5,290.5 219.5,290.5 218.5,290.5C 218.5,289.5 218.5,288.5 218.5,287.5 Z"/></g>
<g><path style="opacity:1" fill="#e2e2e2" d="M 535.5,288.5 C 573.5,288.5 611.5,288.5 649.5,288.5C 649.5,289.833 649.5,291.167 649.5,292.5C 611.5,292.5 573.5,292.5 535.5,292.5C 535.5,291.167 535.5,289.833 535.5,288.5 Z"/></g>
<g><path style="opacity:1" fill="#e06b0c" d="M 493.5,291.5 C 492.838,295.466 492.505,299.466 492.5,303.5C 485.167,303.5 477.833,303.5 470.5,303.5C 469.8,299.202 469.467,294.869 469.5,290.5C 475.963,291.77 482.296,291.77 488.5,290.5C 489.097,289.861 489.93,289.528 491,289.5C 492.376,289.684 493.209,290.351 493.5,291.5 Z"/></g>
<g><path style="opacity:1" fill="#a64f08" d="M 469.5,290.5 C 475.632,290.233 481.966,290.233 488.5,290.5C 482.296,291.77 475.963,291.77 469.5,290.5 Z"/></g>
<g><path style="opacity:1" fill="#e2e2e2" d="M 534.5,295.5 C 572.833,295.5 611.167,295.5 649.5,295.5C 649.5,296.833 649.5,298.167 649.5,299.5C 611.167,299.5 572.833,299.5 534.5,299.5C 534.5,298.167 534.5,296.833 534.5,295.5 Z"/></g>
<g><path style="opacity:1" fill="#e4af85" d="M 188.5,265.5 C 188.737,266.791 188.404,267.791 187.5,268.5C 179.684,267.508 171.684,267.174 163.5,267.5C 163.5,272.833 163.5,278.167 163.5,283.5C 171.167,283.5 178.833,283.5 186.5,283.5C 186.802,286.059 186.468,288.393 185.5,290.5C 185.5,288.5 185.5,286.5 185.5,284.5C 166.5,284.5 147.5,284.5 128.5,284.5C 128.5,289.833 128.5,295.167 128.5,300.5C 142.504,300.333 156.504,300.5 170.5,301C 156.171,301.5 141.837,301.667 127.5,301.5C 127.5,295.5 127.5,289.5 127.5,283.5C 139.167,283.5 150.833,283.5 162.5,283.5C 162.5,277.5 162.5,271.5 162.5,265.5C 171.167,265.5 179.833,265.5 188.5,265.5 Z"/></g>
<g><path style="opacity:1" fill="#a24f0c" d="M 470.5,303.5 C 477.833,303.5 485.167,303.5 492.5,303.5C 491.793,306.786 491.46,310.119 491.5,313.5C 484.891,314.423 478.224,314.756 471.5,314.5C 471.5,316.167 471.5,317.833 471.5,319.5C 470.514,315.03 470.181,310.363 470.5,305.5C 470.5,304.833 470.5,304.167 470.5,303.5 Z"/></g>
<g><path style="opacity:1" fill="#63544e" d="M 214.5,300.5 C 215.48,305.682 213.147,307.849 207.5,307C 211.602,306.633 213.935,304.466 214.5,300.5 Z"/></g>
<g><path style="opacity:1" fill="#93999b" d="M 605.5,306.5 C 620.167,306.5 634.833,306.5 649.5,306.5C 649.666,312.509 649.499,318.509 649,324.5C 648.501,318.843 648.334,313.176 648.5,307.5C 634.5,307.5 620.5,307.5 606.5,307.5C 606.5,313.833 606.5,320.167 606.5,326.5C 613.841,326.334 621.174,326.5 628.5,327C 620.841,327.5 613.174,327.666 605.5,327.5C 605.5,320.5 605.5,313.5 605.5,306.5 Z"/></g>
<g><path style="opacity:1" fill="#876a51" d="M 295.5,306.5 C 297.833,306.5 300.167,306.5 302.5,306.5C 302.5,310.167 302.5,313.833 302.5,317.5C 301.521,314.375 301.187,311.042 301.5,307.5C 299.265,307.795 297.265,307.461 295.5,306.5 Z"/></g>
<g><path style="opacity:1" fill="#956845" d="M 319.5,309.5 C 317.431,312.573 314.764,314.906 311.5,316.5C 313.569,313.427 316.236,311.094 319.5,309.5 Z"/></g>
<g><path style="opacity:1" fill="#e67821" d="M 626.5,314.5 C 627.568,313.566 628.901,313.232 630.5,313.5C 630.813,316.247 630.48,318.914 629.5,321.5C 629.062,318.705 628.062,316.372 626.5,314.5 Z"/></g>
<g><path style="opacity:1" fill="#e36c0c" d="M 491.5,313.5 C 491.167,317.5 490.833,321.5 490.5,325.5C 484.491,325.666 478.491,325.499 472.5,325C 471.594,323.301 471.261,321.467 471.5,319.5C 471.5,317.833 471.5,316.167 471.5,314.5C 478.224,314.756 484.891,314.423 491.5,313.5 Z"/></g>
<g><path style="opacity:1" fill="#eb8c43" d="M 614.5,314.5 C 618.346,315.712 618.846,317.379 616,319.5C 614.795,318.929 613.628,318.262 612.5,317.5C 613.612,316.735 614.279,315.735 614.5,314.5 Z"/></g>
<g><path style="opacity:1" fill="#efa064" d="M 639.5,317.5 C 640.675,317.281 641.675,317.614 642.5,318.5C 640.948,319.798 639.948,319.465 639.5,317.5 Z"/></g>
<g><path style="opacity:1" fill="#8a8784" d="M 302.5,317.5 C 303.022,319.219 304.022,320.552 305.5,321.5C 304.878,322.627 304.045,323.627 303,324.5C 302.503,322.19 302.337,319.857 302.5,317.5 Z"/></g>
<g><path style="opacity:1" fill="#8c6446" d="M 311.5,316.5 C 310.089,318.914 308.089,320.581 305.5,321.5C 306.911,319.086 308.911,317.419 311.5,316.5 Z"/></g>
<g><path style="opacity:1" fill="#ff9c6f" d="M 207.5,330.5 C 207.5,329.167 207.5,327.833 207.5,326.5C 214.848,326.217 221.682,324.217 228,320.5C 228.167,320.833 228.333,321.167 228.5,321.5C 223.178,328.17 216.178,331.17 207.5,330.5 Z"/></g>
<g><path style="opacity:1" fill="#e26c0b" d="M 207.5,333.5 C 218.791,336.048 230.124,338.382 241.5,340.5C 241.334,345.511 241.501,350.511 242,355.5C 243.29,363.123 247.79,366.623 255.5,366C 260.544,372.596 266.044,373.096 272,367.5C 272.499,363.179 272.666,358.846 272.5,354.5C 272.435,354.062 272.601,353.728 273,353.5C 279.684,360.308 283.851,368.308 285.5,377.5C 282.677,386.28 281.011,395.28 280.5,404.5C 276.261,405.535 271.928,406.201 267.5,406.5C 267.663,408.857 267.497,411.19 267,413.5C 259.646,403.467 251.813,393.8 243.5,384.5C 240.279,383.076 236.945,382.076 233.5,381.5C 234.533,374.27 234.533,367.104 233.5,360C 224.143,358.392 214.809,357.058 205.5,356C 204.026,362.373 203.36,368.873 203.5,375.5C 201.801,375.34 200.134,375.506 198.5,376C 190.333,382.669 182.333,389.502 174.5,396.5C 175.594,386.161 176.427,375.828 177,365.5C 174.918,376.07 173.751,386.737 173.5,397.5C 172.878,398.627 172.045,399.627 171,400.5C 163.216,397.357 155.382,394.357 147.5,391.5C 145.047,390.783 142.713,389.616 140.5,388C 147.917,371.148 157.583,355.815 169.5,342C 172.89,338.804 176.89,336.971 181.5,336.5C 190.126,335.172 198.793,334.172 207.5,333.5 Z"/></g>
<g><path style="opacity:1" fill="#959a9d" d="M 488.5,260.5 C 547.167,260.5 605.833,260.5 664.5,260.5C 664.5,285.167 664.5,309.833 664.5,334.5C 591.833,334.5 519.167,334.5 446.5,334.5C 471.328,333.502 496.328,333.169 521.5,333.5C 568.5,333.5 615.5,333.5 662.5,333.5C 662.5,309.5 662.5,285.5 662.5,261.5C 615.5,261.5 568.5,261.5 521.5,261.5C 510.321,261.828 499.321,261.495 488.5,260.5 Z"/></g>
<g><path style="opacity:1" fill="#e8e8e8" d="M 505.5,340.5 C 510.64,341.488 515.974,341.821 521.5,341.5C 521.5,365.5 521.5,389.5 521.5,413.5C 496.167,413.5 470.833,413.5 445.5,413.5C 445.815,389.166 446.149,364.833 446.5,340.5C 466.167,340.5 485.833,340.5 505.5,340.5 Z"/></g>
<g><path style="opacity:1" fill="#fefdfd" d="M 521.5,341.5 C 568.5,341.5 615.5,341.5 662.5,341.5C 662.5,365.5 662.5,389.5 662.5,413.5C 615.5,413.5 568.5,413.5 521.5,413.5C 521.5,389.5 521.5,365.5 521.5,341.5 Z"/></g>
<g><path style="opacity:1" fill="#eaeae9" d="M 344.5,345.5 C 365.833,345.5 387.167,345.5 408.5,345.5C 408.5,351.167 408.5,356.833 408.5,362.5C 387.167,362.5 365.833,362.5 344.5,362.5C 344.5,356.833 344.5,351.167 344.5,345.5 Z"/></g>
<g><path style="opacity:1" fill="#ea8d42" d="M 770.5,347.5 C 787.999,346.831 796.166,355.165 795,372.5C 790.654,383.596 782.487,388.429 770.5,387C 755.798,380.565 751.964,370.065 759,355.5C 762.15,351.689 765.983,349.023 770.5,347.5 Z"/></g>
<g><path style="opacity:1" fill="#e36c09" d="M 577.5,354.5 C 577.5,356.167 577.5,357.833 577.5,359.5C 563.5,359.5 549.5,359.5 535.5,359.5C 535.5,357.833 535.5,356.167 535.5,354.5C 549.5,354.5 563.5,354.5 577.5,354.5 Z"/></g>
<g><path style="opacity:1" fill="#2c3439" d="M 233.5,381.5 C 233.007,383.806 232.674,386.139 232.5,388.5C 232.5,389.5 232.5,390.5 232.5,391.5C 231.82,395.119 231.32,398.786 231,402.5C 230.5,403 230,403.5 229.5,404C 221.558,403.235 213.558,402.568 205.5,402C 212.584,401.559 219.584,400.559 226.5,399C 229.183,396.878 228.85,395.378 225.5,394.5C 220.167,393.833 214.833,393.167 209.5,392.5C 216.168,391.5 222.835,390.5 229.5,389.5C 229.773,387.549 229.107,386.049 227.5,385C 219.09,384.676 210.756,384.509 202.5,384.5C 202.709,383.914 203.043,383.414 203.5,383C 207.872,382.579 212.205,381.912 216.5,381C 218.527,379.604 218.86,377.938 217.5,376C 212.845,375.501 208.179,375.334 203.5,375.5C 203.36,368.873 204.026,362.373 205.5,356C 214.809,357.058 224.143,358.392 233.5,360C 234.533,367.104 234.533,374.27 233.5,381.5 Z"/></g>
<g><path style="opacity:1" fill="#eca062" d="M 577.5,354.5 C 578.461,356.265 578.795,358.265 578.5,360.5C 563.99,360.829 549.657,360.496 535.5,359.5C 549.5,359.5 563.5,359.5 577.5,359.5C 577.5,357.833 577.5,356.167 577.5,354.5 Z"/></g>
<g><path style="opacity:1" fill="#5b6d76" d="M 493.5,361.5 C 494.5,361.5 495.5,361.5 496.5,361.5C 496.548,365.075 494.881,367.409 491.5,368.5C 490.386,367.277 490.219,365.944 491,364.5C 492.045,363.627 492.878,362.627 493.5,361.5 Z"/></g>
<g><path style="opacity:1" fill="#e7ab7a" d="M 344.5,345.5 C 344.5,351.167 344.5,356.833 344.5,362.5C 365.833,362.5 387.167,362.5 408.5,362.5C 399.682,363.493 390.682,363.827 381.5,363.5C 381.666,369.176 381.499,374.843 381,380.5C 380.501,375.177 380.334,369.844 380.5,364.5C 359.5,364.5 338.5,364.5 317.5,364.5C 317.167,364.5 316.833,364.5 316.5,364.5C 325.105,362.529 334.105,361.862 343.5,362.5C 343.178,356.642 343.511,350.975 344.5,345.5 Z"/></g>
<g><path style="opacity:1" fill="#dd6e16" d="M 471.5,365.5 C 473.167,365.5 474.833,365.5 476.5,365.5C 476.768,367.099 476.434,368.432 475.5,369.5C 474.167,368.167 472.833,366.833 471.5,365.5 Z"/></g>
<g><path style="opacity:1" fill="#526269" d="M 471.5,365.5 C 472.833,366.833 474.167,368.167 475.5,369.5C 476.234,370.708 476.567,372.041 476.5,373.5C 473.15,373.665 469.817,373.498 466.5,373C 465.833,372.333 465.167,371.667 464.5,371C 466.256,370.798 467.922,370.298 469.5,369.5C 468.754,368.264 468.421,366.93 468.5,365.5C 469.5,365.5 470.5,365.5 471.5,365.5 Z"/></g>
<g><path style="opacity:1" fill="#52636a" d="M 489.5,370.5 C 487.833,370.5 486.167,370.5 484.5,370.5C 484.5,371.5 484.5,372.5 484.5,373.5C 478.479,374.427 476.479,372.093 478.5,366.5C 480.258,367.128 481.758,368.128 483,369.5C 486.869,359.856 489.036,360.189 489.5,370.5 Z"/></g>
<g><path style="opacity:1" fill="#4d5f67" d="M 500.5,370.5 C 499.599,371.29 498.932,372.29 498.5,373.5C 496.5,373.5 494.5,373.5 492.5,373.5C 493.345,369.647 495.679,366.981 499.5,365.5C 500.452,367.045 500.785,368.712 500.5,370.5 Z"/></g>
<g><path style="opacity:1" fill="#e1e1e1" d="M 535.5,368.5 C 573.5,368.5 611.5,368.5 649.5,368.5C 649.5,369.833 649.5,371.167 649.5,372.5C 611.5,372.5 573.5,372.5 535.5,372.5C 535.5,371.167 535.5,369.833 535.5,368.5 Z"/></g>
<g><path style="opacity:1" fill="#e37014" d="M 489.5,370.5 C 489.804,371.15 490.137,371.817 490.5,372.5C 488.604,373.466 486.604,373.799 484.5,373.5C 484.5,372.5 484.5,371.5 484.5,370.5C 486.167,370.5 487.833,370.5 489.5,370.5 Z"/></g>
<g><path style="opacity:1" fill="#546066" d="M 503.5,373.5 C 503.5,372.833 503.5,372.167 503.5,371.5C 504.287,369.896 505.62,369.229 507.5,369.5C 507.833,372.5 506.5,373.833 503.5,373.5 Z"/></g>
<g><path style="opacity:1" fill="#8c5121" d="M 174.5,396.5 C 174.5,397.167 174.167,397.5 173.5,397.5C 173.751,386.737 174.918,376.07 177,365.5C 176.427,375.828 175.594,386.161 174.5,396.5 Z"/></g>
<g><path style="opacity:1" fill="#dc7220" d="M 500.5,370.5 C 501.609,370.557 502.609,370.89 503.5,371.5C 503.5,372.167 503.5,372.833 503.5,373.5C 501.833,373.5 500.167,373.5 498.5,373.5C 498.932,372.29 499.599,371.29 500.5,370.5 Z"/></g>
<g><path style="opacity:1" fill="#fdbc9a" d="M 203.5,375.5 C 208.179,375.334 212.845,375.501 217.5,376C 218.86,377.938 218.527,379.604 216.5,381C 212.205,381.912 207.872,382.579 203.5,383C 203.043,383.414 202.709,383.914 202.5,384.5C 210.756,384.509 219.09,384.676 227.5,385C 229.107,386.049 229.773,387.549 229.5,389.5C 222.835,390.5 216.168,391.5 209.5,392.5C 207.692,392.491 206.025,392.991 204.5,394C 211.492,394.5 218.492,394.666 225.5,394.5C 228.85,395.378 229.183,396.878 226.5,399C 219.584,400.559 212.584,401.559 205.5,402C 213.558,402.568 221.558,403.235 229.5,404C 230,403.5 230.5,403 231,402.5C 231.32,398.786 231.82,395.119 232.5,391.5C 234.707,392.739 237.041,393.239 239.5,393C 238.323,389.651 235.99,388.151 232.5,388.5C 232.674,386.139 233.007,383.806 233.5,381.5C 236.945,382.076 240.279,383.076 243.5,384.5C 251.813,393.8 259.646,403.467 267,413.5C 267.497,411.19 267.663,408.857 267.5,406.5C 271.928,406.201 276.261,405.535 280.5,404.5C 278.489,420.887 275.989,437.22 273,453.5C 268.293,449.288 263.46,445.288 258.5,441.5C 257.64,434.752 255.307,428.585 251.5,423C 240.435,416.131 228.435,412.131 215.5,411C 214.833,410.333 214.167,409.667 213.5,409C 202.357,407.273 191.857,409.107 182,414.5C 180.214,417.736 178.714,421.07 177.5,424.5C 173.503,431.16 170.003,438.16 167,445.5C 162.577,454.26 155.577,459.594 146,461.5C 143.59,461.518 141.423,460.851 139.5,459.5C 130.607,454.375 127.107,446.709 129,436.5C 134.311,421.867 139.645,407.201 145,392.5C 145.671,391.748 146.504,391.414 147.5,391.5C 155.382,394.357 163.216,397.357 171,400.5C 172.045,399.627 172.878,398.627 173.5,397.5C 174.167,397.5 174.5,397.167 174.5,396.5C 182.333,389.502 190.333,382.669 198.5,376C 200.134,375.506 201.801,375.34 203.5,375.5 Z"/></g>
<g><path style="opacity:1" fill="#e2e2e2" d="M 535.5,376.5 C 573.167,376.5 610.833,376.5 648.5,376.5C 648.5,377.833 648.5,379.167 648.5,380.5C 610.833,380.5 573.167,380.5 535.5,380.5C 535.5,379.167 535.5,377.833 535.5,376.5 Z"/></g>
<g><path style="opacity:1" fill="#f7d4b7" d="M 494.5,381.5 C 486.5,381.5 478.5,381.5 470.5,381.5C 470.611,380.883 470.944,380.383 471.5,380C 475.333,379.833 479.167,379.667 483,379.5C 487.229,379.51 491.062,380.177 494.5,381.5 Z"/></g>
<g><path style="opacity:1" fill="#fefefe" d="M 470.5,381.5 C 478.5,381.5 486.5,381.5 494.5,381.5C 497.167,381.5 499.833,381.5 502.5,381.5C 499.839,390.187 493.839,394.52 484.5,394.5C 475.135,394.824 468.801,390.658 465.5,382C 467.134,381.506 468.801,381.34 470.5,381.5 Z"/></g>
<g><path style="opacity:1" fill="#bbbec0" d="M 605.5,386.5 C 620.167,386.5 634.833,386.5 649.5,386.5C 649.666,391.844 649.499,397.177 649,402.5C 648.501,397.845 648.334,393.179 648.5,388.5C 634.5,388.5 620.5,388.5 606.5,388.5C 606.5,394.833 606.5,401.167 606.5,407.5C 614.507,407.334 622.507,407.5 630.5,408C 622.173,408.5 613.84,408.666 605.5,408.5C 605.5,401.167 605.5,393.833 605.5,386.5 Z"/></g>
<g><path style="opacity:1" fill="#895020" d="M 267.5,406.5 C 267.606,395.994 267.439,385.327 267,374.5C 268.832,385.14 268.999,395.807 267.5,406.5 Z"/></g>
<g><path style="opacity:1" fill="#e6731b" d="M 232.5,388.5 C 235.99,388.151 238.323,389.651 239.5,393C 237.041,393.239 234.707,392.739 232.5,391.5C 232.5,390.5 232.5,389.5 232.5,388.5 Z"/></g>
<g><path style="opacity:1" fill="#a87259" d="M 209.5,392.5 C 214.833,393.167 220.167,393.833 225.5,394.5C 218.492,394.666 211.492,394.5 204.5,394C 206.025,392.991 207.692,392.491 209.5,392.5 Z"/></g>
<g><path style="opacity:1" fill="#e8802f" d="M 626.5,393.5 C 627.833,393.5 629.167,393.5 630.5,393.5C 630.817,396.572 630.484,399.572 629.5,402.5C 628.745,399.348 627.745,396.348 626.5,393.5 Z"/></g>
<g><path style="opacity:1" fill="#ed924e" d="M 614.5,394.5 C 616.078,395.066 617.412,396.066 618.5,397.5C 617.478,398.354 616.645,399.354 616,400.5C 615.1,399.23 613.934,398.23 612.5,397.5C 613.612,396.735 614.279,395.735 614.5,394.5 Z"/></g>
<g><path style="opacity:1" fill="#f1a971" d="M 638.5,397.5 C 639.978,397.238 641.311,397.571 642.5,398.5C 641.833,398.833 641.167,399.167 640.5,399.5C 639.287,399.253 638.62,398.586 638.5,397.5 Z"/></g>
<g><path style="opacity:1" fill="#eb8133" d="M 222.5,405.5 C 226.188,406.172 229.855,407.005 233.5,408C 229.375,408.854 225.375,408.52 221.5,407C 222.056,406.617 222.389,406.117 222.5,405.5 Z"/></g>
<g><path style="opacity:1" fill="#e36c0b" d="M 258.5,441.5 C 234.419,451.305 210.419,461.305 186.5,471.5C 184.644,455.555 181.644,439.888 177.5,424.5C 178.714,421.07 180.214,417.736 182,414.5C 191.857,409.107 202.357,407.273 213.5,409C 214.167,409.667 214.833,410.333 215.5,411C 228.435,412.131 240.435,416.131 251.5,423C 255.307,428.585 257.64,434.752 258.5,441.5 Z"/></g>
<g><path style="opacity:1" fill="#8b9294" d="M 505.5,340.5 C 558.5,340.5 611.5,340.5 664.5,340.5C 664.5,365.167 664.5,389.833 664.5,414.5C 591.331,414.833 518.331,414.499 445.5,413.5C 470.833,413.5 496.167,413.5 521.5,413.5C 568.5,413.5 615.5,413.5 662.5,413.5C 662.5,389.5 662.5,365.5 662.5,341.5C 615.5,341.5 568.5,341.5 521.5,341.5C 515.974,341.821 510.64,341.488 505.5,340.5 Z"/></g>
<g><path style="opacity:1" fill="#e36c0b" d="M 335.5,418.5 C 345.271,418.143 354.938,418.977 364.5,421C 379.81,425.437 394.477,431.437 408.5,439C 415.952,442.074 419.119,447.574 418,455.5C 413.759,476.316 406.426,495.983 396,514.5C 392.899,517.352 389.399,519.352 385.5,520.5C 383.548,520.995 381.548,521.328 379.5,521.5C 374.789,519.987 369.956,518.987 365,518.5C 360.439,518.527 356.272,519.86 352.5,522.5C 350.271,521.423 347.937,520.756 345.5,520.5C 345.5,520.167 345.5,519.833 345.5,519.5C 345.808,517.076 345.474,514.743 344.5,512.5C 340.833,511.167 337.167,509.833 333.5,508.5C 330.907,510.071 329.907,512.404 330.5,515.5C 329.662,515.842 329.328,516.508 329.5,517.5C 326.318,516.406 323.318,515.072 320.5,513.5C 324.799,505.435 327.632,496.769 329,487.5C 331.201,464.351 333.368,441.351 335.5,418.5 Z"/></g>
<g><path style="opacity:1" fill="#dfdfdf" d="M 447.5,434.5 C 519.167,434.5 590.833,434.5 662.5,434.5C 662.5,452.833 662.5,471.167 662.5,489.5C 594.833,489.5 527.167,489.5 459.5,489.5C 459.666,482.825 459.5,476.158 459,469.5C 457.59,464.086 454.59,459.753 450,456.5C 451.251,448.924 450.417,441.591 447.5,434.5 Z"/></g>
<g><path style="opacity:1" fill="#273238" d="M 316.5,364.5 C 316.833,364.5 317.167,364.5 317.5,364.5C 319.508,366.268 321.674,367.934 324,369.5C 331.004,378.768 334.838,389.101 335.5,400.5C 335.5,406.5 335.5,412.5 335.5,418.5C 333.368,441.351 331.201,464.351 329,487.5C 327.632,496.769 324.799,505.435 320.5,513.5C 317.565,522.573 315.232,531.907 313.5,541.5C 312.596,542.209 312.263,543.209 312.5,544.5C 282.834,543.123 253.167,541.623 223.5,540C 213.612,539.556 203.945,537.889 194.5,535C 191.337,533.52 189.504,531.02 189,527.5C 186.817,508.902 185.984,490.236 186.5,471.5C 210.419,461.305 234.419,451.305 258.5,441.5C 263.46,445.288 268.293,449.288 273,453.5C 275.989,437.22 278.489,420.887 280.5,404.5C 281.011,395.28 282.677,386.28 285.5,377.5C 291.541,362.981 301.874,358.647 316.5,364.5 Z"/></g>
<g><path style="opacity:1" fill="#3b464b" d="M 618.5,454.5 C 622.168,455.579 622.834,457.412 620.5,460C 624.663,463.544 624.329,466.711 619.5,469.5C 618.281,468.354 616.948,467.354 615.5,466.5C 616.325,465.614 617.325,465.281 618.5,465.5C 618.5,464.5 618.5,463.5 618.5,462.5C 616.365,462.853 615.032,462.02 614.5,460C 615.707,457.977 617.04,456.144 618.5,454.5 Z"/></g>
<g><path style="opacity:1" fill="#3f494e" d="M 628.5,454.5 C 630.269,455.421 631.935,456.588 633.5,458C 632.552,458.483 631.552,458.649 630.5,458.5C 630.461,460.359 631.294,461.692 633,462.5C 633.896,465.792 632.729,468.125 629.5,469.5C 628.281,468.354 626.948,467.354 625.5,466.5C 626.325,465.614 627.325,465.281 628.5,465.5C 628.5,464.5 628.5,463.5 628.5,462.5C 626.365,462.853 625.032,462.02 624.5,460C 625.707,457.977 627.04,456.144 628.5,454.5 Z"/></g>
<g><path style="opacity:1" fill="#3a454a" d="M 638.5,454.5 C 640.269,455.421 641.935,456.588 643.5,458C 642.552,458.483 641.552,458.649 640.5,458.5C 640.461,460.359 641.294,461.692 643,462.5C 643.896,465.792 642.729,468.125 639.5,469.5C 638.281,468.354 636.948,467.354 635.5,466.5C 636.325,465.614 637.325,465.281 638.5,465.5C 637.821,463.332 636.821,461.332 635.5,459.5C 636.267,457.643 637.267,455.976 638.5,454.5 Z"/></g>
<g><path style="opacity:1" fill="#29353b" d="M 460.5,457.5 C 463.898,457.18 467.232,457.513 470.5,458.5C 469.311,459.429 467.978,459.762 466.5,459.5C 465.833,471.5 465.167,471.5 464.5,459.5C 462.517,459.843 461.183,459.176 460.5,457.5 Z"/></g>
<g><path style="opacity:1" fill="#374248" d="M 473.5,457.5 C 481.549,456.372 484.216,459.539 481.5,467C 474.909,470.316 471.409,468.483 471,461.5C 471.662,460.016 472.496,458.683 473.5,457.5 Z"/></g>
<g><path style="opacity:1" fill="#343f45" d="M 483.5,457.5 C 486.572,457.183 489.572,457.516 492.5,458.5C 491.675,459.386 490.675,459.719 489.5,459.5C 489.5,462.5 489.5,465.5 489.5,468.5C 488.5,468.5 487.5,468.5 486.5,468.5C 486.5,465.5 486.5,462.5 486.5,459.5C 484.821,459.715 483.821,459.048 483.5,457.5 Z"/></g>
<g><path style="opacity:1" fill="#374247" d="M 505.5,457.5 C 506.5,457.5 507.5,457.5 508.5,457.5C 508.5,460.5 508.5,463.5 508.5,466.5C 510.288,466.215 511.955,466.548 513.5,467.5C 510.914,468.48 508.247,468.813 505.5,468.5C 505.5,464.833 505.5,461.167 505.5,457.5 Z"/></g>
<g><path style="opacity:1" fill="#d6d7d7" d="M 474.5,459.5 C 480.016,459.473 481.349,461.64 478.5,466C 473.791,466.082 472.458,463.915 474.5,459.5 Z"/></g>
<g><path style="opacity:1" fill="#3a444a" d="M 496.5,457.5 C 497.833,457.5 499.167,457.5 500.5,457.5C 501.26,461.027 502.594,464.36 504.5,467.5C 504,467.833 503.5,468.167 503,468.5C 500,465.833 497,465.833 494,468.5C 493.5,468.167 493,467.833 492.5,467.5C 494.406,464.36 495.74,461.027 496.5,457.5 Z"/></g>
<g><path style="opacity:1" fill="#253237" d="M 515.5,460.5 C 517.337,460.639 517.67,461.306 516.5,462.5C 515.702,462.043 515.369,461.376 515.5,460.5 Z"/></g>
<g><path style="opacity:1" fill="#fcbd9c" d="M 323.5,474.5 C 318.146,474.431 312.813,474.098 307.5,473.5C 307.167,473.5 306.833,473.5 306.5,473.5C 301.115,472.942 295.782,472.275 290.5,471.5C 290.5,468.167 290.5,464.833 290.5,461.5C 301.83,462.206 313.164,462.872 324.5,463.5C 324.276,467.179 323.942,470.846 323.5,474.5 Z"/></g>
<g><path style="opacity:1" fill="#a1a5a7" d="M 497.5,461.5 C 498.995,461.415 499.995,462.081 500.5,463.5C 497.222,465.151 496.222,464.485 497.5,461.5 Z"/></g>
<g><path style="opacity:1" fill="#323d42" d="M 515.5,465.5 C 517.465,465.948 517.798,466.948 516.5,468.5C 515.614,467.675 515.281,466.675 515.5,465.5 Z"/></g>
<g><path style="opacity:1" fill="#f4f4f3" d="M 290.5,471.5 C 295.782,472.275 301.115,472.942 306.5,473.5C 305.589,478.453 304.922,483.453 304.5,488.5C 299.493,488.249 294.493,487.916 289.5,487.5C 285.046,486.839 283.379,484.172 284.5,479.5C 283.191,474.158 285.191,471.491 290.5,471.5 Z"/></g>
<g><path style="opacity:1" fill="#f7f6f6" d="M 307.5,473.5 C 312.813,474.098 318.146,474.431 323.5,474.5C 324.209,475.404 325.209,475.737 326.5,475.5C 326.575,479.897 326.075,484.23 325,488.5C 324.583,489.756 323.75,490.423 322.5,490.5C 316.828,490.24 311.161,489.907 305.5,489.5C 306.446,484.207 307.113,478.874 307.5,473.5 Z"/></g>
<g><path style="opacity:1" fill="#888e92" d="M 291.5,476.5 C 292.124,476.917 292.457,477.584 292.5,478.5C 291.936,480.819 291.436,483.153 291,485.5C 290.366,482.445 290.532,479.445 291.5,476.5 Z"/></g>
<g><path style="opacity:1" fill="#8b9194" d="M 318.5,475.5 C 320.848,478.974 321.014,482.641 319,486.5C 318.501,482.848 318.335,479.182 318.5,475.5 Z"/></g>
<g><path style="opacity:1" fill="#f6f6f6" d="M 321.5,491.5 C 320.242,497.455 319.242,503.455 318.5,509.5C 308.945,506.057 299.612,502.057 290.5,497.5C 290.5,494.5 290.5,491.5 290.5,488.5C 300.747,490.305 311.08,491.305 321.5,491.5 Z"/></g>
<g><path style="opacity:1" fill="#979d9f" d="M 306.5,473.5 C 306.833,473.5 307.167,473.5 307.5,473.5C 307.113,478.874 306.446,484.207 305.5,489.5C 311.161,489.907 316.828,490.24 322.5,490.5C 322.5,491.167 322.167,491.5 321.5,491.5C 311.08,491.305 300.747,490.305 290.5,488.5C 290.5,491.5 290.5,494.5 290.5,497.5C 289.521,494.375 289.187,491.042 289.5,487.5C 294.493,487.916 299.493,488.249 304.5,488.5C 304.922,483.453 305.589,478.453 306.5,473.5 Z"/></g>
<g><path style="opacity:1" fill="#e46c0c" d="M 486.5,508.5 C 532.501,508.333 578.501,508.5 624.5,509C 643.772,517.051 648.939,530.551 640,549.5C 636.097,554.868 630.93,558.368 624.5,560C 578.833,560.667 533.167,560.667 487.5,560C 471.341,554.52 464.841,543.354 468,526.5C 471.441,517.557 477.608,511.557 486.5,508.5 Z"/></g>
<g><path style="opacity:1" fill="#f8bb9a" d="M 320.5,513.5 C 323.318,515.072 326.318,516.406 329.5,517.5C 327.736,526.667 325.736,535.667 323.5,544.5C 320.513,544.002 317.513,543.502 314.5,543C 313.944,542.617 313.611,542.117 313.5,541.5C 315.232,531.907 317.565,522.573 320.5,513.5 Z"/></g>
<g><path style="opacity:1" fill="#797c7d" d="M 330.5,515.5 C 333.305,516.319 336.305,516.819 339.5,517C 336.183,517.498 332.85,517.665 329.5,517.5C 329.328,516.508 329.662,515.842 330.5,515.5 Z"/></g>
<g><path style="opacity:1" fill="#f7f7f7" d="M 345.5,519.5 C 343.718,524.256 342.885,529.256 343,534.5C 344.373,529.928 345.206,525.261 345.5,520.5C 347.937,520.756 350.271,521.423 352.5,522.5C 356.272,519.86 360.439,518.527 365,518.5C 369.956,518.987 374.789,519.987 379.5,521.5C 381.548,521.328 383.548,520.995 385.5,520.5C 391.178,519.162 396.845,517.828 402.5,516.5C 409.52,516.088 414.353,519.088 417,525.5C 420.108,537.082 415.608,543.582 403.5,545C 384.842,545.879 366.175,546.379 347.5,546.5C 345.167,546.5 342.833,546.5 340.5,546.5C 341.497,542.863 341.997,539.196 342,535.5C 341.166,538.172 340.332,540.839 339.5,543.5C 338.5,543.833 337.5,544.167 336.5,544.5C 333.767,543.853 331.1,543.353 328.5,543C 331.5,545.003 334.833,545.836 338.5,545.5C 338.5,546.5 338.5,547.5 338.5,548.5C 338.389,549.117 338.056,549.617 337.5,550C 333.112,550.577 328.779,550.244 324.5,549C 323.62,547.644 323.286,546.144 323.5,544.5C 325.736,535.667 327.736,526.667 329.5,517.5C 332.85,517.665 336.183,517.498 339.5,517C 336.305,516.819 333.305,516.319 330.5,515.5C 329.907,512.404 330.907,510.071 333.5,508.5C 337.167,509.833 340.833,511.167 344.5,512.5C 345.474,514.743 345.808,517.076 345.5,519.5 Z"/></g>
<g><path style="opacity:1" fill="#888e91" d="M 345.5,519.5 C 345.5,519.833 345.5,520.167 345.5,520.5C 345.206,525.261 344.373,529.928 343,534.5C 342.885,529.256 343.718,524.256 345.5,519.5 Z"/></g>
<g><path style="opacity:1" fill="#868c8f" d="M 328.5,529.5 C 332.482,528.582 336.482,529.082 340.5,531C 336.445,531.156 332.445,530.656 328.5,529.5 Z"/></g>
<g><path style="opacity:1" fill="#fdf1e8" d="M 526.5,531.5 C 535.865,530.936 537.865,534.436 532.5,542C 527.583,543.211 524.583,541.378 523.5,536.5C 524.092,534.577 525.092,532.911 526.5,531.5 Z"/></g>
<g><path style="opacity:1" fill="#fceadc" d="M 537.5,531.5 C 541.007,530.994 544.174,531.66 547,533.5C 547.825,535.701 547.325,537.534 545.5,539C 548.305,541.687 547.971,542.687 544.5,542C 543.692,540.294 542.359,539.461 540.5,539.5C 540.5,540.5 540.5,541.5 540.5,542.5C 539.5,542.5 538.5,542.5 537.5,542.5C 537.5,538.833 537.5,535.167 537.5,531.5 Z"/></g>
<g><path style="opacity:1" fill="#fdf3eb" d="M 549.5,531.5 C 552.187,531.336 554.854,531.503 557.5,532C 560.966,534.661 561.299,537.661 558.5,541C 555.649,542.289 552.649,542.789 549.5,542.5C 549.5,538.833 549.5,535.167 549.5,531.5 Z"/></g>
<g><path style="opacity:1" fill="#fdf4ed" d="M 562.5,531.5 C 565.247,531.187 567.914,531.52 570.5,532.5C 562.5,533.833 562.5,535.167 570.5,536.5C 568.604,537.466 566.604,537.799 564.5,537.5C 564.5,538.5 564.5,539.5 564.5,540.5C 566.604,540.201 568.604,540.534 570.5,541.5C 567.914,542.48 565.247,542.813 562.5,542.5C 562.5,538.833 562.5,535.167 562.5,531.5 Z"/></g>
<g><path style="opacity:1" fill="#fceadc" d="M 572.5,531.5 C 575.777,531.216 578.943,531.549 582,532.5C 582.896,535.025 582.396,537.192 580.5,539C 582.559,540.185 582.726,541.352 581,542.5C 579.756,540.424 577.923,539.424 575.5,539.5C 575.5,540.5 575.5,541.5 575.5,542.5C 574.5,542.5 573.5,542.5 572.5,542.5C 572.5,538.833 572.5,535.167 572.5,531.5 Z"/></g>
<g><path style="opacity:1" fill="#e67620" d="M 527.5,533.5 C 533.148,533.311 534.482,535.478 531.5,540C 526.791,540.082 525.458,537.915 527.5,533.5 Z"/></g>
<g><path style="opacity:1" fill="#e67824" d="M 540.5,533.5 C 541.833,533.5 543.167,533.5 544.5,533.5C 544.833,536.5 543.5,537.833 540.5,537.5C 540.5,536.167 540.5,534.833 540.5,533.5 Z"/></g>
<g><path style="opacity:1" fill="#e46e11" d="M 552.5,533.5 C 557.252,533.341 558.586,535.341 556.5,539.5C 555.167,539.5 553.833,539.5 552.5,539.5C 552.5,537.5 552.5,535.5 552.5,533.5 Z"/></g>
<g><path style="opacity:1" fill="#e87d2c" d="M 575.5,533.5 C 576.833,533.5 578.167,533.5 579.5,533.5C 579.5,534.833 579.5,536.167 579.5,537.5C 578.167,537.5 576.833,537.5 575.5,537.5C 575.5,536.167 575.5,534.833 575.5,533.5 Z"/></g>
<g><path style="opacity:1" fill="#efab73" d="M 552.5,533.5 C 552.5,535.5 552.5,537.5 552.5,539.5C 553.833,539.5 555.167,539.5 556.5,539.5C 555.081,540.451 553.415,540.784 551.5,540.5C 551.198,537.941 551.532,535.607 552.5,533.5 Z"/></g>
<g><path style="opacity:1" fill="#8f9699" d="M 347.5,546.5 C 344.61,547.245 341.61,547.912 338.5,548.5C 338.5,547.5 338.5,546.5 338.5,545.5C 334.833,545.836 331.5,545.003 328.5,543C 331.1,543.353 333.767,543.853 336.5,544.5C 337.5,544.167 338.5,543.833 339.5,543.5C 340.332,540.839 341.166,538.172 342,535.5C 341.997,539.196 341.497,542.863 340.5,546.5C 342.833,546.5 345.167,546.5 347.5,546.5 Z"/></g>
<g><path style="opacity:1" fill="#ffb03b" d="M 56.5,561.5 C 67.1267,561.447 70.9601,566.447 68,576.5C 61.139,583.662 55.139,582.995 50,574.5C 48.9921,568.516 51.1587,564.182 56.5,561.5 Z"/></g>
<g><path style="opacity:1" fill="#2d3c42" d="M 402.5,572.5 C 333.332,573.834 264.332,573.501 195.5,571.5C 265.5,571.5 335.5,571.5 405.5,571.5C 405.573,562.811 406.073,554.145 407,545.5C 407.5,554.494 407.666,563.494 407.5,572.5C 405.833,572.5 404.167,572.5 402.5,572.5 Z"/></g>
<g><path style="opacity:1" fill="#374850" d="M 195.5,571.5 C 264.332,573.501 333.332,573.834 402.5,572.5C 397.855,574.751 392.855,576.251 387.5,577C 329.569,585.304 271.569,585.637 213.5,578C 203.738,576.596 194.072,574.762 184.5,572.5C 183.667,584.486 183.167,596.486 183,608.5C 182.409,573.497 182.576,538.497 183.5,503.5C 183.596,492.046 183.096,480.712 182,469.5C 182.862,471.087 183.529,472.754 184,474.5C 184.614,506.838 184.447,539.171 183.5,571.5C 187.5,571.5 191.5,571.5 195.5,571.5 Z"/></g>
<g><path style="opacity:1" fill="#e98c40" d="M 599.5,604.5 C 590.883,611.484 581.549,617.484 571.5,622.5C 540.907,623.492 510.24,623.825 479.5,623.5C 479.5,628.167 479.5,632.833 479.5,637.5C 481.833,637.5 484.167,637.5 486.5,637.5C 486.5,643.167 486.5,648.833 486.5,654.5C 463.735,658.877 440.735,661.21 417.5,661.5C 416.394,655.194 415.394,648.861 414.5,642.5C 423.21,644.399 430.377,642.065 436,635.5C 441.92,625.239 445.754,614.239 447.5,602.5C 449.854,602.838 452.187,603.338 454.5,604C 502.832,604.5 551.166,604.667 599.5,604.5 Z"/></g>
<g><path style="opacity:1" fill="#e0dfdf" d="M 571.5,622.5 C 596.995,623.498 622.661,623.831 648.5,623.5C 648.5,628.167 648.5,632.833 648.5,637.5C 646.5,637.5 644.5,637.5 642.5,637.5C 642.5,654.5 642.5,671.5 642.5,688.5C 616.167,688.5 589.833,688.5 563.5,688.5C 562.376,671.519 561.71,654.519 561.5,637.5C 536.5,637.5 511.5,637.5 486.5,637.5C 484.167,637.5 481.833,637.5 479.5,637.5C 479.5,632.833 479.5,628.167 479.5,623.5C 510.24,623.825 540.907,623.492 571.5,622.5 Z"/></g>
<g><path style="opacity:1" fill="#f3f3f3" d="M 486.5,637.5 C 511.5,637.5 536.5,637.5 561.5,637.5C 561.71,654.519 562.376,671.519 563.5,688.5C 537.833,688.5 512.167,688.5 486.5,688.5C 486.5,677.167 486.5,665.833 486.5,654.5C 486.5,648.833 486.5,643.167 486.5,637.5 Z"/></g>
<g><path style="opacity:1" fill="#b8bfc3" d="M 151.5,640.5 C 161.5,640.5 171.5,640.5 181.5,640.5C 181.672,641.492 181.338,642.158 180.5,642.5C 170.833,641.833 161.167,641.167 151.5,640.5 Z"/></g>
<g><path style="opacity:1" fill="#7d8b92" d="M 198.5,640.5 C 212.01,640.171 225.344,640.504 238.5,641.5C 225.087,641.186 211.754,641.519 198.5,642.5C 198.5,641.833 198.5,641.167 198.5,640.5 Z"/></g>
<g><path style="opacity:1" fill="#29353b" d="M 181.5,640.5 C 187.167,640.5 192.833,640.5 198.5,640.5C 198.5,641.167 198.5,641.833 198.5,642.5C 193.764,657.708 189.431,673.042 185.5,688.5C 184.662,688.842 184.328,689.508 184.5,690.5C 181.167,690.5 177.833,690.5 174.5,690.5C 174.5,689.5 174.5,688.5 174.5,687.5C 176.5,672.5 178.5,657.5 180.5,642.5C 181.338,642.158 181.672,641.492 181.5,640.5 Z"/></g>
<g><path style="opacity:1" fill="#fefefe" d="M 238.5,641.5 C 262.212,641.187 285.878,641.52 309.5,642.5C 339.371,653.65 370.371,659.984 402.5,661.5C 405.407,670.322 408.074,679.322 410.5,688.5C 347.336,689.499 284.002,689.832 220.5,689.5C 208.655,689.828 196.988,689.495 185.5,688.5C 189.431,673.042 193.764,657.708 198.5,642.5C 211.754,641.519 225.087,641.186 238.5,641.5 Z"/></g>
<g><path style="opacity:1" fill="#e98c41" d="M 309.5,642.5 C 338.833,642.5 368.167,642.5 397.5,642.5C 399.364,648.762 401.031,655.096 402.5,661.5C 370.371,659.984 339.371,653.65 309.5,642.5 Z"/></g>
<g><path style="opacity:1" fill="#283339" d="M 397.5,642.5 C 403.167,642.5 408.833,642.5 414.5,642.5C 415.394,648.861 416.394,655.194 417.5,661.5C 418.833,670.833 420.167,680.167 421.5,689.5C 418.375,690.479 415.042,690.813 411.5,690.5C 411.672,689.508 411.338,688.842 410.5,688.5C 408.074,679.322 405.407,670.322 402.5,661.5C 401.031,655.096 399.364,648.762 397.5,642.5 Z"/></g>
<g><path style="opacity:1" fill="#fefefe" d="M 503.5,663.5 C 517.167,663.5 530.833,663.5 544.5,663.5C 544.5,668.833 544.5,674.167 544.5,679.5C 530.833,679.5 517.167,679.5 503.5,679.5C 503.5,674.167 503.5,668.833 503.5,663.5 Z"/></g>
<g><path style="opacity:1" fill="#bbbfc0" d="M 174.5,687.5 C 174.5,688.5 174.5,689.5 174.5,690.5C 177.833,690.5 181.167,690.5 184.5,690.5C 182.696,691.162 180.696,691.495 178.5,691.5C 166.843,690.805 155.177,690.305 143.5,690C 154.085,690.108 164.419,689.275 174.5,687.5 Z"/></g>
<g><path style="opacity:1" fill="#c7cacc" d="M 185.5,688.5 C 196.988,689.495 208.655,689.828 220.5,689.5C 283.998,690.499 347.664,690.832 411.5,690.5C 411.5,690.833 411.5,691.167 411.5,691.5C 335.828,691.765 260.161,691.432 184.5,690.5C 184.328,689.508 184.662,688.842 185.5,688.5 Z"/></g>
<g><path style="opacity:1" fill="#adb1b3" d="M 410.5,688.5 C 411.338,688.842 411.672,689.508 411.5,690.5C 347.664,690.832 283.998,690.499 220.5,689.5C 284.002,689.832 347.336,689.499 410.5,688.5 Z"/></g>
<g><path style="opacity:1" fill="#acb0b2" d="M 421.5,689.5 C 486.833,689.5 552.167,689.5 617.5,689.5C 552.5,690.167 487.5,690.833 422.5,691.5C 418.833,691.5 415.167,691.5 411.5,691.5C 411.5,691.167 411.5,690.833 411.5,690.5C 415.042,690.813 418.375,690.479 421.5,689.5 Z"/></g>
<g><path style="opacity:1" fill="#c8cbcd" d="M 617.5,689.5 C 642.502,689.333 667.502,689.5 692.5,690C 602.505,691.289 512.505,691.789 422.5,691.5C 487.5,690.833 552.5,690.167 617.5,689.5 Z"/></g>
</svg>
