<svg width="104" height="56" viewBox="0 0 104 56" fill="none" xmlns="http://www.w3.org/2000/svg">
<mask id="mask0_340_1156" style="mask-type:luminance" maskUnits="userSpaceOnUse" x="0" y="0" width="52" height="56">
<path d="M0 0H51.2511V55.8905H0V0Z" fill="white"/>
</mask>
<g mask="url(#mask0_340_1156)">
<path fill-rule="evenodd" clip-rule="evenodd" d="M43.8058 21.8018C44.8534 16.9468 47.1346 12.5275 50.3291 8.85518C45.0308 3.4068 37.4774 0 29.1014 0C13.0725 0 0.0562744 12.4736 0.0562744 27.8436C0.0562744 43.2095 13.0725 55.6872 29.1014 55.6872C37.4774 55.6872 45.0308 52.2804 50.3291 46.8279C47.1346 43.1555 44.8534 38.7362 43.8058 33.8812C41.3558 39.3462 35.694 43.1763 29.1014 43.1763C20.271 43.1763 13.1028 36.3046 13.1028 27.8436C13.1028 19.3785 20.271 12.5068 29.1014 12.5068C35.694 12.5068 41.3558 16.3369 43.8058 21.8018Z" fill="black"/>
</g>
<path fill-rule="evenodd" clip-rule="evenodd" d="M59.4669 33.8812C58.4237 38.7362 56.1382 43.1555 52.948 46.8279C58.2463 52.2804 65.7997 55.6872 74.1756 55.6872C90.2046 55.6872 103.221 43.2095 103.221 27.8436C103.221 12.4736 90.2046 0 74.1756 0C65.7997 0 58.2463 3.4068 52.948 8.85518C56.1382 12.5275 58.4237 16.9468 59.4669 21.8018C61.9169 16.3369 67.5831 12.5068 74.1756 12.5068C83.0017 12.5068 90.17 19.3785 90.17 27.8436C90.17 36.3046 83.0017 43.1763 74.1756 43.1763C67.5831 43.1763 61.9169 39.3462 59.4669 33.8812Z" fill="#E46C0A"/>
<path fill-rule="evenodd" clip-rule="evenodd" d="M51.4978 10.5447C55.5617 15.3165 58 21.4126 58 28.0467C58 34.6809 55.5617 40.7729 51.4978 45.5447C47.434 40.7729 45 34.6809 45 28.0467C45 21.4126 47.434 15.3165 51.4978 10.5447Z" fill="#E46C0A"/>
</svg>
