<svg width="173" height="53" viewBox="0 0 173 53" fill="none" xmlns="http://www.w3.org/2000/svg">
<mask id="mask0_96_1223" style="mask-type:luminance" maskUnits="userSpaceOnUse" x="3" y="13" width="22" height="25">
<path d="M3.11426 13.1797H24.4509V37.4804H3.11426V13.1797Z" fill="white"/>
</mask>
<g mask="url(#mask0_96_1223)">
<path fill-rule="evenodd" clip-rule="evenodd" d="M21.3514 22.6589C21.7875 20.548 22.7372 18.6265 24.0671 17.0298C21.8613 14.6609 18.7167 13.1797 15.2297 13.1797C8.55656 13.1797 3.1377 18.6031 3.1377 25.2858C3.1377 31.9668 8.55656 37.392 15.2297 37.392C18.7167 37.392 21.8613 35.9107 24.0671 33.54C22.7372 31.9433 21.7875 30.0218 21.3514 27.9109C20.3314 30.2871 17.9742 31.9523 15.2297 31.9523C11.5534 31.9523 8.56917 28.9646 8.56917 25.2858C8.56917 21.6053 11.5534 18.6175 15.2297 18.6175C17.9742 18.6175 20.3314 20.2828 21.3514 22.6589Z" fill="black"/>
</g>
<mask id="mask1_96_1223" style="mask-type:luminance" maskUnits="userSpaceOnUse" x="24" y="13" width="22" height="25">
<path d="M24.9121 13.1797H45.9947V37.4804H24.9121V13.1797Z" fill="white"/>
</mask>
<g mask="url(#mask1_96_1223)">
<path fill-rule="evenodd" clip-rule="evenodd" d="M27.8712 27.9109C27.4369 30.0218 26.4854 31.9433 25.1572 33.54C27.363 35.9107 30.5076 37.392 33.9946 37.392C40.6678 37.392 46.0866 31.9668 46.0866 25.2858C46.0866 18.6031 40.6678 13.1797 33.9946 13.1797C30.5076 13.1797 27.363 14.6609 25.1572 17.0298C26.4854 18.6265 27.4369 20.548 27.8712 22.6589C28.8911 20.2828 31.2501 18.6175 33.9946 18.6175C37.6691 18.6175 40.6533 21.6053 40.6533 25.2858C40.6533 28.9646 37.6691 31.9523 33.9946 31.9523C31.2501 31.9523 28.8911 30.2871 27.8712 27.9109Z" fill="#E46C0A"/>
</g>
<path fill-rule="evenodd" clip-rule="evenodd" d="M24.6109 17.6558C26.3048 19.736 27.3212 22.3936 27.3212 25.2857C27.3212 28.1778 26.3048 30.8336 24.6109 32.9138C22.9169 30.8336 21.9023 28.1778 21.9023 25.2857C21.9023 22.3936 22.9169 19.736 24.6109 17.6558Z" fill="#E46C0A"/>
<path d="M57.3944 26.3888C59.9029 26.3888 61.4455 25.198 61.4455 23.199C61.4455 21.5175 60.3426 20.5215 57.7188 19.9009C56.0969 19.5256 55.5419 19.1143 55.5419 18.4648C55.5419 17.7719 56.1618 17.3462 57.171 17.3462C58.2738 17.3462 58.937 17.9235 58.937 18.8761H61.2509C61.2509 16.7399 59.6506 15.376 57.1421 15.376C54.7057 15.376 53.1992 16.574 53.1992 18.5081C53.1992 20.2329 54.3597 21.2649 56.8394 21.7917C58.3315 22.1092 59.0163 22.5495 59.0163 23.2928C59.0163 24 58.382 24.4114 57.38 24.4114C56.2195 24.4114 55.4626 23.8196 55.4626 22.8093H53.1055C53.1055 25.0032 54.7418 26.3888 57.3944 26.3888Z" fill="black"/>
<path d="M63.2715 26.1794H65.5709V21.8854C65.5709 20.7307 66.2053 19.9946 67.1856 19.9946C68.1371 19.9946 68.7282 20.7018 68.7282 21.8204V26.1794H70.9916V21.8854C70.9916 20.7307 71.6259 19.9946 72.6135 19.9946C73.565 19.9946 74.1489 20.7018 74.1489 21.8204V26.1794H76.4483V21.5534C76.4483 19.374 75.1508 18.0244 73.1253 18.0244C71.9143 18.0244 70.9195 18.4935 70.2708 19.3307C69.7085 18.4791 68.7859 18.0244 67.6542 18.0244C66.645 18.0244 65.78 18.3708 65.2105 19.0564L64.9799 18.2409H63.2715V26.1794Z" fill="black"/>
<path d="M81.2359 26.3309C82.418 26.3309 83.384 25.9557 84.0615 25.2556L84.321 26.1794H86.0294V21.4019C86.0294 19.2946 84.6094 18.0244 82.2306 18.0244C80.2123 18.0244 78.8788 18.9915 78.5904 20.7163H80.7962C80.9331 20.1606 81.5098 19.7781 82.2523 19.7781C83.1533 19.7781 83.7732 20.2977 83.7732 21.0843V21.4452H80.9043C79.2608 21.4452 78.2012 22.3978 78.2012 23.8628C78.2012 25.3927 79.3617 26.3309 81.2359 26.3309ZM80.4646 23.7762C80.4646 23.2277 80.9187 22.8813 81.6107 22.8813H83.7876C83.7444 23.9566 82.9154 24.6783 81.7621 24.6783C80.9764 24.6783 80.4646 24.3174 80.4646 23.7762Z" fill="black"/>
<path d="M88.168 26.1794H90.4674V22.6721C90.4674 20.9617 91.2676 20.3266 92.5795 20.3266H93.4589V18.241H92.5939C91.4333 18.241 90.6909 18.5585 90.1791 19.2946L89.8763 18.241H88.168V26.1794Z" fill="black"/>
<path d="M98.9454 26.1793H100.394V24.1803H99.4428C98.5345 24.1803 98.1092 23.7473 98.1092 22.8235V20.1172H100.286V18.2409H98.1092V16.1841H96.3288L96.1918 17.2089C96.0693 18.0244 95.8458 18.2409 94.9808 18.2409H94.2744V20.1172H95.817V23.1699C95.817 25.104 96.9343 26.1793 98.9454 26.1793Z" fill="black"/>
<path d="M105.983 26.3888C108.492 26.3888 110.034 25.198 110.034 23.199C110.034 21.5175 108.932 20.5215 106.308 19.9009C104.686 19.5256 104.131 19.1143 104.131 18.4648C104.131 17.7719 104.751 17.3462 105.76 17.3462C106.863 17.3462 107.526 17.9235 107.526 18.8761H109.84C109.84 16.7399 108.24 15.376 105.731 15.376C103.295 15.376 101.788 16.574 101.788 18.5081C101.788 20.2329 102.949 21.2649 105.428 21.7917C106.92 22.1092 107.605 22.5495 107.605 23.2928C107.605 24 106.971 24.4114 105.969 24.4114C104.808 24.4114 104.051 23.8196 104.051 22.8093H101.694C101.694 25.0032 103.331 26.3888 105.983 26.3888Z" fill="#E46C0A"/>
<path d="M111.861 26.1793H114.161V22.008C114.161 20.7523 114.853 19.9945 115.912 19.9945C116.893 19.9945 117.484 20.6585 117.484 21.8204V26.1793H119.783V21.5967C119.783 19.3883 118.543 18.0243 116.489 18.0243C115.595 18.0243 114.766 18.2986 114.161 18.8398V14.9861H111.861V26.1793Z" fill="#E46C0A"/>
<path d="M125.822 26.3887C128.453 26.3887 130.262 24.6783 130.262 22.2029C130.262 19.7348 128.453 18.0244 125.822 18.0244C123.176 18.0244 121.367 19.7348 121.367 22.2029C121.367 24.6783 123.176 26.3887 125.822 26.3887ZM123.631 22.2029C123.631 20.8967 124.539 19.9946 125.822 19.9946C127.105 19.9946 127.999 20.8967 127.999 22.2029C127.999 23.5019 127.105 24.4113 125.822 24.4113C124.539 24.4113 123.631 23.5019 123.631 22.2029Z" fill="#E46C0A"/>
<path d="M136.806 26.3887C139.178 26.3887 140.857 24.6638 140.857 22.2029C140.857 19.7637 139.178 18.0244 136.806 18.0244C135.66 18.0244 134.672 18.4358 133.966 19.143L133.706 18.2409H131.998V29.2032H134.298V25.5587C134.961 26.0856 135.826 26.3887 136.806 26.3887ZM134.204 22.2029C134.204 20.9183 135.112 19.9946 136.395 19.9946C137.693 19.9946 138.586 20.9183 138.586 22.2029C138.586 23.5019 137.693 24.4113 136.395 24.4113C135.112 24.4113 134.204 23.5019 134.204 22.2029Z" fill="#E46C0A"/>
<path d="M147.397 26.3887C149.768 26.3887 151.448 24.6638 151.448 22.2029C151.448 19.7637 149.768 18.0244 147.397 18.0244C146.251 18.0244 145.263 18.4358 144.557 19.143L144.297 18.2409H142.589V29.2032H144.888V25.5587C145.551 26.0856 146.416 26.3887 147.397 26.3887ZM144.795 22.2029C144.795 20.9183 145.703 19.9946 146.986 19.9946C148.283 19.9946 149.177 20.9183 149.177 22.2029C149.177 23.5019 148.283 24.4113 146.986 24.4113C145.703 24.4113 144.795 23.5019 144.795 22.2029Z" fill="#E46C0A"/>
<path d="M156.926 26.3887C158.873 26.3887 160.415 25.3927 161.114 23.7112H158.786C158.411 24.2453 157.727 24.5484 156.97 24.5484C155.932 24.5484 155.117 23.9566 154.901 22.8669H161.266C161.403 19.9657 159.68 18.0244 156.955 18.0244C154.389 18.0244 152.623 19.7348 152.623 22.2029C152.623 24.6783 154.375 26.3887 156.926 26.3887ZM154.915 21.4163C155.175 20.4493 155.961 19.8575 156.97 19.8575C158.029 19.8575 158.786 20.4493 159.046 21.4163H154.915Z" fill="#E46C0A"/>
<path d="M162.983 26.1794H165.283V22.6721C165.283 20.9617 166.083 20.3266 167.395 20.3266H168.274V18.241H167.409C166.249 18.241 165.506 18.5585 164.995 19.2946L164.692 18.241H162.983V26.1794Z" fill="#E46C0A"/>
<path d="M54.1005 36.3011C53.8157 36.3011 53.5418 36.2578 53.2787 36.1712C53.0192 36.081 52.8138 35.9656 52.666 35.8248L52.8606 35.4063C53.0048 35.5362 53.1868 35.6426 53.4085 35.7238C53.6337 35.8068 53.8644 35.8465 54.1005 35.8465C54.4122 35.8465 54.6447 35.7942 54.7997 35.6877C54.9529 35.5831 55.0303 35.4405 55.0303 35.2619C55.0303 35.132 54.9871 35.0292 54.9006 34.9516C54.8177 34.8704 54.715 34.8073 54.5906 34.764C54.4699 34.7207 54.2969 34.6737 54.0716 34.6196C53.7869 34.5529 53.5598 34.4861 53.3868 34.4176C53.2138 34.3454 53.0643 34.2407 52.9399 34.1C52.8138 33.9557 52.7525 33.7662 52.7525 33.5299C52.7525 33.3278 52.8048 33.1474 52.9111 32.9886C53.0156 32.8263 53.1778 32.6964 53.3941 32.5989C53.6103 32.5033 53.877 32.4546 54.1942 32.4546C54.414 32.4546 54.6303 32.4835 54.8429 32.5412C55.0592 32.5953 55.243 32.6765 55.398 32.7866L55.225 33.2124C55.0664 33.1113 54.897 33.0373 54.7204 32.9886C54.542 32.9363 54.3672 32.9092 54.1942 32.9092C53.8914 32.9092 53.6626 32.9652 53.5094 33.0752C53.3544 33.1871 53.2787 33.3314 53.2787 33.5082C53.2787 33.6345 53.322 33.7374 53.4085 33.8186C53.495 33.9016 53.5995 33.9665 53.7256 34.0134C53.8554 34.0567 54.0284 34.1036 54.2446 34.1505C54.5276 34.2191 54.7564 34.2858 54.9294 34.3526C55.1024 34.4212 55.2484 34.5258 55.3691 34.6701C55.4935 34.8109 55.5566 34.9985 55.5566 35.233C55.5566 35.4315 55.5007 35.6119 55.3908 35.7743C55.2844 35.9331 55.1241 36.0612 54.9078 36.1568C54.6916 36.2542 54.4212 36.3011 54.1005 36.3011Z" fill="black"/>
<path d="M60.2015 33.3782C60.5566 33.3782 60.8377 33.4846 61.0449 33.6957C61.2558 33.9032 61.3621 34.2117 61.3621 34.6195V36.2577H60.8503V34.6772C60.8503 34.403 60.7854 34.1973 60.6557 34.0566C60.5295 33.9122 60.3493 33.84 60.115 33.84C59.8501 33.84 59.6411 33.923 59.4879 34.0854C59.3329 34.2496 59.2573 34.4859 59.2573 34.7927V36.2577H58.7455V34.6772C58.7455 34.403 58.6806 34.1973 58.5508 34.0566C58.4247 33.9122 58.2445 33.84 58.0102 33.84C57.7453 33.84 57.5363 33.923 57.3831 34.0854C57.2281 34.2496 57.1524 34.4859 57.1524 34.7927V36.2577H56.6406V33.407H57.1308V33.8328C57.2353 33.6849 57.3723 33.5712 57.5417 33.4936C57.7093 33.4179 57.9021 33.3782 58.1183 33.3782C58.3382 33.3782 58.5328 33.4251 58.7022 33.5153C58.8752 33.6073 59.0086 33.7372 59.1059 33.905C59.2104 33.7426 59.36 33.6145 59.5528 33.5225C59.7438 33.4269 59.9601 33.3782 60.2015 33.3782Z" fill="black"/>
<path d="M63.7273 33.3782C64.1201 33.3782 64.4211 33.4774 64.6283 33.6741C64.8392 33.8671 64.9455 34.1558 64.9455 34.5401V36.2577H64.4553V35.8824C64.3688 36.0123 64.2463 36.1133 64.0877 36.1855C63.9291 36.2541 63.7381 36.2865 63.5182 36.2865C63.2011 36.2865 62.9452 36.2108 62.7542 36.0556C62.5613 35.9022 62.4658 35.7002 62.4658 35.4494C62.4658 35.2004 62.5559 35.0001 62.7397 34.8504C62.9217 34.697 63.2119 34.6195 63.6119 34.6195H64.4265V34.5184C64.4265 34.2929 64.3616 34.1215 64.2319 34.006C64.1057 33.887 63.9165 33.8256 63.6624 33.8256C63.493 33.8256 63.3272 33.8545 63.165 33.9122C63.0064 33.9663 62.8713 34.0403 62.7614 34.1359L62.5451 33.7462C62.6929 33.6308 62.8695 33.5424 63.0713 33.4792C63.2768 33.4125 63.4966 33.3782 63.7273 33.3782ZM63.6047 35.8896C63.8012 35.8896 63.9724 35.8463 64.1165 35.7597C64.2607 35.6731 64.3634 35.5486 64.4265 35.3844V34.9875H63.6336C63.1957 34.9875 62.9776 35.1355 62.9776 35.4277C62.9776 35.5721 63.0317 35.6857 63.1434 35.7669C63.2533 35.8499 63.4065 35.8896 63.6047 35.8896Z" fill="black"/>
<path d="M66.7636 33.8833C66.8537 33.721 66.9871 33.5947 67.1601 33.5081C67.3367 33.4215 67.5511 33.3782 67.8016 33.3782V33.8833C67.7728 33.8797 67.7331 33.8761 67.6863 33.8761C67.4069 33.8761 67.1853 33.9609 67.0231 34.1287C66.8645 34.2929 66.7852 34.5292 66.7852 34.836V36.2577H66.2734V33.407H66.7636V33.8833Z" fill="black"/>
<path d="M70.4506 36.0917C70.3731 36.1548 70.2794 36.2035 70.1695 36.236C70.0577 36.2685 69.9424 36.2865 69.8235 36.2865C69.5387 36.2865 69.3189 36.2107 69.1603 36.0556C69.0017 35.9022 68.9224 35.6839 68.9224 35.3988V33.8328H68.4395V33.407H68.9224V32.7864H69.4414V33.407H70.256V33.8328H69.4414V35.3772C69.4414 35.5324 69.4793 35.6496 69.5567 35.7308C69.6324 35.8138 69.7442 35.8535 69.8883 35.8535C70.0415 35.8535 70.1731 35.8102 70.2848 35.7236L70.4506 36.0917Z" fill="black"/>
<path d="M73.3389 32.4978H73.8795V35.7887H75.9122V36.2577H73.3389V32.4978Z" fill="black"/>
<path d="M76.83 33.4071H77.3418V36.2578H76.83V33.4071ZM77.0895 32.8587C76.9886 32.8587 76.9039 32.828 76.8372 32.7648C76.7688 32.6981 76.7363 32.6187 76.7363 32.5267C76.7363 32.4365 76.7688 32.3571 76.8372 32.2885C76.9039 32.2218 76.9886 32.1875 77.0895 32.1875C77.185 32.1875 77.2661 32.22 77.3346 32.2813C77.4013 32.3445 77.4355 32.422 77.4355 32.5123C77.4355 32.6133 77.4013 32.6981 77.3346 32.7648C77.2661 32.828 77.185 32.8587 77.0895 32.8587Z" fill="black"/>
<path d="M79.5177 36.2865C79.2871 36.2865 79.0636 36.2559 78.8474 36.1927C78.6311 36.1314 78.4617 36.052 78.3428 35.9546L78.559 35.5504C78.6834 35.637 78.8347 35.7092 79.0131 35.7669C79.1898 35.8211 79.37 35.8463 79.5538 35.8463C80.0043 35.8463 80.2314 35.7164 80.2314 35.4566C80.2314 35.37 80.1989 35.3032 80.1376 35.2545C80.08 35.2022 80.0043 35.1661 79.9142 35.1463C79.8223 35.1228 79.6925 35.0958 79.5249 35.0669C79.2943 35.029 79.1069 34.9875 78.9627 34.9442C78.8185 34.8973 78.6924 34.8179 78.5879 34.7061C78.4869 34.596 78.4365 34.439 78.4365 34.237C78.4365 33.9772 78.541 33.7715 78.7536 33.6163C78.9699 33.4576 79.2582 33.3782 79.6186 33.3782C79.8097 33.3782 80.0007 33.4034 80.1881 33.4503C80.3791 33.4991 80.5359 33.5622 80.6566 33.638L80.4332 34.0493C80.2025 33.9014 79.9286 33.8256 79.6114 33.8256C79.3952 33.8256 79.2294 33.8617 79.1141 33.9339C78.9987 34.0024 78.9411 34.0962 78.9411 34.2153C78.9411 34.3073 78.9717 34.3813 79.0348 34.439C79.1015 34.4932 79.1825 34.5311 79.2799 34.5545C79.3754 34.5798 79.5069 34.6086 79.6763 34.6411C79.907 34.6808 80.0908 34.7241 80.2314 34.771C80.3755 34.8143 80.4981 34.8901 80.599 34.9947C80.6999 35.1012 80.7504 35.2527 80.7504 35.4494C80.7504 35.7056 80.6386 35.9095 80.4188 36.0628C80.1971 36.2126 79.8962 36.2865 79.5177 36.2865Z" fill="black"/>
<path d="M83.3676 36.0917C83.2901 36.1548 83.1964 36.2035 83.0864 36.236C82.9747 36.2685 82.8594 36.2865 82.7404 36.2865C82.4557 36.2865 82.2359 36.2107 82.0773 36.0556C81.9187 35.9022 81.8394 35.6839 81.8394 35.3988V33.8328H81.3564V33.407H81.8394V32.7864H82.3584V33.407H83.1729V33.8328H82.3584V35.3772C82.3584 35.5324 82.3962 35.6496 82.4737 35.7308C82.5494 35.8138 82.6612 35.8535 82.8053 35.8535C82.9585 35.8535 83.09 35.8102 83.2018 35.7236L83.3676 36.0917Z" fill="black"/>
<path d="M85.1798 36.2865C84.9492 36.2865 84.7257 36.2559 84.5095 36.1927C84.2932 36.1314 84.1238 36.052 84.0049 35.9546L84.2211 35.5504C84.3455 35.637 84.4969 35.7092 84.6753 35.7669C84.8519 35.8211 85.0321 35.8463 85.2159 35.8463C85.6664 35.8463 85.8935 35.7164 85.8935 35.4566C85.8935 35.37 85.861 35.3032 85.7998 35.2545C85.7421 35.2022 85.6664 35.1661 85.5763 35.1463C85.4844 35.1228 85.3546 35.0958 85.187 35.0669C84.9564 35.029 84.769 34.9875 84.6248 34.9442C84.4806 34.8973 84.3545 34.8179 84.25 34.7061C84.149 34.596 84.0986 34.439 84.0986 34.237C84.0986 33.9772 84.2031 33.7715 84.4158 33.6163C84.632 33.4576 84.9203 33.3782 85.2808 33.3782C85.4718 33.3782 85.6628 33.4034 85.8502 33.4503C86.0412 33.4991 86.198 33.5622 86.3188 33.638L86.0953 34.0493C85.8646 33.9014 85.5907 33.8256 85.2735 33.8256C85.0573 33.8256 84.8915 33.8617 84.7762 33.9339C84.6608 34.0024 84.6032 34.0962 84.6032 34.2153C84.6032 34.3073 84.6338 34.3813 84.6969 34.439C84.7636 34.4932 84.8447 34.5311 84.942 34.5545C85.0375 34.5798 85.169 34.6086 85.3384 34.6411C85.5691 34.6808 85.7529 34.7241 85.8935 34.771C86.0376 34.8143 86.1602 34.8901 86.2611 34.9947C86.362 35.1012 86.4125 35.2527 86.4125 35.4494C86.4125 35.7056 86.3007 35.9095 86.0809 36.0628C85.8592 36.2126 85.5583 36.2865 85.1798 36.2865Z" fill="black"/>
<path d="M87.5522 36.2866C87.4513 36.2866 87.3648 36.2542 87.2927 36.1856C87.2206 36.1134 87.1846 36.025 87.1846 35.9186C87.1846 35.8139 87.2206 35.7273 87.2927 35.6588C87.3648 35.5866 87.4513 35.5505 87.5522 35.5505C87.6531 35.5505 87.736 35.5866 87.8045 35.6588C87.8712 35.7273 87.9054 35.8139 87.9054 35.9186C87.9054 36.025 87.8694 36.1134 87.7973 36.1856C87.7288 36.2542 87.6477 36.2866 87.5522 36.2866Z" fill="black"/>
<path d="M93.4471 34.3092C93.667 34.3669 93.84 34.4788 93.9661 34.6412C94.0905 34.8 94.1535 35.0002 94.1535 35.2402C94.1535 35.5685 94.031 35.8211 93.7859 35.9979C93.5408 36.1711 93.1822 36.2577 92.7119 36.2577H90.917V32.4978H92.6037C93.0362 32.4978 93.3678 32.5844 93.5985 32.7576C93.8328 32.9272 93.9517 33.1617 93.9517 33.4649C93.9517 33.6633 93.9048 33.8329 93.8147 33.9772C93.7228 34.1216 93.6003 34.2334 93.4471 34.3092ZM91.4576 32.9308V34.136H92.5533C92.8308 34.136 93.0453 34.0855 93.1948 33.9845C93.3426 33.8798 93.4183 33.7283 93.4183 33.5298C93.4183 33.3331 93.3426 33.1834 93.1948 33.0824C93.0453 32.9813 92.8308 32.9308 92.5533 32.9308H91.4576ZM92.6902 35.8247C92.993 35.8247 93.2201 35.7742 93.375 35.6732C93.5282 35.5721 93.6057 35.4134 93.6057 35.1969C93.6057 34.7783 93.2993 34.569 92.6902 34.569H91.4576V35.8247H92.6902Z" fill="#E46C0A"/>
<path d="M97.8567 34.8504C97.8567 34.8901 97.8513 34.9406 97.8423 35.0019H95.5356C95.568 35.2581 95.6798 35.462 95.8672 35.6154C96.0546 35.7651 96.2871 35.8391 96.5664 35.8391C96.907 35.8391 97.1809 35.7236 97.3881 35.4927L97.6693 35.8247C97.5395 35.9798 97.3773 36.0953 97.1863 36.1711C96.9989 36.2486 96.7862 36.2865 96.552 36.2865C96.2492 36.2865 95.9789 36.227 95.7446 36.1061C95.514 35.9816 95.3338 35.8084 95.204 35.5865C95.0779 35.3664 95.0166 35.1156 95.0166 34.836C95.0166 34.5581 95.0779 34.3073 95.204 34.0854C95.3284 33.8653 95.4996 33.6921 95.7158 33.5658C95.9321 33.4413 96.1735 33.3782 96.4439 33.3782C96.7178 33.3782 96.9592 33.4413 97.1719 33.5658C97.3881 33.6921 97.5557 33.8653 97.6765 34.0854C97.7954 34.3073 97.8567 34.5617 97.8567 34.8504ZM96.4439 33.8184C96.1988 33.8184 95.9915 33.8942 95.8239 34.0421C95.6599 34.1919 95.5644 34.3885 95.5356 34.6339H97.3593C97.3305 34.3939 97.2314 34.1991 97.0638 34.0493C96.8998 33.896 96.6925 33.8184 96.4439 33.8184Z" fill="#E46C0A"/>
<path d="M99.758 36.2865C99.5273 36.2865 99.3038 36.2559 99.0876 36.1927C98.8713 36.1314 98.7019 36.052 98.583 35.9546L98.7993 35.5504C98.9236 35.637 99.075 35.7092 99.2534 35.7669C99.43 35.8211 99.6102 35.8463 99.794 35.8463C100.245 35.8463 100.472 35.7164 100.472 35.4566C100.472 35.37 100.439 35.3032 100.378 35.2545C100.32 35.2022 100.245 35.1661 100.154 35.1463C100.063 35.1228 99.9328 35.0958 99.7652 35.0669C99.5345 35.029 99.3471 34.9875 99.2029 34.9442C99.0588 34.8973 98.9326 34.8179 98.8281 34.7061C98.7272 34.596 98.6767 34.439 98.6767 34.237C98.6767 33.9772 98.7812 33.7715 98.9939 33.6163C99.2101 33.4576 99.4985 33.3782 99.8589 33.3782C100.05 33.3782 100.241 33.4034 100.428 33.4503C100.619 33.4991 100.776 33.5622 100.897 33.638L100.673 34.0493C100.443 33.9014 100.169 33.8256 99.8517 33.8256C99.6354 33.8256 99.4696 33.8617 99.3543 33.9339C99.239 34.0024 99.1813 34.0962 99.1813 34.2153C99.1813 34.3073 99.2119 34.3813 99.275 34.439C99.3417 34.4932 99.4228 34.5311 99.5201 34.5545C99.6156 34.5798 99.7472 34.6086 99.9165 34.6411C100.147 34.6808 100.331 34.7241 100.472 34.771C100.616 34.8143 100.738 34.8901 100.839 34.9947C100.94 35.1012 100.991 35.2527 100.991 35.4494C100.991 35.7056 100.879 35.9095 100.659 36.0628C100.437 36.2126 100.136 36.2865 99.758 36.2865Z" fill="#E46C0A"/>
<path d="M103.608 36.0917C103.53 36.1548 103.437 36.2035 103.327 36.236C103.215 36.2685 103.1 36.2865 102.981 36.2865C102.696 36.2865 102.476 36.2107 102.318 36.0556C102.159 35.9022 102.08 35.6839 102.08 35.3988V33.8328H101.597V33.407H102.08V32.7864H102.599V33.407H103.413V33.8328H102.599V35.3772C102.599 35.5324 102.636 35.6496 102.714 35.7308C102.79 35.8138 102.901 35.8535 103.046 35.8535C103.199 35.8535 103.33 35.8102 103.442 35.7236L103.608 36.0917Z" fill="#E46C0A"/>
<path d="M107.968 32.4978C108.452 32.4978 108.834 32.6133 109.114 32.8442C109.391 33.0751 109.532 33.3963 109.532 33.804C109.532 34.2136 109.391 34.5365 109.114 34.7711C108.834 35.002 108.452 35.1175 107.968 35.1175H107.038V36.2577H106.497V32.4978H107.968ZM107.946 34.6484C108.287 34.6484 108.546 34.5762 108.724 34.4319C108.906 34.2876 108.998 34.0783 108.998 33.804C108.998 33.5352 108.906 33.3277 108.724 33.1834C108.546 33.0355 108.287 32.9597 107.946 32.9597H107.038V34.6484H107.946Z" fill="#E46C0A"/>
<path d="M111.165 33.8833C111.255 33.721 111.388 33.5947 111.561 33.5081C111.738 33.4215 111.952 33.3782 112.203 33.3782V33.8833C112.174 33.8797 112.134 33.8761 112.088 33.8761C111.808 33.8761 111.587 33.9609 111.424 34.1287C111.266 34.2929 111.187 34.5292 111.187 34.836V36.2577H110.675V33.407H111.165V33.8833Z" fill="#E46C0A"/>
<path d="M113.251 33.4071H113.763V36.2578H113.251V33.4071ZM113.51 32.8587C113.41 32.8587 113.325 32.828 113.258 32.7648C113.19 32.6981 113.157 32.6187 113.157 32.5267C113.157 32.4365 113.19 32.3571 113.258 32.2885C113.325 32.2218 113.41 32.1875 113.51 32.1875C113.606 32.1875 113.687 32.22 113.756 32.2813C113.822 32.3445 113.856 32.422 113.856 32.5123C113.856 32.6133 113.822 32.6981 113.756 32.7648C113.687 32.828 113.606 32.8587 113.51 32.8587Z" fill="#E46C0A"/>
<path d="M116.364 36.2865C116.076 36.2865 115.816 36.2252 115.585 36.0989C115.358 35.9744 115.182 35.803 115.052 35.5865C114.922 35.3664 114.857 35.1156 114.857 34.836C114.857 34.5527 114.922 34.3019 115.052 34.0854C115.182 33.8653 115.358 33.6921 115.585 33.5658C115.816 33.4413 116.076 33.3782 116.364 33.3782C116.623 33.3782 116.854 33.4323 117.056 33.5369C117.258 33.6434 117.413 33.7949 117.525 33.9916L117.128 34.2442C117.042 34.1053 116.93 34.0024 116.796 33.9339C116.667 33.8671 116.519 33.8328 116.357 33.8328C116.169 33.8328 116 33.8743 115.852 33.9555C115.708 34.0385 115.593 34.1558 115.506 34.3091C115.423 34.4643 115.384 34.6393 115.384 34.836C115.384 35.0344 115.423 35.2094 115.506 35.3628C115.593 35.5179 115.708 35.6352 115.852 35.7164C116 35.7994 116.169 35.8391 116.357 35.8391C116.519 35.8391 116.667 35.8066 116.796 35.7381C116.93 35.6713 117.042 35.5685 117.128 35.4277L117.525 35.6803C117.413 35.8788 117.258 36.0303 117.056 36.135C116.854 36.236 116.623 36.2865 116.364 36.2865Z" fill="#E46C0A"/>
<path d="M121.138 34.8504C121.138 34.8901 121.133 34.9406 121.124 35.0019H118.817C118.849 35.2581 118.961 35.462 119.148 35.6154C119.336 35.7651 119.568 35.8391 119.848 35.8391C120.188 35.8391 120.462 35.7236 120.669 35.4927L120.951 35.8247C120.821 35.9798 120.659 36.0953 120.468 36.1711C120.28 36.2486 120.067 36.2865 119.833 36.2865C119.53 36.2865 119.26 36.227 119.026 36.1061C118.795 35.9816 118.615 35.8084 118.485 35.5865C118.359 35.3664 118.298 35.1156 118.298 34.836C118.298 34.5581 118.359 34.3073 118.485 34.0854C118.61 33.8653 118.781 33.6921 118.997 33.5658C119.213 33.4413 119.455 33.3782 119.725 33.3782C119.999 33.3782 120.24 33.4413 120.453 33.5658C120.669 33.6921 120.837 33.8653 120.958 34.0854C121.077 34.3073 121.138 34.5617 121.138 34.8504ZM119.725 33.8184C119.48 33.8184 119.273 33.8942 119.105 34.0421C118.941 34.1919 118.846 34.3885 118.817 34.6339H120.641C120.612 34.3939 120.513 34.1991 120.345 34.0493C120.181 33.896 119.974 33.8184 119.725 33.8184Z" fill="#E46C0A"/>
<path d="M123.039 36.2865C122.809 36.2865 122.585 36.2559 122.369 36.1927C122.153 36.1314 121.983 36.052 121.864 35.9546L122.081 35.5504C122.205 35.637 122.356 35.7092 122.535 35.7669C122.711 35.8211 122.891 35.8463 123.075 35.8463C123.526 35.8463 123.753 35.7164 123.753 35.4566C123.753 35.37 123.72 35.3032 123.659 35.2545C123.601 35.2022 123.526 35.1661 123.436 35.1463C123.344 35.1228 123.214 35.0958 123.046 35.0669C122.816 35.029 122.628 34.9875 122.484 34.9442C122.34 34.8973 122.214 34.8179 122.109 34.7061C122.008 34.596 121.958 34.439 121.958 34.237C121.958 33.9772 122.062 33.7715 122.275 33.6163C122.491 33.4576 122.78 33.3782 123.14 33.3782C123.331 33.3782 123.522 33.4034 123.71 33.4503C123.901 33.4991 124.057 33.5622 124.178 33.638L123.955 34.0493C123.724 33.9014 123.45 33.8256 123.133 33.8256C122.917 33.8256 122.751 33.8617 122.636 33.9339C122.52 34.0024 122.463 34.0962 122.463 34.2153C122.463 34.3073 122.493 34.3813 122.556 34.439C122.623 34.4932 122.704 34.5311 122.801 34.5545C122.897 34.5798 123.028 34.6086 123.198 34.6411C123.428 34.6808 123.612 34.7241 123.753 34.771C123.897 34.8143 124.02 34.8901 124.12 34.9947C124.221 35.1012 124.272 35.2527 124.272 35.4494C124.272 35.7056 124.16 35.9095 123.94 36.0628C123.719 36.2126 123.418 36.2865 123.039 36.2865Z" fill="#E46C0A"/>
<path d="M125.416 36.2866C125.316 36.2866 125.229 36.2542 125.157 36.1856C125.085 36.1134 125.049 36.025 125.049 35.9186C125.049 35.8139 125.085 35.7273 125.157 35.6588C125.229 35.5866 125.316 35.5505 125.416 35.5505C125.517 35.5505 125.6 35.5866 125.669 35.6588C125.735 35.7273 125.77 35.8139 125.77 35.9186C125.77 36.025 125.734 36.1134 125.662 36.1856C125.593 36.2542 125.512 36.2866 125.416 36.2866Z" fill="black"/>
<path d="M129.32 32.9597V34.2731H131.201V34.735H129.32V36.2577H128.779V32.4978H131.432V32.9597H129.32Z" fill="black"/>
<path d="M133.529 33.3782C133.922 33.3782 134.223 33.4774 134.43 33.6741C134.641 33.8671 134.747 34.1558 134.747 34.5401V36.2577H134.257V35.8824C134.171 36.0123 134.048 36.1133 133.889 36.1855C133.731 36.2541 133.54 36.2865 133.32 36.2865C133.003 36.2865 132.747 36.2108 132.556 36.0556C132.363 35.9022 132.268 35.7002 132.268 35.4494C132.268 35.2004 132.358 35.0001 132.541 34.8504C132.724 34.697 133.014 34.6195 133.414 34.6195H134.228V34.5184C134.228 34.2929 134.163 34.1215 134.034 34.006C133.907 33.887 133.718 33.8256 133.464 33.8256C133.295 33.8256 133.129 33.8545 132.967 33.9122C132.808 33.9663 132.673 34.0403 132.563 34.1359L132.347 33.7462C132.495 33.6308 132.671 33.5424 132.873 33.4792C133.079 33.4125 133.298 33.3782 133.529 33.3782ZM133.406 35.8896C133.603 35.8896 133.774 35.8463 133.918 35.7597C134.062 35.6731 134.165 35.5486 134.228 35.3844V34.9875H133.435C132.997 34.9875 132.779 35.1355 132.779 35.4277C132.779 35.5721 132.833 35.6857 132.945 35.7669C133.055 35.8499 133.208 35.8896 133.406 35.8896Z" fill="black"/>
<path d="M136.891 36.2865C136.66 36.2865 136.437 36.2559 136.22 36.1927C136.004 36.1314 135.835 36.052 135.716 35.9546L135.932 35.5504C136.056 35.637 136.208 35.7092 136.386 35.7669C136.563 35.8211 136.743 35.8463 136.927 35.8463C137.377 35.8463 137.604 35.7164 137.604 35.4566C137.604 35.37 137.572 35.3032 137.511 35.2545C137.453 35.2022 137.377 35.1661 137.287 35.1463C137.195 35.1228 137.066 35.0958 136.898 35.0669C136.667 35.029 136.48 34.9875 136.336 34.9442C136.192 34.8973 136.065 34.8179 135.961 34.7061C135.86 34.596 135.81 34.439 135.81 34.237C135.81 33.9772 135.914 33.7715 136.127 33.6163C136.343 33.4576 136.631 33.3782 136.992 33.3782C137.183 33.3782 137.374 33.4034 137.561 33.4503C137.752 33.4991 137.909 33.5622 138.03 33.638L137.806 34.0493C137.576 33.9014 137.302 33.8256 136.984 33.8256C136.768 33.8256 136.602 33.8617 136.487 33.9339C136.372 34.0024 136.314 34.0962 136.314 34.2153C136.314 34.3073 136.345 34.3813 136.408 34.439C136.474 34.4932 136.556 34.5311 136.653 34.5545C136.748 34.5798 136.88 34.6086 137.049 34.6411C137.28 34.6808 137.464 34.7241 137.604 34.771C137.749 34.8143 137.871 34.8901 137.972 34.9947C138.073 35.1012 138.123 35.2527 138.123 35.4494C138.123 35.7056 138.012 35.9095 137.792 36.0628C137.57 36.2126 137.269 36.2865 136.891 36.2865Z" fill="black"/>
<path d="M140.741 36.0917C140.663 36.1548 140.569 36.2035 140.459 36.236C140.348 36.2685 140.232 36.2865 140.113 36.2865C139.829 36.2865 139.609 36.2107 139.45 36.0556C139.292 35.9022 139.212 35.6839 139.212 35.3988V33.8328H138.729V33.407H139.212V32.7864H139.731V33.407H140.546V33.8328H139.731V35.3772C139.731 35.5324 139.769 35.6496 139.847 35.7308C139.922 35.8138 140.034 35.8535 140.178 35.8535C140.332 35.8535 140.463 35.8102 140.575 35.7236L140.741 36.0917Z" fill="black"/>
<path d="M143.63 32.4978H145.216C145.614 32.4978 145.967 32.5772 146.275 32.736C146.582 32.8911 146.82 33.1112 146.989 33.3999C147.162 33.685 147.248 34.0097 147.248 34.3742C147.248 34.7458 147.162 35.0724 146.989 35.3556C146.82 35.6407 146.582 35.8608 146.275 36.0196C145.967 36.1784 145.614 36.2577 145.216 36.2577H143.63V32.4978ZM145.187 35.7887C145.49 35.7887 145.756 35.7309 145.987 35.6154C146.218 35.4964 146.394 35.3304 146.52 35.1175C146.645 34.901 146.708 34.6538 146.708 34.3742C146.708 34.0963 146.645 33.8509 146.52 33.6381C146.394 33.4216 146.218 33.2556 145.987 33.1401C145.756 33.021 145.49 32.9597 145.187 32.9597H144.171V35.7887H145.187Z" fill="black"/>
<path d="M150.94 34.8504C150.94 34.8901 150.934 34.9406 150.925 35.0019H148.619C148.651 35.2581 148.763 35.462 148.95 35.6154C149.138 35.7651 149.37 35.8391 149.649 35.8391C149.99 35.8391 150.264 35.7236 150.471 35.4927L150.752 35.8247C150.623 35.9798 150.46 36.0953 150.269 36.1711C150.082 36.2486 149.869 36.2865 149.635 36.2865C149.332 36.2865 149.062 36.227 148.828 36.1061C148.597 35.9816 148.417 35.8084 148.287 35.5865C148.161 35.3664 148.1 35.1156 148.1 34.836C148.1 34.5581 148.161 34.3073 148.287 34.0854C148.411 33.8653 148.583 33.6921 148.799 33.5658C149.015 33.4413 149.257 33.3782 149.527 33.3782C149.801 33.3782 150.042 33.4413 150.255 33.5658C150.471 33.6921 150.639 33.8653 150.759 34.0854C150.878 34.3073 150.94 34.5617 150.94 34.8504ZM149.527 33.8184C149.282 33.8184 149.075 33.8942 148.907 34.0421C148.743 34.1919 148.647 34.3885 148.619 34.6339H150.442C150.413 34.3939 150.314 34.1991 150.147 34.0493C149.983 33.896 149.776 33.8184 149.527 33.8184Z" fill="black"/>
<path d="M152.026 32.2668H152.538V36.2577H152.026V32.2668Z" fill="black"/>
<path d="M153.899 33.4071H154.411V36.2578H153.899V33.4071ZM154.159 32.8587C154.058 32.8587 153.973 32.828 153.907 32.7648C153.838 32.6981 153.806 32.6187 153.806 32.5267C153.806 32.4365 153.838 32.3571 153.907 32.2885C153.973 32.2218 154.058 32.1875 154.159 32.1875C154.254 32.1875 154.335 32.22 154.404 32.2813C154.471 32.3445 154.505 32.422 154.505 32.5123C154.505 32.6133 154.471 32.6981 154.404 32.7648C154.335 32.828 154.254 32.8587 154.159 32.8587Z" fill="black"/>
<path d="M158.287 33.4072L157.04 36.2579H156.514L155.274 33.4072H155.808L156.788 35.6949L157.783 33.4072H158.287Z" fill="black"/>
<path d="M161.721 34.8504C161.721 34.8901 161.716 34.9406 161.707 35.0019H159.4C159.432 35.2581 159.544 35.462 159.731 35.6154C159.919 35.7651 160.151 35.8391 160.431 35.8391C160.771 35.8391 161.045 35.7236 161.252 35.4927L161.534 35.8247C161.404 35.9798 161.242 36.0953 161.051 36.1711C160.863 36.2486 160.651 36.2865 160.416 36.2865C160.113 36.2865 159.843 36.227 159.609 36.1061C159.378 35.9816 159.198 35.8084 159.068 35.5865C158.942 35.3664 158.881 35.1156 158.881 34.836C158.881 34.5581 158.942 34.3073 159.068 34.0854C159.193 33.8653 159.364 33.6921 159.58 33.5658C159.796 33.4413 160.038 33.3782 160.308 33.3782C160.582 33.3782 160.824 33.4413 161.036 33.5658C161.252 33.6921 161.42 33.8653 161.541 34.0854C161.66 34.3073 161.721 34.5617 161.721 34.8504ZM160.308 33.8184C160.063 33.8184 159.856 33.8942 159.688 34.0421C159.524 34.1919 159.429 34.3885 159.4 34.6339H161.224C161.195 34.3939 161.096 34.1991 160.928 34.0493C160.764 33.896 160.557 33.8184 160.308 33.8184Z" fill="black"/>
<path d="M163.298 33.8833C163.388 33.721 163.521 33.5947 163.694 33.5081C163.871 33.4215 164.085 33.3782 164.336 33.3782V33.8833C164.307 33.8797 164.267 33.8761 164.22 33.8761C163.941 33.8761 163.719 33.9609 163.557 34.1287C163.399 34.2929 163.319 34.5292 163.319 34.836V36.2577H162.808V33.407H163.298V33.8833Z" fill="black"/>
<path d="M167.9 33.4072L166.523 36.5393C166.397 36.8316 166.252 37.0373 166.09 37.1527C165.932 37.2718 165.737 37.3332 165.506 37.3332C165.366 37.3332 165.229 37.3079 165.095 37.261C164.966 37.2177 164.861 37.1527 164.778 37.0661L164.995 36.6836C165.142 36.8226 165.314 36.8929 165.506 36.8929C165.631 36.8929 165.733 36.8586 165.816 36.7919C165.903 36.7233 165.979 36.6115 166.047 36.4527L166.141 36.2506L164.886 33.4072H165.42L166.415 35.6877L167.395 33.4072H167.9Z" fill="black"/>
</svg>
