<svg width="225" height="216" viewBox="0 0 225 216" fill="none" xmlns="http://www.w3.org/2000/svg">
<path d="M140.988 69.1135C140.988 69.1135 151.189 70.9961 152.011 71.2383C152.833 71.4805 156.065 73.1554 156.229 74.2351C156.315 75.6524 156.315 77.0743 156.229 78.4916C156.229 78.4916 155.641 79.0107 155.281 77.9725C155.039 76.9636 154.935 75.9211 154.971 74.8788L153.162 74.1175L154.149 76.0346L154.313 80.5264C154.313 80.5264 153.048 80.4018 152.802 79.3291C152.647 78.5818 152.566 77.8183 152.561 77.052L151.246 75.8339L152.233 77.2943L152.561 80.5264C152.561 80.5264 151.6 80.8724 151.297 80.1526C151.074 79.2194 150.964 78.2586 150.968 77.2943L147.249 75.8685L144.789 77.3704L140.191 74.5604L140.988 69.1135Z" fill="#FFBE9D"/>
<path d="M105.267 41.5193C105.318 41.7408 117.561 60.2062 117.561 60.2062L142.162 68.5807L141.043 78.6924L110.896 72.0482L100.195 58.6074L105.267 41.5193Z" fill="#E46C0A"/>
<g opacity="0.2">
<path d="M105.271 41.519C105.322 41.7405 117.565 60.206 117.565 60.206L142.166 68.5805L141.047 78.6922L110.9 72.048L100.199 58.6072L105.271 41.519Z" fill="black"/>
</g>
<path d="M62.416 66.9126H12.1515C11.0862 66.9126 10.2227 67.8577 10.2227 69.0235V75.5224C10.2227 76.6883 11.0862 77.6334 12.1515 77.6334H62.416C63.4813 77.6334 64.3448 76.6883 64.3448 75.5224V69.0235C64.3448 67.8577 63.4813 66.9126 62.416 66.9126Z" fill="#F5F5F5"/>
<path d="M62.4257 77.6334C62.4257 77.6334 62.5332 77.6334 62.7419 77.585C63.144 77.504 63.5115 77.2831 63.7895 76.9551C64.0676 76.6271 64.2414 76.2096 64.285 75.7647C64.285 75.1142 64.285 74.339 64.285 73.4808C64.285 72.6226 64.285 71.6605 64.285 70.6155C64.285 70.0895 64.285 69.5427 64.285 68.9752C64.2767 68.6943 64.2163 68.4182 64.1076 68.1636C63.9989 67.909 63.8441 67.6812 63.6526 67.494C63.4449 67.3018 63.2009 67.1623 62.938 67.0857C62.6578 67.0189 62.3701 66.9979 62.0842 67.0234H60.2376H56.2217L12.1992 67.0788C11.953 67.0784 11.7094 67.1342 11.484 67.2426C11.2586 67.3511 11.0563 67.5098 10.8901 67.7086C10.7259 67.9098 10.6008 68.1455 10.5225 68.4013C10.4442 68.6572 10.4144 68.9278 10.4348 69.1966C10.4348 70.3594 10.4348 71.5152 10.4348 72.6572V75.2526C10.4227 75.5175 10.444 75.783 10.498 76.0416C10.5925 76.4158 10.7867 76.7506 11.056 77.0034C11.3252 77.2561 11.6572 77.4152 12.0095 77.4604C12.2309 77.4604 12.5028 77.4604 12.7558 77.4604H24.4428L44.2311 77.5019L57.5751 77.5573L61.2052 77.5919L57.5751 77.6265L44.2311 77.6819L24.4428 77.7234H12.7115C12.4522 77.7234 12.2119 77.7234 11.9273 77.7234C11.6521 77.6872 11.3858 77.5932 11.1431 77.4466C10.9012 77.2996 10.6884 77.1015 10.5169 76.8639C10.3454 76.6263 10.2186 76.3539 10.1439 76.0624C10.0758 75.7733 10.0502 75.4743 10.068 75.1765V72.6087C10.068 71.4667 10.068 70.3109 10.068 69.1482C10.0511 68.8343 10.091 68.5199 10.1854 68.223C10.2799 67.9261 10.4269 67.6525 10.6182 67.4179C10.8139 67.1811 11.0531 66.9921 11.32 66.8633C11.587 66.7345 11.8759 66.6688 12.1676 66.6704L56.1901 66.7258H62.0526C62.356 66.7121 62.6599 66.74 62.957 66.8089C63.2464 66.8948 63.5144 67.0509 63.7412 67.2657C63.955 67.4685 64.1279 67.7179 64.2488 67.9979C64.3696 68.278 64.4358 68.5825 64.4431 68.8921C64.4431 69.4596 64.4431 70.0133 64.4431 70.5393C64.4431 71.5844 64.4431 72.5395 64.4431 73.4046C64.4431 74.2698 64.4431 75.0242 64.4115 75.7024C64.3415 76.2765 64.0663 76.7967 63.6463 77.149C63.3904 77.3588 63.0902 77.4946 62.7736 77.5435C62.6627 77.5935 62.5453 77.6239 62.4257 77.6334Z" fill="#263238"/>
<path d="M198.905 214.625C213.17 213.875 224.179 200.611 223.494 184.999C222.809 169.388 210.689 157.34 196.423 158.089C182.158 158.839 171.149 172.103 171.834 187.715C172.52 203.327 184.639 215.375 198.905 214.625Z" fill="#263238"/>
<path d="M171.813 185.879C171.813 185.879 171.813 185.928 171.813 185.955C171.756 193.431 174.404 200.628 179.179 205.975C183.954 211.321 190.468 214.383 197.299 214.49C204.129 214.598 210.722 211.744 215.636 206.55C220.55 201.357 223.386 194.247 223.526 186.772C223.526 186.772 223.526 186.724 223.526 186.696L171.813 185.879Z" fill="#263238"/>
<path d="M179.51 186.073C179.458 190.002 180.471 193.861 182.423 197.16C184.375 200.459 187.176 203.051 190.474 204.607C193.771 206.164 197.417 206.615 200.949 205.904C204.481 205.193 207.74 203.352 210.316 200.614C212.892 197.875 214.668 194.362 215.419 190.519C216.171 186.676 215.864 182.675 214.537 179.023C213.211 175.371 210.925 172.231 207.968 170C205.011 167.77 201.516 166.55 197.926 166.493C193.111 166.417 188.466 168.437 185.013 172.109C181.559 175.781 179.58 180.804 179.51 186.073Z" fill="#FAFAFA"/>
<path d="M197.928 166.493C193.113 166.417 188.468 168.437 185.015 172.109C181.561 175.781 179.582 180.804 179.512 186.073L215.819 186.647C215.888 181.378 214.042 176.295 210.687 172.515C207.332 168.736 202.742 166.57 197.928 166.493Z" fill="#E0E0E0"/>
<path d="M186.607 186.184C186.574 188.578 187.192 190.928 188.38 192.939C189.569 194.949 191.275 196.528 193.284 197.477C195.293 198.425 197.514 198.701 199.665 198.268C201.817 197.835 203.803 196.714 205.373 195.046C206.942 193.378 208.024 191.238 208.482 188.896C208.94 186.555 208.754 184.118 207.946 181.892C207.138 179.667 205.745 177.754 203.944 176.396C202.142 175.037 200.013 174.293 197.826 174.259C194.893 174.212 192.064 175.443 189.96 177.679C187.856 179.915 186.65 182.974 186.607 186.184Z" fill="#263238"/>
<path d="M185.39 144.865C185.39 144.865 211.863 136.103 222.81 167.58L167.41 186.364L185.39 144.865Z" fill="#E46C0A"/>
<path d="M39.358 214.628C53.6233 213.878 64.6322 200.614 63.947 185.002C63.2618 169.391 51.142 157.343 36.8766 158.092C22.6112 158.842 11.6024 172.106 12.2876 187.718C12.9728 203.33 25.0926 215.378 39.358 214.628Z" fill="#263238"/>
<path d="M12.2626 185.879C12.2626 185.879 12.2626 185.928 12.2626 185.955C12.2052 193.431 14.8532 200.628 19.6283 205.975C24.4033 211.321 30.9174 214.383 37.7481 214.49C44.5787 214.598 51.1709 211.744 56.0849 206.55C60.9989 201.357 63.8355 194.247 63.9753 186.772V186.682L12.2626 185.879Z" fill="#263238"/>
<path d="M19.9824 186.073C19.9302 190.002 20.944 193.861 22.8957 197.16C24.8473 200.459 27.649 203.051 30.9465 204.607C34.2441 206.164 37.8893 206.615 41.4212 205.904C44.9531 205.193 48.2131 203.352 50.7889 200.614C53.3647 197.875 55.1406 194.362 55.8919 190.519C56.6433 186.676 56.3365 182.675 55.0102 179.023C53.6839 175.371 51.3977 172.231 48.4408 170C45.484 167.77 41.9891 166.55 38.3983 166.493C33.5838 166.417 28.939 168.437 25.4854 172.109C22.0318 175.781 20.0523 180.804 19.9824 186.073Z" fill="#FAFAFA"/>
<path d="M38.375 166.493C33.5649 166.425 28.9265 168.448 25.4784 172.12C22.0303 175.791 20.0543 180.809 19.9844 186.073L56.2914 186.648C56.3257 184.036 55.8893 181.443 55.0072 179.017C54.1251 176.59 52.8146 174.378 51.1506 172.506C49.4866 170.634 47.5018 169.14 45.3097 168.108C43.1176 167.076 40.7611 166.528 38.375 166.493Z" fill="#E0E0E0"/>
<path d="M27.0559 186.184C27.0236 188.578 27.6408 190.928 28.8294 192.939C30.0179 194.949 31.7245 196.528 33.7333 197.477C35.7421 198.425 37.9628 198.701 40.1146 198.268C42.2664 197.835 44.2526 196.714 45.822 195.046C47.3915 193.378 48.4736 191.238 48.9316 188.896C49.3895 186.555 49.2028 184.118 48.3949 181.892C47.5871 179.667 46.1944 177.754 44.393 176.396C42.5917 175.037 40.4626 174.293 38.275 174.259C35.3424 174.212 32.5131 175.443 30.4093 177.679C28.3054 179.915 27.0992 182.974 27.0559 186.184Z" fill="#263238"/>
<path d="M74.8953 174.999C74.7498 175.082 61.2857 172.722 61.2857 172.722C60.5577 173.762 59.631 174.615 58.5704 175.223C57.5097 175.83 56.3406 176.176 55.1449 176.238C49.3267 176.542 43.6413 176.826 38.7021 177.068C36.4953 177.176 34.4175 178.237 32.9239 180.018C31.4304 181.799 30.6427 184.156 30.7336 186.571C30.8224 188.864 31.6957 191.036 33.18 192.656C34.6644 194.277 36.6513 195.228 38.7464 195.319L67.4138 196.558C72.1253 196.759 78.3862 193.631 81.3269 189.596L74.8953 174.999Z" fill="#455A64"/>
<path d="M4.53816 162.458C4.53816 162.458 3.31127 134.878 26.9953 129.133V125.596H109.956V134.082C109.956 134.082 97.7816 150.132 101.734 163.455C105.687 176.778 106.952 178.141 106.952 178.141H154.168C157.894 172.411 159.97 165.593 160.132 158.562C160.384 146.865 155.945 126.87 152.625 114.087C149.627 102.425 147.73 92.7074 147.73 92.7074L161.896 87.5374C161.896 87.5374 188.11 125.084 189.178 127.161C190.247 129.237 193.89 134.192 193.036 144.975C192.182 155.758 168.6 189.021 162.415 192.772C156.23 196.524 150.639 196.759 145.067 197.693C140.236 198.51 104.492 197.97 95.1381 197.811C91.8878 197.789 88.7012 196.821 85.9048 195.008C83.1095 193.153 81.0099 190.08 78.689 185.042L73.7372 174.494L4.53816 162.458Z" fill="#E46C0A"/>
<path d="M10.8888 160.562L0.44133 178.474C0.131209 178.97 -0.0227589 179.564 0.00272204 180.164C0.028203 180.765 0.231733 181.341 0.582546 181.803C0.933359 182.266 1.41238 182.592 1.94714 182.73C2.4819 182.869 3.04332 182.813 3.5465 182.571C4.8466 181.935 6.03459 181.054 7.0564 179.969C11.8311 174.992 20.3371 161.884 20.3371 161.884L10.8888 160.562Z" fill="#455A64"/>
<path d="M85.825 163.787C85.825 163.787 85.825 163.697 85.8882 163.524L86.0969 162.77C86.3484 161.801 86.5323 160.813 86.6471 159.814C86.9972 156.117 86.4383 152.385 85.0282 149.004C84.0798 146.67 82.7777 144.529 81.1768 142.671C79.3382 140.549 77.2036 138.759 74.8526 137.369C72.2471 135.83 69.4589 134.693 66.5679 133.992C63.4512 133.256 60.2701 132.896 57.0817 132.919C53.9075 132.944 50.7384 133.201 47.5954 133.687C44.5346 134.137 41.6001 134.691 38.8301 135.383C33.9124 136.526 29.1725 138.445 24.7589 141.079C21.7949 142.879 19.087 145.143 16.7209 147.799C15.8861 148.741 15.2853 149.523 14.8869 150.056L14.4379 150.672C14.3899 150.745 14.3348 150.812 14.2734 150.872C14.9712 149.742 15.7584 148.682 16.626 147.702C18.9719 144.996 21.6749 142.688 24.6451 140.858C29.0664 138.176 33.8249 136.221 38.7669 135.058C41.5369 134.366 44.4587 133.791 47.5512 133.334C50.7193 132.844 53.9137 132.585 57.1133 132.559C60.3191 132.536 63.5175 132.9 66.6502 133.646C69.5697 134.371 72.3833 135.536 75.0107 137.106C77.3947 138.516 79.5574 140.334 81.4171 142.491C83.0295 144.381 84.3362 146.558 85.2811 148.928C86.6855 152.354 87.2145 156.133 86.8116 159.863C86.6787 160.866 86.4671 161.855 86.1792 162.818C86.078 163.137 86.0021 163.379 85.9388 163.566C85.9069 163.643 85.8687 163.717 85.825 163.787Z" fill="#263238"/>
<path d="M81.046 157.614C81.008 157.614 81.1788 157.178 81.3558 156.389C81.5928 155.253 81.6251 154.077 81.4507 152.928C81.2045 151.238 80.6818 149.611 79.9076 148.125C79.4695 147.235 78.9571 146.392 78.3772 145.605C77.77 144.75 77.081 143.968 76.3218 143.273C74.842 141.94 73.1767 140.874 71.389 140.117C69.9263 139.489 68.4092 139.025 66.8609 138.733C65.8141 138.539 64.7585 138.408 63.6988 138.338C63.3094 138.333 62.9208 138.3 62.5352 138.241C62.6358 138.225 62.7381 138.225 62.8387 138.241C63.0348 138.241 63.3257 138.241 63.7051 138.241C64.7638 138.258 65.8202 138.353 66.8672 138.525C68.4403 138.772 69.9841 139.206 71.4712 139.819C73.3049 140.575 75.0137 141.653 76.5305 143.01C77.3047 143.724 78.0084 144.524 78.6301 145.398C79.2115 146.207 79.7258 147.071 80.1669 147.979C80.9498 149.503 81.4606 151.175 81.6721 152.907C81.8292 154.077 81.7625 155.269 81.476 156.409C81.4011 156.717 81.2995 157.016 81.1725 157.302C81.1438 157.412 81.1013 157.517 81.046 157.614Z" fill="#F5F5F5"/>
<g opacity="0.4">
<path d="M64.8008 133.431C69.2661 134.324 73.5169 136.208 77.291 138.968C81.0857 141.725 84.0082 145.7 85.6579 150.346C87.3148 155.011 87.0682 161.192 85.3227 165.054L91.1852 165.587C93.1583 158.382 91.0144 149.544 86.2713 143.903C83.5573 140.614 80.2458 137.981 76.5487 136.173C72.8515 134.365 68.8502 133.422 64.8008 133.404" fill="black"/>
</g>
<path d="M62.9275 77.0935H11.6449C8.64812 77.0935 6.21875 79.7522 6.21875 83.0318V119.679C6.21875 122.959 8.64812 125.617 11.6449 125.617H62.9275C65.9243 125.617 68.3536 122.959 68.3536 119.679V83.0318C68.3536 79.7522 65.9243 77.0935 62.9275 77.0935Z" fill="#455A64"/>
<path d="M68.3575 87.918C68.3575 88.0218 54.3875 88.0979 37.1604 88.0979C19.9334 88.0979 5.95703 88.0218 5.95703 87.918C5.95703 87.8142 19.9208 87.738 37.1604 87.738C54.4001 87.738 68.3575 87.8211 68.3575 87.918Z" fill="#263238"/>
<path d="M109.918 128.829C109.918 128.926 91.2681 129.009 68.2735 129.009C45.2788 129.009 26.6289 128.926 26.6289 128.829C26.6289 128.732 45.2725 128.649 68.2735 128.649C91.2745 128.649 109.918 128.732 109.918 128.829Z" fill="#263238"/>
<path d="M109.955 125.617C110.8 124.445 111.323 123.033 111.46 121.548C111.587 119.271 110.638 116.419 108.393 116.419H79.7447C77.5156 116.419 75.3778 117.388 73.8016 119.113C72.2253 120.838 71.3398 123.178 71.3398 125.617H109.955Z" fill="#455A64"/>
<path d="M147.728 92.7077L142.745 81.3363C142.08 79.7752 141.97 77.9988 142.438 76.3541C142.906 74.7095 143.917 73.3148 145.275 72.4427L160.174 62.7186C160.952 62.2071 161.841 61.9367 162.748 61.9365H165.967L167.232 84.9215L162.274 87.0185L165.436 92.6108L147.728 92.7077Z" fill="#E46C0A"/>
<path d="M166.012 62.7947C166.012 62.7947 171.109 64.0751 171.748 72.6711C172.386 81.267 167.251 83.9524 167.251 83.9524L166.012 62.7947Z" fill="#EBEBEB"/>
<path d="M149.47 76.879C149.47 76.879 139.168 82.2221 137.909 83.108C137.037 83.717 136.29 84.7829 136.973 86.6585C138.137 89.8491 142.956 86.8454 142.956 86.8454L152.55 81.5992C152.55 81.5992 156.237 79.6959 154.871 77.3081C153.347 74.6366 149.47 76.879 149.47 76.879Z" fill="#263238"/>
<path d="M134.885 74.9341C134.885 74.9341 144.567 76.7474 145.389 77.0104C146.212 77.2734 149.437 78.9275 149.601 80.0072C149.687 81.4245 149.687 82.8464 149.601 84.2637C149.601 84.2637 149.02 84.7828 148.653 83.7446C148.414 82.7326 148.31 81.6884 148.343 80.644L146.534 79.8827L147.521 81.7998L147.685 86.2985C147.685 86.2985 146.42 86.1739 146.18 85.0942C146.025 84.3493 145.944 83.5881 145.94 82.8241L144.618 81.5991L145.604 83.0594L145.94 86.2985C145.94 86.2985 144.978 86.6376 144.675 85.9178C144.452 84.9847 144.342 84.0238 144.346 83.0594L140.627 81.6406L138.167 83.1425L134.297 80.7893L134.885 74.9341Z" fill="#FFBE9D"/>
<path d="M149.962 60.1783C149.962 64.4694 148.16 67.9438 145.94 67.9438C143.72 67.9438 141.918 64.4832 141.918 60.1783C141.918 55.8734 143.714 52.4128 145.94 52.4128C148.166 52.4128 149.962 55.8734 149.962 60.1783Z" fill="#263238"/>
<path d="M146.602 65.5147L148.815 73.903C149.219 73.6803 149.541 73.3133 149.729 72.8627C149.916 72.4121 149.958 71.905 149.846 71.4253C149.289 68.553 148.973 66.5113 148.366 63.992C148.29 63.7429 146.602 65.5147 146.602 65.5147Z" fill="#263238"/>
<g opacity="0.4">
<path d="M102.831 167.005C102.616 166.313 102.388 165.621 102.198 164.881C102.009 164.14 101.768 163.496 101.604 162.804C101.349 161.766 101.163 160.709 101.047 159.641C97.316 176.252 103.014 187.969 112.791 188.793C127.084 189.997 144.507 190.869 151.552 188.848C164.396 185.159 169.108 173.435 170.234 171.504C171.359 169.573 181.573 149.135 175.293 129.459C169.013 109.782 158.123 88.8872 158.123 88.8872L147.732 92.7076C147.732 92.7076 149.63 102.397 152.646 114.052C155.966 126.836 160.406 146.831 160.153 158.527C159.992 165.558 157.915 172.376 154.189 178.107H106.979C106.979 178.107 105.967 177 102.85 167.033" fill="black"/>
</g>
<path d="M2.65534 158.153L2.99052 154.208L89.1762 165.074C90.328 165.223 91.44 165.627 92.444 166.263C93.4479 166.898 94.3225 167.752 95.0142 168.77C95.7059 169.789 96.2001 170.952 96.4664 172.187C96.7327 173.423 96.7655 174.705 96.5628 175.954L96.177 178.342L7.00636 164.161C5.71302 163.967 4.53813 163.234 3.72727 162.114C2.9164 160.995 2.53233 159.576 2.65534 158.153Z" fill="#E46C0A"/>
<g opacity="0.6">
<path d="M2.65534 158.153L2.99052 154.208L89.1762 165.074C90.328 165.223 91.44 165.627 92.444 166.263C93.4479 166.898 94.3225 167.752 95.0142 168.77C95.7059 169.789 96.2001 170.952 96.4664 172.187C96.7327 173.423 96.7655 174.705 96.5628 175.954L96.177 178.342L7.00636 164.161C5.71302 163.967 4.53813 163.234 3.72727 162.114C2.9164 160.995 2.53233 159.576 2.65534 158.153Z" fill="black"/>
</g>
<g opacity="0.3">
<path d="M170.234 184.536C170.234 184.536 189.207 161.697 193.122 143.743C195.088 143.731 197.053 143.891 198.997 144.221C198.997 144.221 187.778 177.601 170.234 184.536Z" fill="black"/>
</g>
<path d="M192.839 135.701C192.888 135.889 192.922 136.081 192.94 136.276C192.991 136.656 193.092 137.217 193.155 137.944C193.34 140.019 193.291 142.111 193.01 144.173C192.564 147.218 191.712 150.175 190.48 152.949C188.977 156.326 187.301 159.607 185.459 162.776C182.153 168.561 178.44 174.055 174.354 179.207C172.81 181.207 171.533 182.799 170.648 183.893L169.623 185.145C169.507 185.294 169.382 185.435 169.25 185.568C169.344 185.402 169.452 185.247 169.572 185.104L170.553 183.803L174.177 179.048C178.199 173.856 181.876 168.356 185.181 162.59C187.025 159.43 188.713 156.166 190.24 152.81C191.456 150.063 192.307 147.141 192.77 144.131C193.06 142.099 193.143 140.037 193.016 137.985C192.972 137.258 192.89 136.698 192.864 136.31C192.837 136.109 192.829 135.905 192.839 135.701Z" fill="#263238"/>
<path d="M160.041 184.37C158.955 183.461 157.938 182.456 156.999 181.367C155.987 180.362 155.048 179.272 154.191 178.107C156.292 180.019 158.249 182.113 160.041 184.37Z" fill="#263238"/>
<path d="M103.73 183.671C104.036 182.605 104.509 181.605 105.128 180.716C105.656 179.76 106.329 178.91 107.12 178.204C107.19 178.28 106.323 179.415 105.4 180.917C104.477 182.419 103.819 183.713 103.73 183.671Z" fill="#263238"/>
<path d="M67.2809 196.856C68.3185 195.82 69.1925 194.604 69.8675 193.257C70.5756 191.785 71.0057 190.173 71.1323 188.516C71.3241 186.495 71.0014 184.456 70.2 182.624C69.3986 180.792 68.1498 179.238 66.5916 178.134C65.3354 177.2 63.9201 176.553 62.4303 176.231C61.0495 175.958 59.637 175.937 58.25 176.169C58.3392 176.127 58.4326 176.096 58.5283 176.079C58.8029 176 59.0817 175.94 59.363 175.899C60.3977 175.747 61.4478 175.775 62.4745 175.982C64.0064 176.278 65.4661 176.916 66.7623 177.857C68.3827 178.984 69.6805 180.587 70.507 182.483C71.3336 184.379 71.6555 186.491 71.4359 188.578C71.2908 190.279 70.8257 191.928 70.0699 193.423C69.5728 194.428 68.9323 195.339 68.1726 196.122C67.9739 196.338 67.7626 196.539 67.5402 196.724C67.4589 196.779 67.3719 196.824 67.2809 196.856Z" fill="#263238"/>
<path d="M35.794 189.624C35.577 188.532 35.4731 187.418 35.4841 186.301C35.3751 185.188 35.3751 184.065 35.4841 182.952C35.7999 185.158 35.8975 187.395 35.775 189.624H35.794Z" fill="#263238"/>
<path d="M38.0943 189.63C37.621 187.438 37.3602 185.197 37.3164 182.945C37.6045 184.028 37.7889 185.141 37.8666 186.267C38.0498 187.376 38.1261 188.504 38.0943 189.63Z" fill="#263238"/>
<path d="M73.6464 125.617C73.6464 125.714 63.1673 125.797 50.2471 125.797C37.3268 125.797 26.8477 125.714 26.8477 125.617C26.8477 125.52 37.3268 125.437 50.2471 125.437C63.1673 125.437 73.6464 125.513 73.6464 125.617Z" fill="#263238"/>
<path d="M39.7074 125.582C39.6125 125.582 39.543 112.432 39.543 96.2509C39.543 80.0694 39.5872 66.947 39.7074 66.947C39.8276 66.947 39.8718 80.0971 39.8718 96.2855C39.8718 112.474 39.7959 125.582 39.7074 125.582Z" fill="#263238"/>
<path d="M33.2611 125.534C33.1726 125.534 33.6216 112.384 34.2667 96.2165C34.9117 80.0488 35.5315 66.9057 35.5948 66.9126C35.658 66.9195 35.2406 80.0627 34.5955 96.2303C33.9505 112.398 33.3813 125.541 33.2611 125.534Z" fill="#263238"/>
<path d="M18.7723 205.577C18.6706 205.483 18.5774 205.379 18.494 205.265C18.3296 205.058 18.0577 204.76 17.7604 204.338C16.8862 203.163 16.1055 201.908 15.4268 200.587C13.1376 196.213 11.9423 191.257 11.9612 186.216C11.98 181.176 13.2125 176.231 15.5343 171.878C16.2201 170.562 17.0094 169.314 17.8933 168.147C18.1968 167.725 18.4688 167.455 18.6395 167.22C18.8103 166.985 18.9115 166.909 18.9178 166.922C18.8551 167.048 18.7786 167.164 18.6901 167.269C18.5383 167.497 18.279 167.801 17.9944 168.237C14.7503 172.76 12.7959 178.229 12.3752 183.96C11.9545 189.691 13.0863 195.431 15.6292 200.462C16.284 201.784 17.0303 203.05 17.8616 204.248C18.1399 204.684 18.3929 204.995 18.5447 205.224C18.6964 205.452 18.785 205.563 18.7723 205.577Z" fill="#455A64"/>
<path d="M109.377 152.845L109.181 153.246L105.361 161.074L100.023 166.694L110.692 182.239L119.578 180.626C119.578 180.626 118.585 178.404 114.12 177.975L112.431 168.687L118.699 158.056" fill="#455A64"/>
<path d="M100.035 166.715L110.704 182.259L119.589 180.647L118.369 179.366L111.077 180.238L101.174 165.517L100.035 166.715Z" fill="#E0E0E0"/>
<path d="M113.424 173.726C113.374 173.837 112.792 173.608 112.159 173.76C111.527 173.913 111.015 174.307 110.932 174.224C110.85 174.141 111.249 173.491 112.083 173.331C112.918 173.172 113.494 173.636 113.424 173.726Z" fill="#263238"/>
<path d="M112.946 171.456C112.87 171.539 112.383 171.04 111.681 171.013C110.979 170.985 110.416 171.449 110.359 171.359C110.302 171.269 110.404 171.144 110.631 170.944C110.939 170.698 111.313 170.571 111.694 170.584C112.075 170.595 112.441 170.749 112.731 171.02C112.902 171.213 112.946 171.4 112.946 171.456Z" fill="#263238"/>
<path d="M112.536 168.445C112.448 168.521 112.056 168.016 111.404 167.891C110.753 167.767 110.228 168.092 110.139 167.988C110.051 167.884 110.196 167.787 110.43 167.642C110.739 167.463 111.094 167.403 111.438 167.47C111.782 167.538 112.095 167.73 112.328 168.016C112.543 168.237 112.581 168.417 112.536 168.445Z" fill="#263238"/>
<path d="M114.56 165.711C114.465 165.767 114.13 165.261 113.516 164.971C112.903 164.68 112.346 164.721 112.321 164.604C112.296 164.486 112.953 164.202 113.681 164.604C114.408 165.005 114.667 165.677 114.56 165.711Z" fill="#263238"/>
<path d="M115.42 163.503C115.376 163.538 115.028 163.205 114.49 162.624L113.58 161.593C113.374 161.391 113.195 161.158 113.049 160.901C113.006 160.808 112.981 160.707 112.974 160.604C112.968 160.501 112.98 160.397 113.011 160.299C113.047 160.187 113.112 160.089 113.199 160.017C113.285 159.946 113.389 159.904 113.498 159.897C113.821 159.902 114.136 160.013 114.402 160.216C114.634 160.378 114.846 160.571 115.034 160.79C115.349 161.169 115.58 161.621 115.711 162.112C115.878 162.555 115.878 163.053 115.711 163.496C115.647 163.068 115.558 162.645 115.445 162.23C115.291 161.804 115.061 161.416 114.769 161.088C114.596 160.9 114.403 160.738 114.193 160.603C113.992 160.459 113.762 160.371 113.523 160.347C113.49 160.348 113.457 160.359 113.43 160.38C113.403 160.401 113.383 160.431 113.371 160.465C113.337 160.556 113.337 160.658 113.371 160.749C113.494 160.971 113.643 161.176 113.814 161.358L114.68 162.458C114.976 162.761 115.226 163.114 115.42 163.503Z" fill="#263238"/>
<path d="M115.783 163.732C115.739 163.732 115.695 163.22 116.087 162.548C116.354 162.105 116.744 161.768 117.2 161.587C117.655 161.407 118.152 161.392 118.617 161.545C118.667 161.581 118.711 161.629 118.743 161.685C118.776 161.741 118.797 161.804 118.806 161.87C118.815 161.983 118.793 162.096 118.743 162.195C118.672 162.334 118.58 162.458 118.471 162.562C118.295 162.748 118.105 162.917 117.902 163.067C117.56 163.319 117.185 163.511 116.789 163.635C116.436 163.792 116.046 163.823 115.676 163.725C115.676 163.656 116.087 163.614 116.7 163.344C117.053 163.191 117.387 162.989 117.693 162.742C117.874 162.596 118.043 162.434 118.199 162.258C118.276 162.184 118.342 162.097 118.395 162.002C118.427 161.905 118.395 161.932 118.395 161.912C118.309 161.871 118.217 161.85 118.123 161.849C118.012 161.839 117.9 161.839 117.788 161.849C117.571 161.87 117.358 161.926 117.156 162.015C116.814 162.161 116.511 162.399 116.277 162.707C116.091 163.036 115.926 163.379 115.783 163.732Z" fill="#263238"/>
<path d="M107.08 165.129C107.115 165.358 107.087 165.592 107 165.803C106.913 166.014 106.77 166.192 106.591 166.315C106.411 166.437 106.203 166.498 105.991 166.491C105.78 166.483 105.575 166.407 105.403 166.273C105.231 166.138 105.1 165.95 105.025 165.733C104.951 165.517 104.937 165.281 104.985 165.055C105.033 164.83 105.141 164.625 105.296 164.467C105.451 164.309 105.644 164.205 105.853 164.167C106.132 164.119 106.417 164.193 106.647 164.373C106.876 164.553 107.032 164.825 107.08 165.129Z" fill="#E0E0E0"/>
<path d="M141.758 160.32L144.61 180.584L167.674 176.833C167.206 174.445 154.621 171.546 154.621 171.546L153.28 158.479L141.758 160.32Z" fill="#455A64"/>
<path d="M147.343 171.615C147.13 171.724 146.962 171.915 146.871 172.151C146.78 172.388 146.772 172.653 146.849 172.895C146.943 173.13 147.115 173.317 147.329 173.418C147.544 173.52 147.786 173.528 148.007 173.442C148.235 173.324 148.415 173.116 148.51 172.859C148.605 172.603 148.608 172.317 148.519 172.058C148.4 171.821 148.201 171.645 147.965 171.566C147.729 171.487 147.474 171.512 147.254 171.636" fill="#E0E0E0"/>
<path d="M144.61 180.585L144.395 178.508L166.586 175.677C166.586 175.677 167.68 176.003 167.674 176.813L144.61 180.585Z" fill="#E0E0E0"/>
<path d="M154.97 171.358C154.97 171.483 154.432 171.628 153.926 172.113C153.42 172.597 153.205 173.165 153.091 173.137C152.977 173.11 153.053 172.362 153.667 171.788C154.28 171.213 154.982 171.241 154.97 171.358Z" fill="#263238"/>
<path d="M157.54 172.058C157.584 172.175 157.123 172.459 156.813 173.047C156.503 173.636 156.465 174.196 156.351 174.21C156.237 174.224 156.073 173.518 156.471 172.826C156.87 172.134 157.521 171.94 157.54 172.058Z" fill="#263238"/>
<path d="M159.345 174.999C159.244 175.048 159.004 174.453 159.2 173.733C159.396 173.013 159.889 172.653 159.952 172.75C160.016 172.847 159.737 173.262 159.579 173.857C159.421 174.452 159.453 174.972 159.345 174.999Z" fill="#263238"/>
<path d="M154.365 168.417C154.365 168.535 153.796 168.452 153.163 168.597C152.531 168.743 152.069 169.054 151.993 168.957C151.917 168.86 152.341 168.341 153.081 168.175C153.821 168.009 154.409 168.307 154.365 168.417Z" fill="#263238"/>
<path d="M153.422 165.51C153.058 165.684 152.658 165.746 152.265 165.69C151.837 165.677 151.412 165.608 151 165.483C150.748 165.417 150.5 165.331 150.26 165.227C150.119 165.171 149.989 165.089 149.874 164.984C149.787 164.911 149.726 164.807 149.7 164.689C149.675 164.572 149.687 164.449 149.735 164.341C149.78 164.245 149.844 164.162 149.923 164.098C150.002 164.035 150.094 163.992 150.19 163.974C150.335 163.949 150.482 163.949 150.627 163.974C150.884 163.995 151.138 164.046 151.385 164.126C151.801 164.255 152.195 164.454 152.555 164.714C153.188 165.171 153.409 165.6 153.371 165.635C153.333 165.669 153.011 165.337 152.41 164.977C152.057 164.769 151.681 164.613 151.291 164.514C151.063 164.448 150.83 164.409 150.595 164.396C150.342 164.396 150.133 164.396 150.089 164.527C150.045 164.659 150.089 164.59 150.133 164.666C150.22 164.738 150.316 164.796 150.418 164.839C150.635 164.946 150.856 165.041 151.082 165.123C151.467 165.257 151.863 165.352 152.265 165.406C152.652 165.411 153.039 165.446 153.422 165.51Z" fill="#263238"/>
<path d="M153.291 165.711C153.253 165.711 152.969 165.33 152.817 164.541C152.748 164.083 152.748 163.616 152.817 163.157C152.858 162.879 152.922 162.606 153.007 162.341C153.045 162.166 153.123 162.005 153.234 161.873C153.344 161.741 153.484 161.643 153.639 161.586C153.742 161.572 153.846 161.59 153.94 161.637C154.034 161.685 154.114 161.761 154.171 161.856C154.25 161.996 154.312 162.147 154.354 162.306C154.431 162.582 154.47 162.869 154.468 163.157C154.468 163.64 154.359 164.115 154.152 164.541C153.791 165.234 153.342 165.49 153.329 165.448C153.317 165.407 153.639 165.095 153.899 164.41C154.049 164.016 154.119 163.591 154.101 163.164C154.095 162.917 154.054 162.672 153.981 162.437C153.911 162.174 153.791 161.974 153.703 162.015C153.614 162.057 153.418 162.264 153.355 162.493C153.269 162.73 153.203 162.976 153.159 163.226C153.087 163.653 153.07 164.089 153.108 164.521C153.165 165.227 153.348 165.683 153.291 165.711Z" fill="#263238"/>
<path d="M123.612 112.716L103.836 159.877L116.895 168.459L144.241 111.713" fill="#263238"/>
<path d="M156.223 169.531L142.038 172.023L133.545 116.557L91.5837 119.886C90.4738 119.971 89.3587 119.856 88.2825 119.547C76.5006 116.011 78.0943 99.5662 79.2326 96.9292L137.295 95.109C140.337 95.0122 143.304 96.1473 145.629 98.2967C147.954 100.446 149.472 103.459 149.892 106.757L156.223 169.531Z" fill="#263238"/>
<path d="M78.6483 99.5316L78.857 76.083C78.857 76.083 76.0933 60.8566 75.2712 54.8422C74.0064 45.5402 72.2609 41.1177 86.1867 34.508L89.2349 33.2207L93.9465 33.2899C99.5623 33.7536 105.482 39.3113 105.621 42.9794L111.053 95.8358L78.6483 99.5316Z" fill="#E46C0A"/>
<path d="M79.5202 39.9551C79.5202 39.9551 75.5866 49.2155 76.3581 57.6523L91.0112 73.0448C94.2934 77.0452 98.4041 78.7478 103.659 79.0938L133.978 82.7205L134.819 74.0414L105.993 65.0994C104.842 64.8641 104.267 63.556 103.388 62.7116L79.5202 39.9551Z" fill="#E46C0A"/>
<path d="M77.1445 42.6265C77.3148 42.4484 77.5115 42.3033 77.7263 42.1974C78.3506 41.8965 79.0107 41.6937 79.6868 41.5953C80.7716 41.4005 81.878 41.4005 82.9627 41.5953C83.2978 41.6618 83.6219 41.7831 83.924 41.9552C84.2329 42.1673 84.5307 42.3984 84.8157 42.6473C85.3975 43.1456 85.9857 43.72 86.5865 44.3429C87.8007 45.5818 88.9517 47.1529 90.2988 48.7447C91.6458 50.3366 93.1194 52.0461 94.7257 53.8387C96.332 55.6312 98.0585 57.5068 99.9052 59.4448C100.835 60.4137 101.802 61.3965 102.808 62.3585C103.32 62.8153 103.826 63.3552 104.313 63.8604C104.772 64.3799 105.351 64.7531 105.989 64.9401L134.871 73.8683L135.004 73.9098V74.0621C134.947 74.6781 134.878 75.3356 134.815 76.0069C134.593 78.3116 134.372 80.5956 134.182 82.7411V82.9211H134.018L121.167 81.3569L115.096 80.6302L109.284 79.9865C107.387 79.7581 105.559 79.5228 103.782 79.2391C102.046 79.0058 100.337 78.572 98.6846 77.9448C97.1612 77.3101 95.7198 76.4609 94.3968 75.4186C93.132 74.4427 91.9431 73.4253 90.849 72.4218C86.5169 68.3799 83.3359 64.7601 81.1287 62.2962C80.0347 61.0574 79.1935 60.0815 78.6307 59.4171L77.9983 58.6557L77.7896 58.3858C77.7896 58.3858 77.8718 58.462 78.0236 58.6281C78.1754 58.7942 78.3967 59.0502 78.656 59.3686L81.1857 62.2063C83.4181 64.6356 86.6244 68.2276 90.9628 72.2349C92.0569 73.2246 93.2269 74.2351 94.498 75.1971C95.8124 76.2179 97.2405 77.0506 98.7479 77.6749C100.389 78.2876 102.085 78.7098 103.807 78.9345C105.584 79.2114 107.418 79.4467 109.303 79.6682L115.115 80.2911L121.186 81.0178L134.024 82.5473L133.841 82.7065C134.049 80.561 134.271 78.277 134.473 75.9654C134.543 75.2733 134.606 74.6365 134.663 74.0206L134.783 74.2143L105.945 65.2515C105.241 65.0601 104.601 64.6546 104.098 64.0819C103.586 63.549 103.124 63.0506 102.599 62.5731C101.581 61.6041 100.626 60.6144 99.6965 59.6455C97.8498 57.7006 96.1297 55.8112 94.5296 54.0117C92.9296 52.2122 91.4624 50.4958 90.1027 48.8832C88.743 47.2706 87.63 45.7064 86.4284 44.4675C85.8757 43.8674 85.2929 43.3013 84.6829 42.7719C84.4076 42.5185 84.1159 42.2872 83.8102 42.0798C83.5237 41.9093 83.2141 41.7901 82.8932 41.7268C81.8262 41.5129 80.7341 41.4942 79.6615 41.6714C78.9902 41.7539 78.3325 41.9379 77.7074 42.2182C77.5105 42.3384 77.3224 42.4749 77.1445 42.6265Z" fill="#263238"/>
<path d="M84.7186 12.8798L86.1858 35.7194C86.3026 37.5151 87.0371 39.1955 88.2412 40.4221C89.4453 41.6486 91.0294 42.33 92.6744 42.329C93.564 42.3292 94.4441 42.1296 95.2603 41.7425C96.0765 41.3555 96.8115 40.7893 97.4197 40.0789C98.0279 39.3685 98.4964 38.529 98.7963 37.6125C99.0962 36.696 99.221 35.7218 99.163 34.7504C99.0302 32.5772 98.9164 30.7985 98.9164 30.7985C98.9164 30.7985 103.976 29.9403 104.026 24.4103C104.064 21.2197 103.558 13.9802 103.128 8.42952C102.987 6.61635 102.227 4.92774 101.001 3.6993C99.7738 2.47087 98.1696 1.79253 96.5068 1.79912H93.4523C92.2083 1.88179 90.9921 2.23622 89.8753 2.84152C88.7586 3.44681 87.7638 4.29071 86.9499 5.32345C86.1359 6.35619 85.5191 7.55685 85.1359 8.85463C84.7527 10.1524 84.6108 11.521 84.7186 12.8798Z" fill="#FFBE9D"/>
<path d="M98.9194 30.7085C96.5886 30.7565 94.2972 30.0459 92.3359 28.6667C92.3359 28.6667 93.8917 32.6395 98.932 32.1273L98.9194 30.7085Z" fill="#EB996E"/>
<path d="M101.993 15.5235C101.994 15.7292 101.923 15.9276 101.793 16.0763C101.663 16.225 101.485 16.3122 101.297 16.3194C101.206 16.3289 101.115 16.3184 101.028 16.2885C100.941 16.2587 100.86 16.2101 100.791 16.1456C100.721 16.0811 100.664 16.002 100.623 15.913C100.582 15.824 100.557 15.7268 100.551 15.6273C100.549 15.4209 100.621 15.2218 100.75 15.072C100.88 14.9222 101.058 14.8334 101.246 14.8245C101.43 14.8092 101.612 14.8742 101.752 15.0052C101.891 15.1362 101.978 15.3226 101.993 15.5235Z" fill="#263238"/>
<path d="M102.259 13.9664C102.164 14.0702 101.627 13.6272 100.843 13.6272C100.058 13.6272 99.502 14.0563 99.4134 13.9525C99.3249 13.8487 99.464 13.7172 99.717 13.5234C100.05 13.2672 100.448 13.1317 100.855 13.1358C101.26 13.1348 101.655 13.2755 101.981 13.5373C102.196 13.7311 102.297 13.9179 102.259 13.9664Z" fill="#263238"/>
<path d="M94.7115 15.5235C94.7149 15.7297 94.6437 15.9291 94.5134 16.0782C94.3831 16.2273 94.2042 16.314 94.0158 16.3194C93.9251 16.3289 93.8335 16.3184 93.7465 16.2885C93.6595 16.2587 93.5789 16.2101 93.5093 16.1456C93.4398 16.0811 93.3828 16.002 93.3416 15.913C93.3004 15.824 93.2759 15.7268 93.2696 15.6273C93.2677 15.4209 93.3393 15.2218 93.4691 15.072C93.5989 14.9222 93.7768 14.8334 93.9652 14.8245C94.1488 14.8092 94.3305 14.8742 94.4703 15.0052C94.6102 15.1362 94.6969 15.3226 94.7115 15.5235Z" fill="#263238"/>
<path d="M94.6106 14.1253C94.5221 14.2291 93.9782 13.7862 93.194 13.7862C92.4098 13.7862 91.8533 14.2153 91.7711 14.1115C91.6888 14.0076 91.8153 13.8761 92.0683 13.6824C92.4014 13.4261 92.7995 13.2906 93.2066 13.2948C93.6107 13.2917 94.0051 13.4299 94.3323 13.6893C94.6106 13.89 94.6802 14.0769 94.6106 14.1253Z" fill="#263238"/>
<path d="M97.4464 20.4237C97.8569 20.2834 98.2818 20.1997 98.7112 20.1745C98.9073 20.1745 99.097 20.1053 99.1286 19.96C99.1495 19.7353 99.1029 19.5094 98.9958 19.3163L98.4014 17.6691C97.856 16.2712 97.4161 14.8268 97.0859 13.3503C97.728 14.6978 98.2735 16.0978 98.7176 17.5376L99.2741 19.1987C99.4005 19.4597 99.4386 19.7612 99.3816 20.05C99.3525 20.1269 99.3078 20.1956 99.2508 20.2508C99.1938 20.306 99.1261 20.3462 99.0527 20.3683C98.9432 20.3993 98.8307 20.4155 98.7176 20.4168C98.2958 20.4776 97.8687 20.4799 97.4464 20.4237Z" fill="#263238"/>
<path d="M95.1671 21.0121C95.2936 21.0121 95.2936 21.9257 96.0145 22.5763C96.7355 23.2268 97.6335 23.1299 97.6398 23.2684C97.6462 23.4068 97.4375 23.4414 97.058 23.4552C96.5652 23.4614 96.0861 23.2777 95.7047 22.9362C95.3468 22.6034 95.1203 22.1323 95.0722 21.6211C95.0153 21.2682 95.1102 21.0052 95.1671 21.0121Z" fill="#263238"/>
<path d="M94.8304 10.7963C94.7545 11.0247 93.983 10.9209 93.0723 11.0385C92.1616 11.1562 91.4217 11.433 91.3015 11.2254C91.1814 11.0178 91.3774 10.907 91.6746 10.6855C92.07 10.4097 92.5179 10.2369 92.9839 10.1805C93.4499 10.1241 93.9216 10.1856 94.3624 10.3603C94.6976 10.5056 94.8683 10.6855 94.8304 10.7963Z" fill="#263238"/>
<path d="M101.966 11.5091C101.833 11.7029 101.296 11.5091 100.657 11.5091C100.018 11.5091 99.4681 11.6337 99.3416 11.4329C99.2151 11.2322 99.3732 11.1423 99.6135 10.9623C99.9301 10.7352 100.304 10.6237 100.682 10.6439C101.058 10.6526 101.423 10.7879 101.726 11.0315C101.953 11.2184 102.029 11.4122 101.966 11.5091Z" fill="#263238"/>
<path d="M86.4195 17.0324C86.331 16.9909 82.9476 15.9043 83.0614 19.6832C83.1752 23.4621 86.6093 22.5623 86.6156 22.4516C86.6219 22.3409 86.4195 17.0324 86.4195 17.0324Z" fill="#FFBE9D"/>
<path d="M85.5146 21.0604C85.5146 21.0604 85.4577 21.1088 85.3565 21.1642C85.2119 21.2243 85.0522 21.2243 84.9075 21.1642C84.6813 21.0172 84.4947 20.8072 84.3669 20.5554C84.2392 20.3037 84.1748 20.0194 84.1803 19.7315C84.1619 19.4081 84.2094 19.0842 84.3194 18.7834C84.3481 18.6637 84.4027 18.5534 84.4787 18.4618C84.5546 18.3703 84.6497 18.3001 84.7558 18.2573C84.8249 18.236 84.8986 18.2416 84.9643 18.2732C85.0301 18.3047 85.0838 18.3603 85.1162 18.4304C85.1668 18.5342 85.1479 18.6103 85.1668 18.6172C85.1858 18.6242 85.2364 18.548 85.2048 18.3958C85.1836 18.3008 85.132 18.2173 85.0593 18.1604C85.0112 18.1232 84.9568 18.0967 84.8993 18.0824C84.8418 18.0682 84.7822 18.0665 84.7241 18.0774C84.5788 18.1084 84.4437 18.1812 84.3326 18.2882C84.2214 18.3952 84.1383 18.5327 84.0917 18.6865C83.9532 19.0179 83.8924 19.3818 83.9146 19.7454C83.906 20.0821 83.9893 20.414 84.1537 20.6987C84.3181 20.9835 84.5564 21.2082 84.838 21.3442C84.9308 21.371 85.0281 21.3744 85.1223 21.354C85.2166 21.3336 85.3053 21.29 85.3818 21.2265C85.5147 21.1504 85.5273 21.0673 85.5146 21.0604Z" fill="#EB996E"/>
<path d="M84.4916 16.9007C84.8201 16.8774 85.1483 16.952 85.4411 17.1165C85.734 17.281 85.9807 17.5294 86.1549 17.8351C86.3762 18.3749 86.4268 18.984 86.6482 19.5238C86.7438 19.8013 86.9183 20.0378 87.146 20.1985C87.3737 20.3593 87.6426 20.4357 87.913 20.4166C88.0923 20.3551 88.2536 20.2426 88.3802 20.0906C88.5069 19.9386 88.5944 19.7526 88.6339 19.5515C88.7067 19.1494 88.7067 18.7355 88.6339 18.3334C88.4316 16.5685 88.0964 14.8244 88.0331 13.0457C87.898 11.2611 88.2525 9.47302 89.0513 7.91023C89.4563 7.13609 90.0452 6.49636 90.7556 6.05891C91.466 5.62146 92.2713 5.40261 93.0861 5.42556C94.1613 5.52246 95.1415 6.11767 96.2103 6.29762C96.8447 6.38851 97.4898 6.32049 98.0967 6.09868C98.7037 5.87688 99.2566 5.50709 99.7139 5.01722C99.9156 4.83134 100.127 4.65804 100.346 4.49814C100.333 4.08033 100.207 3.67608 99.9858 3.33539C97.8672 1.18986 94.0601 0.566964 91.2648 1.36289C89.8451 1.74577 88.5185 2.46227 87.3773 3.46263C86.2361 4.46299 85.3075 5.72323 84.656 7.15583C83.4545 10.0212 83.8086 14.0008 84.4726 16.9007" fill="#263238"/>
<path d="M103.184 7.57119C103.184 7.57119 89.9413 2.90637 84.2116 15.4474C83.7696 13.8702 83.4813 12.2462 83.3516 10.6026C83.3516 9.4814 83.984 2.78871 90.2575 0.684701C90.2575 0.712385 99.7375 -3.24647 103.184 7.57119Z" fill="#E46C0A"/>
<path d="M91.8017 7.88282C92.0369 8.29901 92.3574 8.64962 92.7377 8.90697C93.118 9.16432 93.5479 9.32135 93.9932 9.36566C94.4385 9.40996 94.8871 9.34033 95.3036 9.16226C95.7201 8.98418 96.0931 8.70256 96.3931 8.33962C96.5238 8.70003 96.7544 9.00654 97.0525 9.21607C97.3507 9.4256 97.7013 9.52761 98.0552 9.50775C98.409 9.48789 98.7483 9.34716 99.0253 9.10535C99.3023 8.86355 99.5031 8.53282 99.5994 8.15966C99.953 8.59348 100.383 8.9443 100.864 9.19091C101.112 9.30623 101.386 9.33554 101.65 9.2749C101.913 9.21425 102.153 9.06656 102.338 8.85177C102.489 8.60109 102.561 8.30351 102.544 8.0039C102.527 7.70429 102.421 7.41888 102.243 7.19071C101.884 6.73625 101.422 6.39461 100.902 6.20099C99.333 5.44631 97.6092 5.15976 95.9061 5.37046C94.1943 5.59553 92.6261 6.52916 91.5234 7.97972" fill="#263238"/>
<g opacity="0.4">
<path d="M103.184 7.57095C102.08 6.30649 100.569 5.56185 98.9722 5.49463C95.0639 5.30776 87.7532 7.70937 84.2116 15.461C83.7696 13.8838 83.4813 12.2598 83.3516 10.6162C83.3516 9.49501 83.984 2.80232 90.2575 0.698309C90.2575 0.712151 99.7375 -3.2467 103.184 7.57095Z" fill="black"/>
</g>
<path d="M84.7617 13.9802C86.7698 10.7073 89.402 7.94944 92.4772 5.89634C95.5255 3.82002 100.559 1.7437 104.025 0.747064C105.053 0.375184 106.143 0.250074 107.219 0.380247C107.755 0.454533 108.261 0.692582 108.68 1.06714C109.098 1.4417 109.411 1.93762 109.584 2.4981C109.913 3.93076 107.592 6.13859 106.498 7.00372C105.43 7.78506 104.324 8.50133 103.184 9.14926C103.184 9.14926 103.216 6.49156 99.3326 5.9448C94.0519 5.20424 84.7617 13.9802 84.7617 13.9802Z" fill="#E46C0A"/>
<g opacity="0.3">
<path d="M80.0977 61.0781C81.4637 64.684 82.8423 69.1343 84.8218 72.3803C86.8013 75.6262 89.4448 78.5123 92.7333 79.9935C96.8693 81.8898 101.758 82.1944 105.869 80.2565C106.204 80.0973 106.862 79.8966 106.798 79.5021C106.798 79.5021 105.439 79.329 105.015 79.2529C96.7112 77.7441 95.8069 76.6367 91.829 73.1762C89.3499 71.0376 83.8542 64.5525 80.0977 61.0781Z" fill="black"/>
</g>
<path d="M106.511 87.3367C106.427 87.6326 106.31 87.9162 106.163 88.181C105.794 88.9297 105.344 89.6269 104.822 90.2574C103.063 92.2764 100.849 93.7538 98.4034 94.5415C95.9661 95.301 93.4493 95.7128 90.9156 95.7666C89.948 95.8081 89.1638 95.815 88.6263 95.815C88.3453 95.8277 88.0639 95.8138 87.7852 95.7735C88.0589 95.7044 88.339 95.6695 88.62 95.6697L90.903 95.5105C93.4094 95.3839 95.8942 94.9427 98.3086 94.1955C100.712 93.4129 102.899 91.9855 104.671 90.0428C105.361 89.2068 105.977 88.3006 106.511 87.3367Z" fill="#263238"/>
<path d="M142.286 173.677C142.259 173.609 142.242 173.536 142.235 173.462C142.235 173.303 142.172 173.089 142.121 172.826C142.027 172.244 141.887 171.442 141.717 170.376C141.369 168.216 140.882 165.136 140.275 161.337C139.092 153.682 137.461 143.141 135.658 131.5C134.855 126.226 134.09 121.188 133.388 116.585L133.552 116.73L115.396 118.163L110.184 118.551L108.793 118.641H108.439H108.312H108.433L108.793 118.592L110.178 118.454L115.383 117.969L133.527 116.384H133.666V116.537C134.374 121.139 135.152 126.178 135.962 131.445C137.726 143.093 139.32 153.64 140.483 161.302C141.04 165.109 141.495 168.223 141.818 170.355L142.159 172.826C142.197 173.089 142.223 173.303 142.242 173.462C142.264 173.532 142.279 173.604 142.286 173.677Z" fill="#455A64"/>
<path d="M137.8 111.616C137.857 111.699 136.751 112.737 135.498 114.135C134.246 115.533 133.31 116.758 133.234 116.689C134.401 114.654 135.959 112.923 137.8 111.616Z" fill="#455A64"/>
<path d="M99.0313 35.2279C99.0313 35.2279 99.0693 35.304 99.1072 35.4563C99.1701 35.6815 99.2104 35.9136 99.2274 36.1484C99.3013 37.0024 99.1975 37.8637 98.9238 38.6676C98.5151 39.8691 97.7886 40.91 96.8369 41.6576C95.6488 42.5478 94.2188 42.9678 92.7831 42.848C91.3532 42.7416 89.9834 42.1785 88.8431 41.2284C87.924 40.4556 87.1617 39.4823 86.6044 38.37C86.2266 37.6293 85.9375 36.8384 85.7443 36.0169C85.681 35.7262 85.6368 35.4978 85.6178 35.3248C85.5988 35.1517 85.6178 35.0825 85.6178 35.0825C85.911 36.1742 86.3118 37.2278 86.8131 38.2247C87.3853 39.2799 88.1392 40.2036 89.0329 40.9447C90.138 41.8402 91.4552 42.3688 92.8273 42.4673C94.1914 42.5818 95.5514 42.1945 96.6914 41.3669C97.6017 40.6625 98.3084 39.6873 98.7278 38.5569C99.0145 37.7914 99.1503 36.9683 99.1262 36.1414C99.0819 35.5601 99.0313 35.2417 99.0313 35.2279Z" fill="#263238"/>
<path d="M107.96 65.4523C107.888 65.2287 107.842 64.9962 107.821 64.7602C107.752 64.2134 107.669 63.549 107.568 62.7807C107.36 61.0159 107.088 58.7458 106.79 56.2334C106.493 53.7211 106.278 51.3886 106.158 49.6722C106.088 48.8348 106.044 48.1496 106.019 47.6789C105.989 47.4355 105.989 47.1887 106.019 46.9453C106.085 47.1704 106.129 47.4023 106.152 47.6374C106.221 48.1842 106.303 48.8417 106.398 49.6169C106.601 51.3817 106.86 53.6518 107.144 56.1642C107.429 58.6765 107.676 61.009 107.827 62.7185C107.897 63.5628 107.948 64.2411 107.979 64.7187C107.999 64.9632 107.993 65.2094 107.96 65.4523Z" fill="#263238"/>
</svg>
